<svg xmlns="http://www.w3.org/2000/svg" viewBox="0 0 256 256" width="256" height="256"><defs><clipPath id="cebiplum"><path d="M24 118C22 102 36 90 58 88C82 86 96 78 116 70C150 58 182 64 204 88C232 116 238 154 226 190C219 210 208 224 198 233L178 224C186 206 190 186 184 168C176 149 156 139 132 139C106 139 82 146 60 146C38 146 26 134 24 118Z"/></clipPath></defs><g transform="translate(22.26 2.57) scale(0.9073)"><g transform="translate(0 0) rotate(-6 130 140) translate(130 140) scale(1 1) translate(-130 -140)"><path d="M76 145L75 155" fill="none" stroke="#BC1E37" stroke-width="9.5" stroke-linecap="round" stroke-linejoin="round"/><path d="M98 142L98 153" fill="none" stroke="#BC1E37" stroke-width="9.5" stroke-linecap="round" stroke-linejoin="round"/><path d="M120 139L122 150" fill="none" stroke="#BC1E37" stroke-width="9.5" stroke-linecap="round" stroke-linejoin="round"/><path d="M141 140L145 150" fill="none" stroke="#BC1E37" stroke-width="9.5" stroke-linecap="round" stroke-linejoin="round"/><g transform="rotate(6 188 228)"><path d="M178 222C164 230 152 246 160 254C168 260 182 250 188 242C192 254 204 260 210 252C215 244 208 232 198 228Z" fill="#BC1E37"/><path d="M183 234L188 249L194 235Z" fill="#8F0F26"/></g><g transform="rotate(6 48 90)"><path d="M45 92C34 66 62 50 116 48C168 46 198 40 212 24C219 16 214 9 207 13" fill="none" stroke="#BC1E37" stroke-width="4.4" stroke-linecap="round" stroke-linejoin="round"/><path d="M51 89C46 68 76 58 120 58C170 58 204 52 222 36C230 29 226 21 219 23" fill="none" stroke="#E5364E" stroke-width="4.6" stroke-linecap="round" stroke-linejoin="round"/></g><path d="M24 118C22 102 36 90 58 88C82 86 96 78 116 70C150 58 182 64 204 88C232 116 238 154 226 190C219 210 208 224 198 233L178 224C186 206 190 186 184 168C176 149 156 139 132 139C106 139 82 146 60 146C38 146 26 134 24 118Z" fill="#E5364E"/><g clip-path="url(#cebiplum)"><path d="M0 130C40 140 98 127 134 127C172 127 196 152 199 186C201 207 196 222 190 240L120 262L0 262Z" fill="#BC1E37"/><path d="M86 92C120 74 160 72 192 96" fill="none" stroke="#FF7488" stroke-width="9" stroke-linecap="round" stroke-linejoin="round" opacity=".8"/><path d="M168 66Q166 78 158 88" fill="none" stroke="#BC1E37" stroke-width="5.5" stroke-linecap="round" stroke-linejoin="round"/><path d="M209 96Q200 106 190 110" fill="none" stroke="#BC1E37" stroke-width="5.5" stroke-linecap="round" stroke-linejoin="round"/><path d="M232 140Q220 146 208 146" fill="none" stroke="#BC1E37" stroke-width="5.5" stroke-linecap="round" stroke-linejoin="round"/><path d="M230 182Q218 182 207 178" fill="none" stroke="#BC1E37" stroke-width="5" stroke-linecap="round" stroke-linejoin="round"/></g><path d="M52 110L52.3 110.1L52.4 110.4L52.4 110.7L52.1 111.1L51.6 111.3L51 111.3L50.4 111L49.9 110.4L49.6 109.6L49.7 108.6L50.2 107.6L51.1 106.9L52.3 106.5L53.7 106.6L55 107.3L56.1 108.4L56.6 110L56.6 111.8L55.8 113.5L54.4 114.9L52.5 115.7L50.4 115.8L48.2 115L46.4 113.4L45.3 111.2L45 108.7L45.8 106.1L47.4 103.9L49.8 102.4L52.8 101.9L55.8 102.5L58.4 104.1L60.4 106.8" fill="none" stroke="#2B1D24" stroke-width="2.22" stroke-linecap="round" stroke-linejoin="round"/><path d="M29.5 129L38.5 126.5" fill="none" stroke="#2B1D24" stroke-width="2.4" stroke-linecap="round" stroke-linejoin="round"/></g><path d="M22.36464129175078 26.870950203517104C22.36464129175078 2.870950203517104 59.16464129175078 2.870950203517104 57.564641291750775 28.470950203517106C55.96464129175078 42.870950203517104 38.36464129175078 44.470950203517106 38.36464129175078 57.2709502035171" fill="none" stroke="#8A6CF0" stroke-width="10.9" stroke-linecap="round" stroke-linejoin="round"/><circle cx="38.4" cy="75.8" r="6.7" fill="#8A6CF0"/><path d="M72.36464129175079 27.470950203517106C72.36464129175079 12.470950203517106 95.36464129175079 12.470950203517106 94.36464129175079 28.470950203517106C93.36464129175079 37.470950203517106 82.36464129175079 38.470950203517106 82.36464129175079 46.470950203517106" fill="none" stroke="#A78BFA" stroke-width="6.8" stroke-linecap="round" stroke-linejoin="round"/><circle cx="82.4" cy="58.1" r="4.2" fill="#A78BFA"/></g></svg>