<svg xmlns="http://www.w3.org/2000/svg" viewBox="0 0 400 140">
  <!-- The Sakura Shrine: a red-gated path climbs to a shrine under cherry trees in full bloom, and behind it the Nine-Tailed Kitsune looms calmly, mysterious, never snarling: nine fur tails tipped with soft foxfire fanned out like a halo in a slow sway, its head tilted with a knowing closed smile, one eye closed under a red-shadowed lid, the other a sly gold slit that blinks slowly, dot brows, its porcelain mask pushed up on its head. Stone lanterns flicker, the shrine glows with foxfire, bells sway, foxfire orbs drift and petals fall. -->
  <rect width="400" height="140" fill="var(--lg-sky, #f6e6ef)"/>
  <!-- a pale moon and far mountains -->
  <circle cx="70" cy="30" r="12" fill="#fff6e8" stroke="#e3cfae" stroke-width="1"/>
  <path d="M0 86 L30 64 L56 72 L90 48 L122 70 L150 62 L176 76 V100 H0Z" fill="var(--lg-far, #e3b4cd)" stroke="var(--lg-ink, #1d2230)" stroke-width="0.8" stroke-linejoin="round"/>
  <path d="M260 78 L292 56 L318 66 L350 46 L380 62 L400 56 V100 H260Z" fill="var(--lg-far, #e3b4cd)" stroke="var(--lg-ink, #1d2230)" stroke-width="0.8" stroke-linejoin="round"/>
  <path d="M82 54 L90 48 L98 55 L92 54 L89 58Z M342 52 L350 46 L358 52 L352 51 L349 55Z" fill="#fff" opacity="0.8"/>
  <!-- THE NINE-TAILED KITSUNE looming behind the shrine -->
  <g transform="translate(210 100)"><g transform="rotate(-88)"><g><animateTransform class="lg-loop" attributeName="transform" type="rotate" values="0;-3;0" dur="4.8s" repeatCount="indefinite"/><path d="M-8 0 C-16 -26 -14 -54 -4 -74 C0 -66 4 -70 8 -76 C14 -54 16 -26 8 0Z" fill="#fbf3f6" stroke="var(--lg-ink, #1d2230)" stroke-width="1.1" stroke-linejoin="round"/><path d="M-3 0 C-9 -26 -9 -52 -1 -68 C1 -52 2 -26 2 0Z" fill="#000" opacity="0.08"/><g transform="translate(0 -62)"><path d="M-9 4 C-12 -6 -6 -12 -5 -22 C-2 -14 1 -18 1 -26 C6 -18 10 -10 9 4 C4 8 -4 8 -9 4Z" fill="#4fe3ff" stroke="#1a7f99" stroke-width="0.8" stroke-linejoin="round" style="transform-box:fill-box;transform-origin:center bottom"><animateTransform class="lg-loop" attributeName="transform" type="scale" values="1 1;0.94 1.08;1.03 0.96;1 1" dur="1.6s" repeatCount="indefinite"/></path><path d="M-4 3 C-6 -4 -2 -8 -1 -14 C2 -8 4 -4 4 3Z" fill="#c9f8ff"/></g></g></g><g transform="rotate(-66)"><g><animateTransform class="lg-loop" attributeName="transform" type="rotate" values="0;3;0" dur="5.9s" repeatCount="indefinite"/><path d="M-8 0 C-16 -26 -14 -54 -4 -74 C0 -66 4 -70 8 -76 C14 -54 16 -26 8 0Z" fill="#fbf3f6" stroke="var(--lg-ink, #1d2230)" stroke-width="1.1" stroke-linejoin="round"/><path d="M-3 0 C-9 -26 -9 -52 -1 -68 C1 -52 2 -26 2 0Z" fill="#000" opacity="0.08"/><g transform="translate(0 -62)"><path d="M-9 4 C-12 -6 -6 -12 -5 -22 C-2 -14 1 -18 1 -26 C6 -18 10 -10 9 4 C4 8 -4 8 -9 4Z" fill="#4fe3ff" stroke="#1a7f99" stroke-width="0.8" stroke-linejoin="round" style="transform-box:fill-box;transform-origin:center bottom"><animateTransform class="lg-loop" attributeName="transform" type="scale" values="1 1;0.94 1.08;1.03 0.96;1 1" dur="2.0s" repeatCount="indefinite"/></path><path d="M-4 3 C-6 -4 -2 -8 -1 -14 C2 -8 4 -4 4 3Z" fill="#c9f8ff"/></g></g></g><g transform="rotate(-44)"><g><animateTransform class="lg-loop" attributeName="transform" type="rotate" values="0;-3;0" dur="7.0s" repeatCount="indefinite"/><path d="M-8 0 C-16 -26 -14 -54 -4 -74 C0 -66 4 -70 8 -76 C14 -54 16 -26 8 0Z" fill="#fbf3f6" stroke="var(--lg-ink, #1d2230)" stroke-width="1.1" stroke-linejoin="round"/><path d="M-3 0 C-9 -26 -9 -52 -1 -68 C1 -52 2 -26 2 0Z" fill="#000" opacity="0.08"/><g transform="translate(0 -62)"><path d="M-9 4 C-12 -6 -6 -12 -5 -22 C-2 -14 1 -18 1 -26 C6 -18 10 -10 9 4 C4 8 -4 8 -9 4Z" fill="#4fe3ff" stroke="#1a7f99" stroke-width="0.8" stroke-linejoin="round" style="transform-box:fill-box;transform-origin:center bottom"><animateTransform class="lg-loop" attributeName="transform" type="scale" values="1 1;0.94 1.08;1.03 0.96;1 1" dur="2.4s" repeatCount="indefinite"/></path><path d="M-4 3 C-6 -4 -2 -8 -1 -14 C2 -8 4 -4 4 3Z" fill="#c9f8ff"/></g></g></g><g transform="rotate(-22)"><g><animateTransform class="lg-loop" attributeName="transform" type="rotate" values="0;3;0" dur="8.2s" repeatCount="indefinite"/><path d="M-8 0 C-16 -26 -14 -54 -4 -74 C0 -66 4 -70 8 -76 C14 -54 16 -26 8 0Z" fill="#fbf3f6" stroke="var(--lg-ink, #1d2230)" stroke-width="1.1" stroke-linejoin="round"/><path d="M-3 0 C-9 -26 -9 -52 -1 -68 C1 -52 2 -26 2 0Z" fill="#000" opacity="0.08"/><g transform="translate(0 -62)"><path d="M-9 4 C-12 -6 -6 -12 -5 -22 C-2 -14 1 -18 1 -26 C6 -18 10 -10 9 4 C4 8 -4 8 -9 4Z" fill="#4fe3ff" stroke="#1a7f99" stroke-width="0.8" stroke-linejoin="round" style="transform-box:fill-box;transform-origin:center bottom"><animateTransform class="lg-loop" attributeName="transform" type="scale" values="1 1;0.94 1.08;1.03 0.96;1 1" dur="1.6s" repeatCount="indefinite"/></path><path d="M-4 3 C-6 -4 -2 -8 -1 -14 C2 -8 4 -4 4 3Z" fill="#c9f8ff"/></g></g></g><g transform="rotate(0)"><g><animateTransform class="lg-loop" attributeName="transform" type="rotate" values="0;-3;0" dur="4.8s" repeatCount="indefinite"/><path d="M-8 0 C-16 -26 -14 -54 -4 -74 C0 -66 4 -70 8 -76 C14 -54 16 -26 8 0Z" fill="#fbf3f6" stroke="var(--lg-ink, #1d2230)" stroke-width="1.1" stroke-linejoin="round"/><path d="M-3 0 C-9 -26 -9 -52 -1 -68 C1 -52 2 -26 2 0Z" fill="#000" opacity="0.08"/><g transform="translate(0 -62)"><path d="M-9 4 C-12 -6 -6 -12 -5 -22 C-2 -14 1 -18 1 -26 C6 -18 10 -10 9 4 C4 8 -4 8 -9 4Z" fill="#4fe3ff" stroke="#1a7f99" stroke-width="0.8" stroke-linejoin="round" style="transform-box:fill-box;transform-origin:center bottom"><animateTransform class="lg-loop" attributeName="transform" type="scale" values="1 1;0.94 1.08;1.03 0.96;1 1" dur="2.0s" repeatCount="indefinite"/></path><path d="M-4 3 C-6 -4 -2 -8 -1 -14 C2 -8 4 -4 4 3Z" fill="#c9f8ff"/></g></g></g><g transform="rotate(22)"><g><animateTransform class="lg-loop" attributeName="transform" type="rotate" values="0;3;0" dur="5.9s" repeatCount="indefinite"/><path d="M-8 0 C-16 -26 -14 -54 -4 -74 C0 -66 4 -70 8 -76 C14 -54 16 -26 8 0Z" fill="#fbf3f6" stroke="var(--lg-ink, #1d2230)" stroke-width="1.1" stroke-linejoin="round"/><path d="M-3 0 C-9 -26 -9 -52 -1 -68 C1 -52 2 -26 2 0Z" fill="#000" opacity="0.08"/><g transform="translate(0 -62)"><path d="M-9 4 C-12 -6 -6 -12 -5 -22 C-2 -14 1 -18 1 -26 C6 -18 10 -10 9 4 C4 8 -4 8 -9 4Z" fill="#4fe3ff" stroke="#1a7f99" stroke-width="0.8" stroke-linejoin="round" style="transform-box:fill-box;transform-origin:center bottom"><animateTransform class="lg-loop" attributeName="transform" type="scale" values="1 1;0.94 1.08;1.03 0.96;1 1" dur="2.4s" repeatCount="indefinite"/></path><path d="M-4 3 C-6 -4 -2 -8 -1 -14 C2 -8 4 -4 4 3Z" fill="#c9f8ff"/></g></g></g><g transform="rotate(44)"><g><animateTransform class="lg-loop" attributeName="transform" type="rotate" values="0;-3;0" dur="7.0s" repeatCount="indefinite"/><path d="M-8 0 C-16 -26 -14 -54 -4 -74 C0 -66 4 -70 8 -76 C14 -54 16 -26 8 0Z" fill="#fbf3f6" stroke="var(--lg-ink, #1d2230)" stroke-width="1.1" stroke-linejoin="round"/><path d="M-3 0 C-9 -26 -9 -52 -1 -68 C1 -52 2 -26 2 0Z" fill="#000" opacity="0.08"/><g transform="translate(0 -62)"><path d="M-9 4 C-12 -6 -6 -12 -5 -22 C-2 -14 1 -18 1 -26 C6 -18 10 -10 9 4 C4 8 -4 8 -9 4Z" fill="#4fe3ff" stroke="#1a7f99" stroke-width="0.8" stroke-linejoin="round" style="transform-box:fill-box;transform-origin:center bottom"><animateTransform class="lg-loop" attributeName="transform" type="scale" values="1 1;0.94 1.08;1.03 0.96;1 1" dur="1.6s" repeatCount="indefinite"/></path><path d="M-4 3 C-6 -4 -2 -8 -1 -14 C2 -8 4 -4 4 3Z" fill="#c9f8ff"/></g></g></g><g transform="rotate(66)"><g><animateTransform class="lg-loop" attributeName="transform" type="rotate" values="0;3;0" dur="8.2s" repeatCount="indefinite"/><path d="M-8 0 C-16 -26 -14 -54 -4 -74 C0 -66 4 -70 8 -76 C14 -54 16 -26 8 0Z" fill="#fbf3f6" stroke="var(--lg-ink, #1d2230)" stroke-width="1.1" stroke-linejoin="round"/><path d="M-3 0 C-9 -26 -9 -52 -1 -68 C1 -52 2 -26 2 0Z" fill="#000" opacity="0.08"/><g transform="translate(0 -62)"><path d="M-9 4 C-12 -6 -6 -12 -5 -22 C-2 -14 1 -18 1 -26 C6 -18 10 -10 9 4 C4 8 -4 8 -9 4Z" fill="#4fe3ff" stroke="#1a7f99" stroke-width="0.8" stroke-linejoin="round" style="transform-box:fill-box;transform-origin:center bottom"><animateTransform class="lg-loop" attributeName="transform" type="scale" values="1 1;0.94 1.08;1.03 0.96;1 1" dur="2.0s" repeatCount="indefinite"/></path><path d="M-4 3 C-6 -4 -2 -8 -1 -14 C2 -8 4 -4 4 3Z" fill="#c9f8ff"/></g></g></g><g transform="rotate(88)"><g><animateTransform class="lg-loop" attributeName="transform" type="rotate" values="0;-3;0" dur="4.8s" repeatCount="indefinite"/><path d="M-8 0 C-16 -26 -14 -54 -4 -74 C0 -66 4 -70 8 -76 C14 -54 16 -26 8 0Z" fill="#fbf3f6" stroke="var(--lg-ink, #1d2230)" stroke-width="1.1" stroke-linejoin="round"/><path d="M-3 0 C-9 -26 -9 -52 -1 -68 C1 -52 2 -26 2 0Z" fill="#000" opacity="0.08"/><g transform="translate(0 -62)"><path d="M-9 4 C-12 -6 -6 -12 -5 -22 C-2 -14 1 -18 1 -26 C6 -18 10 -10 9 4 C4 8 -4 8 -9 4Z" fill="#4fe3ff" stroke="#1a7f99" stroke-width="0.8" stroke-linejoin="round" style="transform-box:fill-box;transform-origin:center bottom"><animateTransform class="lg-loop" attributeName="transform" type="scale" values="1 1;0.94 1.08;1.03 0.96;1 1" dur="2.4s" repeatCount="indefinite"/></path><path d="M-4 3 C-6 -4 -2 -8 -1 -14 C2 -8 4 -4 4 3Z" fill="#c9f8ff"/></g></g></g></g>
  <g transform="translate(210 68) scale(1.08) rotate(-6) translate(-210 -74)"><g><animateTransform class="lg-loop" attributeName="transform" type="translate" values="0 0;0 -1.4;0 0" dur="6s" repeatCount="indefinite"/>
    <path d="M194 34 L184 8 L202 26Z M226 34 L236 8 L218 26Z" fill="#fbf3f6" stroke="var(--lg-ink, #1d2230)" stroke-width="1.2" stroke-linejoin="round"/>
    <path d="M193 28 L188 14 L198 24Z M227 28 L232 14 L222 24Z" fill="#e0304a"/>
    <path d="M186 40 L178 46 L188 48 L184 56 L196 58 L210 72 L224 58 L236 56 L232 48 L242 46 L234 40 L228 28 L210 24 L192 28Z" fill="#fbf3f6" stroke="var(--lg-ink, #1d2230)" stroke-width="1.4" stroke-linejoin="round"/>
    <path d="M186 40 L178 46 L188 48 L184 56 L196 58 L210 72 L208 52 L194 40 L192 28Z" fill="#000" opacity="0.08"/>
    <!-- the face: dot brows, a flame mark, cheek marks -->
    <path d="M210 26 C208.4 29 208.4 32 210 35 C211.6 32 211.6 29 210 26Z" fill="#e0304a"/>
    <ellipse cx="201" cy="36" rx="2.2" ry="1.2" transform="rotate(-14 201 36)" fill="#e0304a"/>
    <ellipse cx="219" cy="36" rx="2.2" ry="1.2" transform="rotate(14 219 36)" fill="#e0304a"/>
    <path d="M187 50 C190 51.4 193 52 196 52.4 M189 54.4 C191.6 55.2 194 55.6 197 55.6 M233 50 C230 51.4 227 52 224 52.4 M231 54.4 C228.4 55.2 226 55.6 223 55.6" fill="none" stroke="#e0304a" stroke-width="1.3" stroke-linecap="round"/>
    <!-- the closed eye under a red-shadowed lid -->
    <g transform="translate(201 45.6) rotate(15)">
      <path d="M-7 -0.4 C-4 -4.4 3 -4.6 6.6 -1.2 C3 -2.2 -3 -2 -7 -0.4Z" fill="#e0304a" opacity="0.5"/>
      <path d="M-6.6 -0.6 C-3.4 2.4 3 2.4 6.4 -0.6" fill="none" stroke="var(--lg-ink, #1d2230)" stroke-width="1.8" stroke-linecap="round"/>
      <path d="M-6.6 -0.6 C-8.2 -1.2 -9.4 -2.6 -10 -4.2" fill="none" stroke="var(--lg-ink, #1d2230)" stroke-width="1.2" stroke-linecap="round"/>
    </g>
    <!-- the sly open eye: a gold slit that blinks slowly -->
    <g transform="translate(219 45.6) rotate(-15)">
      <path d="M7 -0.4 C4 -4.4 -3 -4.6 -6.6 -1.2 C-3 -2.2 3 -2 7 -0.4Z" fill="#e0304a" opacity="0.5"/>
      <g><animateTransform class="lg-loop" attributeName="transform" type="scale" values="1 1;1 1;1 0.1;1 1;1 1" keyTimes="0;.88;.92;.96;1" dur="6.4s" repeatCount="indefinite"/>
        <ellipse cx="0" cy="0.4" rx="8" ry="3.4" fill="#ffd23a" opacity="0.45"/>
        <path d="M-6.2 0.4 C-3.2 -1.6 3.2 -2.2 6.4 -0.6 C3.6 1.8 -2.6 2.2 -6.2 0.4Z" fill="#ffc42a" stroke="var(--lg-ink, #1d2230)" stroke-width="0.6" stroke-linejoin="round"/>
        <ellipse cx="-1.8" cy="0.1" rx="0.7" ry="1.6" fill="#1a1005"/>
        <circle cx="0.3" cy="-0.5" r="0.5" fill="#fff"/>
      </g>
      <path d="M-6.6 0.6 C-3.2 -2.4 3.2 -2.8 6.6 -0.6" fill="none" stroke="var(--lg-ink, #1d2230)" stroke-width="1.8" stroke-linecap="round"/>
      <path d="M6.6 -0.6 C8.2 -1.2 9.4 -2.6 10 -4.2" fill="none" stroke="var(--lg-ink, #1d2230)" stroke-width="1.2" stroke-linecap="round"/>
    </g>
    <!-- nose and a closed smile curling up at one corner -->
    <path d="M207 53 L213 53 L210 56Z" fill="#1a0e14"/>
    <path d="M210 56 V58.6" stroke="var(--lg-ink, #1d2230)" stroke-width="0.8" stroke-linecap="round"/>
    <path d="M203.4 59 C206 60 208.4 59.8 210 58.6 C212.2 60 215.4 59.4 218.6 56.4 C219.4 55.8 220 55.9 220.4 56.4" fill="none" stroke="var(--lg-ink, #1d2230)" stroke-width="1.2" stroke-linecap="round" stroke-linejoin="round"/>
    <path d="M215.6 59.2 L216.3 61.4 L217.1 58.8Z" fill="#fff" stroke="var(--lg-ink, #1d2230)" stroke-width="0.4" stroke-linejoin="round"/>
    <path d="M199 57 C194 55.4 189 55.8 184 58 M221 57 C226 55.4 231 55.8 236 58" fill="none" stroke="var(--lg-ink, #1d2230)" stroke-width="0.5" stroke-linecap="round" opacity="0.7"/>
    <!-- the porcelain mask pushed up on its head, on a red cord -->
    <path d="M194 30 C200 26 208 24 218 24.6" fill="none" stroke="#e0304a" stroke-width="1" stroke-linecap="round"/>
    <g transform="translate(215 23) rotate(14) scale(0.42)">
      <path d="M0 -15 L12 -11 L18 -2 L17 10 L8 16 L0 13 L-8 16 L-17 10 L-18 -2 L-12 -11Z" fill="#fffaf4" stroke="var(--lg-ink, #1d2230)" stroke-width="2.6" stroke-linejoin="round"/>
      <path d="M0 -15 L12 -11 L18 -2 L17 10 L8 16 L0 13Z" fill="#000" opacity="0.1"/>
      <path d="M-15 -14 L-19 -26 L-8 -13Z M15 -14 L19 -26 L8 -13Z" fill="#fffaf4" stroke="var(--lg-ink, #1d2230)" stroke-width="2.2" stroke-linejoin="round"/>
      <path d="M-14 -15 L-16.6 -22.6 L-10 -14Z M14 -15 L16.6 -22.6 L10 -14Z M0 -12 C-2.4 -8 -2.4 -4 0 0 C2.4 -4 2.4 -8 0 -12Z" fill="#e0304a"/>
      <path d="M-13 1 C-10 -2.4 -5 -2.4 -3 0.6 M13 1 C10 -2.4 5 -2.4 3 0.6" fill="none" stroke="var(--lg-ink, #1d2230)" stroke-width="2.4" stroke-linecap="round"/>
      <path d="M-6 9 C-3 11.4 3 11.4 6 9 M-15 5 L-11 7 M15 5 L11 7" fill="none" stroke="#e0304a" stroke-width="2.2" stroke-linecap="round"/>
    </g>
  </g></g>
  <!-- foxfire orbs drifting -->
  <g fill="#4fe3ff">
    <g><animateTransform class="lg-loop" attributeName="transform" type="translate" values="0 0;8 -6;0 -10;-6 -4;0 0" dur="6s" repeatCount="indefinite"/><circle cx="148" cy="52" r="4" opacity="0.4"/><circle cx="148" cy="52" r="2"/><circle cx="147.4" cy="51.4" r="0.8" fill="#fff"/></g>
    <g><animateTransform class="lg-loop" attributeName="transform" type="translate" values="0 0;-8 -8;2 -12;6 -4;0 0" dur="7s" repeatCount="indefinite"/><circle cx="276" cy="48" r="4" opacity="0.4"/><circle cx="276" cy="48" r="2"/><circle cx="275.4" cy="47.4" r="0.8" fill="#fff"/></g>
    <g><animateTransform class="lg-loop" attributeName="transform" type="translate" values="0 0;6 6;12 0;6 -4;0 0" dur="8s" repeatCount="indefinite"/><circle cx="252" cy="96" r="3.4" opacity="0.4"/><circle cx="252" cy="96" r="1.6"/></g>
  </g>
  <!-- the shrine -->
  <path d="M150 104 H270 L264 96 H156Z" fill="#a7a1ad" stroke="var(--lg-ink, #1d2230)" stroke-width="1" stroke-linejoin="round"/>
  <g stroke="var(--lg-ink, #1d2230)" stroke-linejoin="round">
    <rect x="166" y="72" width="88" height="24" fill="#f3ead8" stroke-width="1.2"/>
    <path d="M168 74 H252 M168 84 H252" fill="none" stroke="#c9b48a" stroke-width="0.6"/>
    <path d="M190 74 V96 M230 74 V96" fill="none" stroke="#c9b48a" stroke-width="0.6"/>
    <rect x="164" y="72" width="5" height="24" fill="#d8333f" stroke-width="0.9"/><rect x="251" y="72" width="5" height="24" fill="#d8333f" stroke-width="0.9"/>
    <rect x="198" y="80" width="24" height="16" fill="#2a1a20" stroke-width="0.9"/>
    <rect x="198" y="80" width="24" height="16" fill="#4fe3ff" opacity="0.35" stroke="none" style="transform-box:fill-box;transform-origin:center"><animateTransform class="lg-loop" attributeName="transform" type="scale" values="1 1;1 0.85;1 1" dur="2.4s" repeatCount="indefinite"/></rect>
    <path d="M140 74 Q160 68 172 60 L210 52 L248 60 Q260 68 280 74 Q262 76 246 70 L174 70 Q158 76 140 74Z" fill="var(--lg-deep, #c1477d)" stroke-width="1.4"/>
    <path d="M172 60 L210 52 L248 60 L246 64 L210 56 L174 64Z" fill="#fff" opacity="0.25" stroke="none"/>
    <path d="M178 64 L242 64" fill="none" stroke="#000" stroke-width="0.6" opacity="0.4"/>
    <path d="M186 70 Q210 76 234 70" fill="none" stroke="#e8d6a2" stroke-width="2.2"/>
    <path d="M186 70 Q210 76 234 70" fill="none" stroke="#b8963c" stroke-width="0.6"/>
    <path d="M196 73 L197 79 L199 73 M220 73 L221 79 L223 73" fill="#fff" stroke-width="0.4"/>
  </g>
  <g transform="translate(180 70)"><g style="transform-box:fill-box;transform-origin:center top"><animateTransform class="lg-loop" attributeName="transform" type="rotate" values="-6;6;-6" dur="3s" repeatCount="indefinite"/><path d="M-1 0 V3" stroke="var(--lg-ink, #1d2230)" stroke-width="0.6"/><rect x="-3" y="3" width="6" height="8" rx="2.4" fill="#ff5a4a" stroke="var(--lg-ink, #1d2230)" stroke-width="0.7"/></g></g>
  <g transform="translate(240 70)"><g style="transform-box:fill-box;transform-origin:center top"><animateTransform class="lg-loop" attributeName="transform" type="rotate" values="6;-6;6" dur="3.2s" repeatCount="indefinite"/><path d="M-1 0 V3" stroke="var(--lg-ink, #1d2230)" stroke-width="0.6"/><rect x="-3" y="3" width="6" height="8" rx="2.4" fill="#ff5a4a" stroke="var(--lg-ink, #1d2230)" stroke-width="0.7"/></g></g>
  <!-- the hill and the stone steps -->
  <path d="M0 140 V100 C40 96 100 100 150 104 L270 104 C320 100 360 98 400 100 V140Z" fill="var(--lg-near, #d27aa3)" stroke="var(--lg-ink, #1d2230)" stroke-width="1.2" stroke-linejoin="round"/>
  <path d="M190 104 H230 L240 140 H180Z" fill="#c3bdc9" stroke="var(--lg-ink, #1d2230)" stroke-width="1" stroke-linejoin="round"/>
  <path d="M188 110 H232 M186 117 H234 M184 125 H236 M182 133 H238" fill="none" stroke="var(--lg-ink, #1d2230)" stroke-width="0.8"/>
  <!-- the gate path climbing on the left -->
  <g stroke="var(--lg-ink, #1d2230)" stroke-width="0.70" stroke-linejoin="round"><path d="M129.8 106 L130.4 83.1 L133.1 83.1 L132.5 106Z" fill="#d8333f"/><path d="M151.5 106 L150.9 83.1 L153.6 83.1 L154.2 106Z" fill="#d8333f"/><rect x="128.8" y="85.7" width="26.4" height="1.8" fill="#d8333f"/><path d="M125.2 79.5 Q142 82.1 158.8 79.5 L157.0 82.6 Q142 84.2 127.0 82.6Z" fill="#2a1a20"/><path d="M127.0 82.6 Q142 84.2 157.0 82.6 L157.0 83.9 Q142 85.5 127.0 83.9Z" fill="#d8333f"/><rect x="140.8" y="83.9" width="2.4" height="2.1" fill="#2a1a20"/></g><g stroke="var(--lg-ink, #1d2230)" stroke-width="0.70" stroke-linejoin="round"><path d="M88.2 118 L89.1 84.6 L93.0 84.6 L92.1 118Z" fill="#d8333f"/><path d="M119.9 118 L119.0 84.6 L122.9 84.6 L123.8 118Z" fill="#d8333f"/><rect x="86.6" y="88.4" width="38.7" height="2.7" fill="#d8333f"/><path d="M81.4 79.2 Q106 83.0 130.6 79.2 L128.0 83.8 Q106 86.1 84.0 83.8Z" fill="#2a1a20"/><path d="M84.0 83.8 Q106 86.1 128.0 83.8 L128.0 85.7 Q106 88.0 84.0 85.7Z" fill="#d8333f"/><rect x="104.2" y="85.7" width="3.5" height="3.0" fill="#2a1a20"/></g><g stroke="var(--lg-ink, #1d2230)" stroke-width="1.00" stroke-linejoin="round"><path d="M23.7 138 L25.1 83.4 L31.3 83.4 L29.9 138Z" fill="#d8333f"/><path d="M74.0 138 L72.6 83.4 L79.0 83.4 L80.4 138Z" fill="#d8333f"/><rect x="21.2" y="89.6" width="61.6" height="4.3" fill="#d8333f"/><path d="M12.8 74.8 Q52 81.0 91.2 74.8 L87.0 82.2 Q52 85.9 17.0 82.2Z" fill="#2a1a20"/><path d="M17.0 82.2 Q52 85.9 87.0 82.2 L87.0 85.3 Q52 89.0 17.0 85.3Z" fill="#d8333f"/><rect x="49.2" y="85.3" width="5.6" height="5.0" fill="#2a1a20"/></g>
  <path d="M34 140 C70 124 110 114 150 106 L158 106 C122 116 90 128 70 140Z" fill="#c3bdc9" opacity="0.7"/>
  <g transform="translate(174 104) scale(0.8)" stroke="var(--lg-ink, #1d2230)" stroke-width="0.9" stroke-linejoin="round"><path d="M-6 0 L-4 -3 L4 -3 L6 0Z M-2 -3 L-2 -12 L2 -12 L2 -3Z" fill="#a7a1ad"/><path d="M-6 -12 L6 -12 L5 -21 L-5 -21Z" fill="#c3bdc9"/><rect x="-3" y="-19" width="6" height="5" fill="#ffd27a"/><path d="M0 -14.6 C-2 -16 -1.4 -18 0 -19.4 C1.4 -18 2 -16 0 -14.6Z" fill="#ff8a2a" stroke="none" style="transform-box:fill-box;transform-origin:center bottom"><animateTransform class="lg-loop" attributeName="transform" type="scale" values="1 1;0.8 1.2;1.1 0.9;1 1" dur="0.6s" repeatCount="indefinite"/></path><path d="M-9 -21 L0 -27 L9 -21Z" fill="#a7a1ad"/><circle cx="0" cy="-28" r="1.4" fill="#a7a1ad"/></g><g transform="translate(246 104) scale(0.8)" stroke="var(--lg-ink, #1d2230)" stroke-width="0.9" stroke-linejoin="round"><path d="M-6 0 L-4 -3 L4 -3 L6 0Z M-2 -3 L-2 -12 L2 -12 L2 -3Z" fill="#a7a1ad"/><path d="M-6 -12 L6 -12 L5 -21 L-5 -21Z" fill="#c3bdc9"/><rect x="-3" y="-19" width="6" height="5" fill="#ffd27a"/><path d="M0 -14.6 C-2 -16 -1.4 -18 0 -19.4 C1.4 -18 2 -16 0 -14.6Z" fill="#ff8a2a" stroke="none" style="transform-box:fill-box;transform-origin:center bottom"><animateTransform class="lg-loop" attributeName="transform" type="scale" values="1 1;0.8 1.2;1.1 0.9;1 1" dur="0.6s" repeatCount="indefinite"/></path><path d="M-9 -21 L0 -27 L9 -21Z" fill="#a7a1ad"/><circle cx="0" cy="-28" r="1.4" fill="#a7a1ad"/></g><g transform="translate(258 130) scale(1.1)" stroke="var(--lg-ink, #1d2230)" stroke-width="0.9" stroke-linejoin="round"><path d="M-6 0 L-4 -3 L4 -3 L6 0Z M-2 -3 L-2 -12 L2 -12 L2 -3Z" fill="#a7a1ad"/><path d="M-6 -12 L6 -12 L5 -21 L-5 -21Z" fill="#c3bdc9"/><rect x="-3" y="-19" width="6" height="5" fill="#ffd27a"/><path d="M0 -14.6 C-2 -16 -1.4 -18 0 -19.4 C1.4 -18 2 -16 0 -14.6Z" fill="#ff8a2a" stroke="none" style="transform-box:fill-box;transform-origin:center bottom"><animateTransform class="lg-loop" attributeName="transform" type="scale" values="1 1;0.8 1.2;1.1 0.9;1 1" dur="0.6s" repeatCount="indefinite"/></path><path d="M-9 -21 L0 -27 L9 -21Z" fill="#a7a1ad"/><circle cx="0" cy="-28" r="1.4" fill="#a7a1ad"/></g>
  <!-- cherry trees in full bloom -->
  <g>
    <path d="M330 140 C334 120 330 100 320 86 L326 84 C334 92 340 104 342 116 C348 100 360 90 374 84 L376 88 C362 96 352 110 348 140Z" fill="#4a2e2a" stroke="var(--lg-ink, #1d2230)" stroke-width="1" stroke-linejoin="round"/>
    <g transform="translate(350 70)"><g><animateTransform class="lg-loop" attributeName="transform" type="rotate" values="0;1.6;0" dur="5s" repeatCount="indefinite"/><g transform="translate(-350 -70)">
      <circle cx="300" cy="76" r="12" fill="#f7b6cc" stroke="var(--lg-ink, #1d2230)" stroke-width="0.8"/><circle cx="296.4" cy="72.4" r="6.6" fill="#ffdbe7"/><circle cx="320" cy="64" r="15" fill="#f7b6cc" stroke="var(--lg-ink, #1d2230)" stroke-width="0.8"/><circle cx="315.5" cy="59.5" r="8.2" fill="#ffdbe7"/><circle cx="346" cy="58" r="16" fill="#f7b6cc" stroke="var(--lg-ink, #1d2230)" stroke-width="0.8"/><circle cx="341.2" cy="53.2" r="8.8" fill="#ffdbe7"/><circle cx="372" cy="64" r="15" fill="#f7b6cc" stroke="var(--lg-ink, #1d2230)" stroke-width="0.8"/><circle cx="367.5" cy="59.5" r="8.2" fill="#ffdbe7"/><circle cx="392" cy="74" r="13" fill="#f7b6cc" stroke="var(--lg-ink, #1d2230)" stroke-width="0.8"/><circle cx="388.1" cy="70.1" r="7.2" fill="#ffdbe7"/><circle cx="330" cy="82" r="11" fill="#f7b6cc" stroke="var(--lg-ink, #1d2230)" stroke-width="0.8"/><circle cx="326.7" cy="78.7" r="6.1" fill="#ffdbe7"/><circle cx="362" cy="80" r="12" fill="#f7b6cc" stroke="var(--lg-ink, #1d2230)" stroke-width="0.8"/><circle cx="358.4" cy="76.4" r="6.6" fill="#ffdbe7"/><circle cx="384" cy="52" r="11" fill="#f7b6cc" stroke="var(--lg-ink, #1d2230)" stroke-width="0.8"/><circle cx="380.7" cy="48.7" r="6.1" fill="#ffdbe7"/><circle cx="312" cy="50" r="9" fill="#f7b6cc" stroke="var(--lg-ink, #1d2230)" stroke-width="0.8"/><circle cx="309.3" cy="47.3" r="5.0" fill="#ffdbe7"/>
      <g fill="#e88aa8"><circle cx="318" cy="70" r="1.4"/><circle cx="344" cy="66" r="1.6"/><circle cx="370" cy="70" r="1.4"/><circle cx="388" cy="80" r="1.2"/><circle cx="302" cy="80" r="1.2"/></g>
    </g></g></g>
  </g>
  <g>
    <path d="M0 22 C14 26 28 34 38 46 L34 48 C26 38 14 32 0 28Z" fill="#4a2e2a" stroke="var(--lg-ink, #1d2230)" stroke-width="0.9" stroke-linejoin="round"/>
    <g transform="translate(0 24)"><g><animateTransform class="lg-loop" attributeName="transform" type="rotate" values="0;2;0" dur="5.6s" repeatCount="indefinite"/><g transform="translate(0 -24)">
      <circle cx="8" cy="16" r="12" fill="#f7b6cc" stroke="var(--lg-ink, #1d2230)" stroke-width="0.8"/><circle cx="4.4" cy="12.4" r="6.6" fill="#ffdbe7"/><circle cx="28" cy="28" r="11" fill="#f7b6cc" stroke="var(--lg-ink, #1d2230)" stroke-width="0.8"/><circle cx="24.7" cy="24.7" r="6.1" fill="#ffdbe7"/><circle cx="42" cy="44" r="9" fill="#f7b6cc" stroke="var(--lg-ink, #1d2230)" stroke-width="0.8"/><circle cx="39.3" cy="41.3" r="5.0" fill="#ffdbe7"/><circle cx="4" cy="36" r="9" fill="#f7b6cc" stroke="var(--lg-ink, #1d2230)" stroke-width="0.8"/><circle cx="1.3" cy="33.3" r="5.0" fill="#ffdbe7"/>
      <g fill="#e88aa8"><circle cx="10" cy="20" r="1.3"/><circle cx="30" cy="31" r="1.3"/></g>
    </g></g></g>
  </g>
  <!-- falling petals -->
  <g fill="#f7b6cc" stroke="#e88aa8" stroke-width="0.4"><path d="M161 50 c1.6 -2 4 -1 3.6 1 c-0.6 2 -3 2.4 -3.6 -1Z" style="transform-box:fill-box;transform-origin:center"><animateTransform class="lg-loop" attributeName="transform" type="translate" values="0 0;-40 40;-70 82" dur="6.4s" repeatCount="indefinite" begin="4.6s"/><animateTransform class="lg-loop" attributeName="transform" type="scale" values="0.01;1;1;0.01" dur="6.4s" repeatCount="indefinite" keyTimes="0;.1;.85;1" additive="sum" begin="4.6s"/></path><path d="M282 20 c1.6 -2 4 -1 3.6 1 c-0.6 2 -3 2.4 -3.6 -1Z" style="transform-box:fill-box;transform-origin:center"><animateTransform class="lg-loop" attributeName="transform" type="translate" values="0 0;-40 40;-70 82" dur="7.8s" repeatCount="indefinite" begin="4.5s"/><animateTransform class="lg-loop" attributeName="transform" type="scale" values="0.01;1;1;0.01" dur="7.8s" repeatCount="indefinite" keyTimes="0;.1;.85;1" additive="sum" begin="4.5s"/></path><path d="M280 32 c1.6 -2 4 -1 3.6 1 c-0.6 2 -3 2.4 -3.6 -1Z" style="transform-box:fill-box;transform-origin:center"><animateTransform class="lg-loop" attributeName="transform" type="translate" values="0 0;-40 40;-70 82" dur="7.7s" repeatCount="indefinite" begin="1.0s"/><animateTransform class="lg-loop" attributeName="transform" type="scale" values="0.01;1;1;0.01" dur="7.7s" repeatCount="indefinite" keyTimes="0;.1;.85;1" additive="sum" begin="1.0s"/></path><path d="M280 50 c1.6 -2 4 -1 3.6 1 c-0.6 2 -3 2.4 -3.6 -1Z" style="transform-box:fill-box;transform-origin:center"><animateTransform class="lg-loop" attributeName="transform" type="translate" values="0 0;-40 40;-70 82" dur="8.5s" repeatCount="indefinite" begin="2.4s"/><animateTransform class="lg-loop" attributeName="transform" type="scale" values="0.01;1;1;0.01" dur="8.5s" repeatCount="indefinite" keyTimes="0;.1;.85;1" additive="sum" begin="2.4s"/></path><path d="M367 25 c1.6 -2 4 -1 3.6 1 c-0.6 2 -3 2.4 -3.6 -1Z" style="transform-box:fill-box;transform-origin:center"><animateTransform class="lg-loop" attributeName="transform" type="translate" values="0 0;-40 40;-70 82" dur="6.7s" repeatCount="indefinite" begin="0.8s"/><animateTransform class="lg-loop" attributeName="transform" type="scale" values="0.01;1;1;0.01" dur="6.7s" repeatCount="indefinite" keyTimes="0;.1;.85;1" additive="sum" begin="0.8s"/></path><path d="M307 40 c1.6 -2 4 -1 3.6 1 c-0.6 2 -3 2.4 -3.6 -1Z" style="transform-box:fill-box;transform-origin:center"><animateTransform class="lg-loop" attributeName="transform" type="translate" values="0 0;-40 40;-70 82" dur="8.2s" repeatCount="indefinite" begin="3.4s"/><animateTransform class="lg-loop" attributeName="transform" type="scale" values="0.01;1;1;0.01" dur="8.2s" repeatCount="indefinite" keyTimes="0;.1;.85;1" additive="sum" begin="3.4s"/></path><path d="M72 26 c1.6 -2 4 -1 3.6 1 c-0.6 2 -3 2.4 -3.6 -1Z" style="transform-box:fill-box;transform-origin:center"><animateTransform class="lg-loop" attributeName="transform" type="translate" values="0 0;-40 40;-70 82" dur="8.3s" repeatCount="indefinite" begin="3.0s"/><animateTransform class="lg-loop" attributeName="transform" type="scale" values="0.01;1;1;0.01" dur="8.3s" repeatCount="indefinite" keyTimes="0;.1;.85;1" additive="sum" begin="3.0s"/></path><path d="M194 17 c1.6 -2 4 -1 3.6 1 c-0.6 2 -3 2.4 -3.6 -1Z" style="transform-box:fill-box;transform-origin:center"><animateTransform class="lg-loop" attributeName="transform" type="translate" values="0 0;-40 40;-70 82" dur="8.5s" repeatCount="indefinite" begin="1.3s"/><animateTransform class="lg-loop" attributeName="transform" type="scale" values="0.01;1;1;0.01" dur="8.5s" repeatCount="indefinite" keyTimes="0;.1;.85;1" additive="sum" begin="1.3s"/></path><path d="M344 40 c1.6 -2 4 -1 3.6 1 c-0.6 2 -3 2.4 -3.6 -1Z" style="transform-box:fill-box;transform-origin:center"><animateTransform class="lg-loop" attributeName="transform" type="translate" values="0 0;-40 40;-70 82" dur="8.1s" repeatCount="indefinite" begin="4.6s"/><animateTransform class="lg-loop" attributeName="transform" type="scale" values="0.01;1;1;0.01" dur="8.1s" repeatCount="indefinite" keyTimes="0;.1;.85;1" additive="sum" begin="4.6s"/></path><path d="M242 44 c1.6 -2 4 -1 3.6 1 c-0.6 2 -3 2.4 -3.6 -1Z" style="transform-box:fill-box;transform-origin:center"><animateTransform class="lg-loop" attributeName="transform" type="translate" values="0 0;-40 40;-70 82" dur="8.9s" repeatCount="indefinite" begin="0.7s"/><animateTransform class="lg-loop" attributeName="transform" type="scale" values="0.01;1;1;0.01" dur="8.9s" repeatCount="indefinite" keyTimes="0;.1;.85;1" additive="sum" begin="0.7s"/></path></g>
</svg>
