<svg xmlns="http://www.w3.org/2000/svg" viewBox="0 0 400 140">
  <!-- Mire of Lanterns: a misty bog under a sick moon, a dead forest behind, two dead trees arching over the water
       hung with swaying moss, eyes in their hollows, will-o-wisps drifting, a rotting boardwalk with a flickering
       lantern and a skull leading in. Bogmaw surfaces in the middle: eye turrets under one bony V brow, its lure
       swinging and glowing over the water, back scutes trailing away, jaws agape at the waterline full of crooked
       teeth; ripples spread and bubbles rise. -->
  <rect width="400" height="140" fill="#e8f4ea"/>
  <circle cx="318" cy="40" r="15" fill="#f2ffd0" opacity="0.85"/><circle cx="312" cy="36" r="3" fill="#d8e8a8"/><circle cx="324" cy="46" r="2" fill="#d8e8a8"/>
  <g fill="#9fd4ad" stroke="#9fd4ad" stroke-width="0.6" stroke-linejoin="round"><path d="M7 90 L9 52 L3 44 L10 54 L12 42 L13 56 L19 48 L13 90Z"/><path d="M41 90 L43 42 L37 34 L44 44 L46 32 L47 46 L53 38 L47 90Z"/><path d="M83 90 L85 54 L79 46 L86 56 L88 44 L89 58 L95 50 L89 90Z"/><path d="M115 90 L117 52 L111 44 L118 54 L120 42 L121 56 L127 48 L121 90Z"/><path d="M153 90 L155 44 L149 36 L156 46 L158 34 L159 48 L165 40 L159 90Z"/><path d="M247 90 L249 46 L243 38 L250 48 L252 36 L253 50 L259 42 L253 90Z"/><path d="M285 90 L287 56 L281 48 L288 58 L290 46 L291 60 L297 52 L291 90Z"/><path d="M327 90 L329 50 L323 42 L330 52 L332 40 L333 54 L339 46 L333 90Z"/><path d="M363 90 L365 50 L359 42 L366 52 L368 40 L369 54 L375 46 L369 90Z"/><path d="M389 90 L391 54 L385 46 L392 56 L394 44 L395 58 L401 50 L395 90Z"/></g>
  <g fill="#000" opacity="0.1"><path d="M7 90 L9 52 L3 44 L10 54 L12 42 L13 56 L19 48 L13 90Z"/><path d="M41 90 L43 42 L37 34 L44 44 L46 32 L47 46 L53 38 L47 90Z"/><path d="M83 90 L85 54 L79 46 L86 56 L88 44 L89 58 L95 50 L89 90Z"/><path d="M115 90 L117 52 L111 44 L118 54 L120 42 L121 56 L127 48 L121 90Z"/><path d="M153 90 L155 44 L149 36 L156 46 L158 34 L159 48 L165 40 L159 90Z"/><path d="M247 90 L249 46 L243 38 L250 48 L252 36 L253 50 L259 42 L253 90Z"/><path d="M285 90 L287 56 L281 48 L288 58 L290 46 L291 60 L297 52 L291 90Z"/><path d="M327 90 L329 50 L323 42 L330 52 L332 40 L333 54 L339 46 L333 90Z"/><path d="M363 90 L365 50 L359 42 L366 52 L368 40 L369 54 L375 46 L369 90Z"/><path d="M389 90 L391 54 L385 46 L392 56 L394 44 L395 58 L401 50 L395 90Z"/></g>
  <path d="M-20 78 C10 70 40 82 70 74 C100 66 130 80 160 72 C190 64 220 78 250 70 C280 62 310 78 340 70 C370 62 400 76 430 70 V92 H-20Z" fill="#ffffff" opacity="0.55"><animateTransform class="lg-loop" attributeName="transform" type="translate" values="0 0;-14 0;0 0" dur="18s" repeatCount="indefinite"/></path>
  <path d="M0 86 H400 V140 H0Z" fill="#2e8b57"/>
  <path d="M0 86 H400 V140 H0Z" fill="#0f1f14" opacity="0.45"/>
  <path d="M0 86 H400 V89 H0Z" fill="#5fb57a" opacity="0.6"/>
  <g transform="translate(200 92)"><g><animateTransform class="lg-loop" attributeName="transform" type="translate" values="0 0;0 -1.6;0 0" dur="5s" repeatCount="indefinite"/><g transform="translate(-200 -92)"><path d="M253.9 82 L257.5 76.4 L262 72.8 L266.5 76.4 L270.1 82Z" fill="#5fb57a" stroke="var(--lg-ink, #1d2230)" stroke-width="1" stroke-linejoin="round"/><path d="M275.7 80 L278.5 75.2 L282 72.4 L285.5 75.2 L288.3 80Z" fill="#5fb57a" stroke="var(--lg-ink, #1d2230)" stroke-width="1" stroke-linejoin="round"/><path d="M295.1 80 L297.2 75.8 L300 73.6 L302.8 75.8 L304.9 80Z" fill="#5fb57a" stroke="var(--lg-ink, #1d2230)" stroke-width="1" stroke-linejoin="round"/><path d="M312.2 80 L313.9 76.3 L316 74.6 L318.1 76.3 L319.8 80Z" fill="#5fb57a" stroke="var(--lg-ink, #1d2230)" stroke-width="1" stroke-linejoin="round"/><path d="M136 84 C132 70 140 56 156 52 L180 48 L200 52 L220 48 L244 52 C260 56 268 70 264 84Z" fill="#5fb57a" stroke="var(--lg-ink, #1d2230)" stroke-width="1.8" stroke-linejoin="round"/><path d="M136 84 C132 70 140 56 156 52 L180 48 L200 52 V84Z" fill="#000" opacity="0.18"/><g fill="#2e8b57" opacity="0.75"><circle cx="150" cy="70" r="2.4"/><circle cx="158" cy="78" r="1.8"/><circle cx="148" cy="62" r="1.5"/><circle cx="250" cy="70" r="2.4"/><circle cx="242" cy="78" r="1.8"/><circle cx="252" cy="62" r="1.5"/></g><path d="M142 74 L150 66 M246 66 L256 74" fill="none" stroke="#000" stroke-width="1.1" opacity="0.35"/><path d="M244 62 C246 48 238 40 226 40 C214 40 208 48 210 60Z" fill="#5fb57a" stroke="var(--lg-ink, #1d2230)" stroke-width="1.6" stroke-linejoin="round"/><path d="M240 46 L236 41 L232 46 M228 42 L224 37 L220 42" fill="#2e8b57" stroke="var(--lg-ink, #1d2230)" stroke-width="0.8" stroke-linejoin="round"/><path d="M156 62 C154 48 162 40 174 40 C186 40 192 48 190 60Z" fill="#5fb57a" stroke="var(--lg-ink, #1d2230)" stroke-width="1.6" stroke-linejoin="round"/><path d="M160 46 L164 41 L168 46 M172 42 L176 37 L180 42" fill="#2e8b57" stroke="var(--lg-ink, #1d2230)" stroke-width="0.8" stroke-linejoin="round"/><g transform="translate(200 56)"><g><animateTransform class="lg-loop" attributeName="transform" type="scale" values="1 1;1 1;1 0.08;1 1;1 1" keyTimes="0;.9;.94;.98;1" dur="6.5s" begin="2s" repeatCount="indefinite"/><g transform="translate(-200 -56)"><path d="M159 52 L188 55 L186 61 L162 60Z M241 52 L212 55 L214 61 L238 60Z" fill="#ffcf3a" opacity="0.45"/><path d="M161 53 L186 55.6 L184.4 59.4 L163.6 58.4Z M239 53 L214 55.6 L215.6 59.4 L236.4 58.4Z" fill="#ffcf3a" stroke="var(--lg-ink, #1d2230)" stroke-width="0.7" stroke-linejoin="round"/><path d="M173.2 53.8 L175 54 L174.6 59.2 L172.8 59Z M226.8 53.8 L225 54 L225.4 59.2 L227.2 59Z" fill="#1a1408"/><circle cx="169" cy="55" r="0.8" fill="#fff"/><circle cx="231" cy="55" r="0.8" fill="#fff"/></g></g></g><path d="M154 42 L200 54 L246 42 L248 48 L200 60 L152 48Z" fill="#2e8b57" stroke="var(--lg-ink, #1d2230)" stroke-width="1.3" stroke-linejoin="round"/><path d="M156 43 L200 55 L244 43" fill="none" stroke="#fff" stroke-width="0.7" opacity="0.3"/><path d="M200 55 L246 43 L248 48 L200 60Z" fill="#000" opacity="0.2"/><path d="M184 58 L200 54 L216 58 L222 80 L214 86 H186 L178 80Z" fill="#5fb57a" stroke="var(--lg-ink, #1d2230)" stroke-width="1.3" stroke-linejoin="round"/><path d="M184 58 L200 54 L200 86 H186 L178 80Z" fill="#000" opacity="0.15"/><path d="M190 64 L194 62 L198 66 M210 64 L206 62 L202 66 M188 72 L194 70 L200 74 L206 70 L212 72" fill="none" stroke="#2e8b57" stroke-width="1"/><g fill="#2e8b57" stroke="var(--lg-ink, #1d2230)" stroke-width="0.8"><ellipse cx="193" cy="81" rx="2.8" ry="1.7"/><ellipse cx="207" cy="81" rx="2.8" ry="1.7"/></g><path d="M138 82 L178 80 L186 86 H214 L222 80 L262 82 L256 88 Q200 94 144 88Z" fill="#5fb57a" stroke="var(--lg-ink, #1d2230)" stroke-width="1.4" stroke-linejoin="round"/><path d="M144 88 Q200 94 256 88 L250 99 H150Z" fill="#3a0a12" stroke="var(--lg-ink, #1d2230)" stroke-width="1"/><path d="M172 99 Q200 90 228 99Z" fill="#c43a4a"/><path d="M200 93 V99" stroke="#7a0e1e" stroke-width="0.8"/><path d="M146 88.5 L146.8 95.8 L150 88.5Z M152 89.5 L154.6 94.4 L156 89.5Z M158 90.4 L161.4 95.3 L162 90.4Z M164 91.2 L164.8 98.5 L168 91.2Z M170 91.9 L172.6 96.8 L174 91.9Z M176 92.4 L179.4 97.3 L180 92.4Z M182 92.8 L182.8 100.1 L186 92.8Z M188 93.1 L190.6 98 L192 93.1Z M194 93.3 L197.4 98.2 L198 93.3Z M200 93.3 L200.8 100.6 L204 93.3Z M206 93.2 L208.6 98.1 L210 93.2Z M212 93 L215.4 97.8 L216 93Z M218 92.6 L218.8 99.9 L222 92.6Z M224 92.1 L226.6 97 L228 92.1Z M230 91.5 L233.4 96.4 L234 91.5Z M236 90.7 L236.8 98 L240 90.7Z M242 89.8 L244.6 94.7 L246 89.8Z M248 88.8 L251.4 93.7 L252 88.8Z " fill="#fbf4dc" stroke="var(--lg-ink, #1d2230)" stroke-width="0.6" stroke-linejoin="round"/><path d="M151.8 99.4 L153 95 L156.2 99.4Z M159.8 99.4 L162 93 L164.2 99.4Z M167.8 99.4 L171 95 L172.2 99.4Z M175.8 99.4 L177 93 L180.2 99.4Z M183.8 99.4 L186 95 L188.2 99.4Z M191.8 99.4 L195 93 L196.2 99.4Z M199.8 99.4 L201 95 L204.2 99.4Z M207.8 99.4 L210 93 L212.2 99.4Z M215.8 99.4 L219 95 L220.2 99.4Z M223.8 99.4 L225 93 L228.2 99.4Z M231.8 99.4 L234 95 L236.2 99.4Z M239.8 99.4 L243 93 L244.2 99.4Z " fill="#fbf4dc" stroke="var(--lg-ink, #1d2230)" stroke-width="0.6" stroke-linejoin="round"/></g></g></g>
  <path d="M130 99 H270 V104 H130Z" fill="#2e8b57"/><path d="M130 99 H270 V104 H130Z" fill="#0f1f14" opacity="0.45"/>
  <path d="M134 99.6 Q154 97.6 174 99.6 Q194 101.6 214 99.6 Q234 97.6 266 99.6" fill="none" stroke="#ffffff" stroke-width="1" opacity="0.6"/>
  <g transform="translate(200 101)"><g><animateTransform class="lg-loop" attributeName="transform" type="scale" values="0.6 0.6;1.3 1.3" dur="3.2s" begin="0s" repeatCount="indefinite"/><ellipse rx="74" ry="5" fill="none" stroke="#ffffff" stroke-width="0.8" opacity="0.4"/></g></g>
  <g transform="translate(200 101)"><g><animateTransform class="lg-loop" attributeName="transform" type="scale" values="0.6 0.6;1.3 1.3" dur="3.2s" begin="1.6s" repeatCount="indefinite"/><ellipse rx="74" ry="5" fill="none" stroke="#ffffff" stroke-width="0.8" opacity="0.4"/></g></g>
  <g transform="translate(222 48)"><g><animateTransform class="lg-loop" attributeName="transform" type="rotate" values="0;-6;4;0" keyTimes="0;.4;.75;1" dur="4.6s" repeatCount="indefinite"/><g transform="translate(-222 -48)"><path d="M222 48 C226 34 246 30 252 40 C255 45 254 52 250 56" fill="none" stroke="var(--lg-ink, #1d2230)" stroke-width="3" stroke-linecap="round"/><path d="M222 48 C226 34 246 30 252 40 C255 45 254 52 250 56" fill="none" stroke="#5fb57a" stroke-width="1.6" stroke-linecap="round"/><path d="M234 35 L236 31 M242 33 L245 30" stroke="var(--lg-ink, #1d2230)" stroke-width="0.8"/><circle cx="250" cy="62" r="8" fill="var(--lg-tint,#c8ff5a)" opacity="0.4"/><path d="M250 56 C256 57 257 64 254 68 C252 70 248 70 246 68 C243 64 244 57 250 56Z" fill="var(--lg-tint-hi,#f2ffd0)" stroke="var(--lg-ink, #1d2230)" stroke-width="0.9"/><circle cx="249" cy="61" r="1.4" fill="#fff"/></g></g></g>
  <path d="M396 140 C390 110 380 80 370 60 C352 30 310 14 260 10 C240 9 222 12 204 18 L206 22 C224 18 244 18 260 20 C304 24 338 40 354 66 C362 82 366 110 364 140Z" fill="#4a3a2e" stroke="var(--lg-ink, #1d2230)" stroke-width="1.6" stroke-linejoin="round"/><path d="M392 140 C386 110 378 84 368 64 C364 60 360 62 362 68 C370 86 376 112 378 140Z" fill="#000" opacity="0.25"/><path d="M374 128 C374 108 370 90 364 76 M346 44 C330 32 310 24 290 20 M282 16 C270 14 250 13 234 15" fill="none" stroke="#2e231b" stroke-width="1"/><path d="M370 62 L386 46 L382 44 L366 58Z M316 22 L320 4 L316 4 L310 20Z M270 12 L264 2 L260 4 L264 12Z" fill="#4a3a2e" stroke="var(--lg-ink, #1d2230)" stroke-width="1" stroke-linejoin="round"/><path d="M384 47 L392 44 M318 8 L324 4" fill="none" stroke="var(--lg-ink, #1d2230)" stroke-width="1"/><ellipse cx="370" cy="96" rx="3.4" ry="6" fill="#0f0a08" stroke="var(--lg-ink, #1d2230)" stroke-width="0.8"/>
  <path d="M4 140 C10 110 20 80 30 60 C48 30 90 14 140 10 C160 9 178 12 196 18 L194 22 C176 18 156 18 140 20 C96 24 62 40 46 66 C38 82 34 110 36 140Z" fill="#4a3a2e" stroke="var(--lg-ink, #1d2230)" stroke-width="1.6" stroke-linejoin="round"/><path d="M8 140 C14 110 22 84 32 64 C36 60 40 62 38 68 C30 86 24 112 22 140Z" fill="#000" opacity="0.25"/><path d="M26 128 C26 108 30 90 36 76 M54 44 C70 32 90 24 110 20 M118 16 C130 14 150 13 166 15" fill="none" stroke="#2e231b" stroke-width="1"/><path d="M30 62 L14 46 L18 44 L34 58Z M84 22 L80 4 L84 4 L90 20Z M130 12 L136 2 L140 4 L136 12Z" fill="#4a3a2e" stroke="var(--lg-ink, #1d2230)" stroke-width="1" stroke-linejoin="round"/><path d="M16 47 L8 44 M82 8 L76 4" fill="none" stroke="var(--lg-ink, #1d2230)" stroke-width="1"/><ellipse cx="30" cy="96" rx="3.4" ry="6" fill="#0f0a08" stroke="var(--lg-ink, #1d2230)" stroke-width="0.8"/>
  <path d="M55.4 40 L53.8 40 L57.1 44.3 L55.1 48.7 L57.3 53 L56.4 57.3 L57.5 61.7 L57.6 66 L56 70 L58 67 L60 71 L58.4 66 L59 61.7 L58.6 57.3 L60.3 53 L58.8 48.7 L61.6 44.3 L59 40Z" fill="#7a9a52" stroke="var(--lg-ink, #1d2230)" stroke-width="0.6" stroke-linejoin="round" style="transform-box:fill-box;transform-origin:center top"><animateTransform class="lg-loop" attributeName="transform" type="rotate" values="-4;4;-4" dur="4.0s" begin="0.0s" repeatCount="indefinite"/></path>
  <path d="M339.4 40 L337.8 40 L341.1 43.9 L339.1 47.8 L341.3 51.7 L340.4 55.6 L341.5 59.5 L341.6 63.4 L340 67.4 L342 64.4 L344 68.4 L342.4 63.4 L343 59.5 L342.6 55.6 L344.3 51.7 L342.8 47.8 L345.6 43.9 L343 40Z" fill="#7a9a52" stroke="var(--lg-ink, #1d2230)" stroke-width="0.6" stroke-linejoin="round" style="transform-box:fill-box;transform-origin:center top"><animateTransform class="lg-loop" attributeName="transform" type="rotate" values="-4;4;-4" dur="4.4s" begin="0.0s" repeatCount="indefinite"/></path>
  <path d="M73.4 28 L71.8 28 L75.1 33 L73.1 38 L75.3 43 L74.4 48 L75.5 53 L75.6 58 L74 62 L76 59 L78 63 L76.4 58 L77 53 L76.6 48 L78.3 43 L76.8 38 L79.6 33 L77 28Z" fill="#7a9a52" stroke="var(--lg-ink, #1d2230)" stroke-width="0.6" stroke-linejoin="round" style="transform-box:fill-box;transform-origin:center top"><animateTransform class="lg-loop" attributeName="transform" type="rotate" values="-4;4;-4" dur="4.4s" begin="0.3s" repeatCount="indefinite"/></path>
  <path d="M321.4 28 L319.8 28 L323.1 32.5 L321.1 37 L323.3 41.5 L322.4 46 L323.5 50.5 L323.6 55 L322 59 L324 56 L326 60 L324.4 55 L325 50.5 L324.6 46 L326.3 41.5 L324.8 37 L327.6 32.5 L325 28Z" fill="#7a9a52" stroke="var(--lg-ink, #1d2230)" stroke-width="0.6" stroke-linejoin="round" style="transform-box:fill-box;transform-origin:center top"><animateTransform class="lg-loop" attributeName="transform" type="rotate" values="-4;4;-4" dur="4.7s" begin="0.5s" repeatCount="indefinite"/></path>
  <path d="M97.4 20 L95.8 20 L99.1 23.7 L97.1 27.3 L99.3 31 L98.4 34.7 L99.5 38.3 L99.6 42 L98 46 L100 43 L102 47 L100.4 42 L101 38.3 L100.6 34.7 L102.3 31 L100.8 27.3 L103.6 23.7 L101 20Z" fill="#7a9a52" stroke="var(--lg-ink, #1d2230)" stroke-width="0.6" stroke-linejoin="round" style="transform-box:fill-box;transform-origin:center top"><animateTransform class="lg-loop" attributeName="transform" type="rotate" values="-4;4;-4" dur="4.8s" begin="0.6s" repeatCount="indefinite"/></path>
  <path d="M297.4 20 L295.8 20 L299.1 23.3 L297.1 26.6 L299.3 29.9 L298.4 33.2 L299.5 36.5 L299.6 39.8 L298 43.8 L300 40.8 L302 44.8 L300.4 39.8 L301 36.5 L300.6 33.2 L302.3 29.9 L300.8 26.6 L303.6 23.3 L301 20Z" fill="#7a9a52" stroke="var(--lg-ink, #1d2230)" stroke-width="0.6" stroke-linejoin="round" style="transform-box:fill-box;transform-origin:center top"><animateTransform class="lg-loop" attributeName="transform" type="rotate" values="-4;4;-4" dur="5.0s" begin="1.0s" repeatCount="indefinite"/></path>
  <path d="M119.4 17 L117.8 17 L121.1 22.7 L119.1 28.3 L121.3 34 L120.4 39.7 L121.5 45.3 L121.6 51 L120 55 L122 52 L124 56 L122.4 51 L123 45.3 L122.6 39.7 L124.3 34 L122.8 28.3 L125.6 22.7 L123 17Z" fill="#7a9a52" stroke="var(--lg-ink, #1d2230)" stroke-width="0.6" stroke-linejoin="round" style="transform-box:fill-box;transform-origin:center top"><animateTransform class="lg-loop" attributeName="transform" type="rotate" values="-4;4;-4" dur="5.2s" begin="0.8999999999999999s" repeatCount="indefinite"/></path>
  <path d="M275.4 17 L273.8 17 L277.1 22.1 L275.1 27.2 L277.3 32.3 L276.4 37.4 L277.5 42.5 L277.6 47.6 L276 51.6 L278 48.6 L280 52.6 L278.4 47.6 L279 42.5 L278.6 37.4 L280.3 32.3 L278.8 27.2 L281.6 22.1 L279 17Z" fill="#7a9a52" stroke="var(--lg-ink, #1d2230)" stroke-width="0.6" stroke-linejoin="round" style="transform-box:fill-box;transform-origin:center top"><animateTransform class="lg-loop" attributeName="transform" type="rotate" values="-4;4;-4" dur="5.300000000000001s" begin="1.5s" repeatCount="indefinite"/></path>
  <path d="M143.4 14 L141.8 14 L145.1 17.3 L143.1 20.7 L145.3 24 L144.4 27.3 L145.5 30.7 L145.6 34 L144 38 L146 35 L148 39 L146.4 34 L147 30.7 L146.6 27.3 L148.3 24 L146.8 20.7 L149.6 17.3 L147 14Z" fill="#7a9a52" stroke="var(--lg-ink, #1d2230)" stroke-width="0.6" stroke-linejoin="round" style="transform-box:fill-box;transform-origin:center top"><animateTransform class="lg-loop" attributeName="transform" type="rotate" values="-4;4;-4" dur="5.6s" begin="1.2s" repeatCount="indefinite"/></path>
  <path d="M251.4 14 L249.8 14 L253.1 17 L251.1 20 L253.3 23 L252.4 26 L253.5 29 L253.6 32 L252 36 L254 33 L256 37 L254.4 32 L255 29 L254.6 26 L256.3 23 L254.8 20 L257.6 17 L255 14Z" fill="#7a9a52" stroke="var(--lg-ink, #1d2230)" stroke-width="0.6" stroke-linejoin="round" style="transform-box:fill-box;transform-origin:center top"><animateTransform class="lg-loop" attributeName="transform" type="rotate" values="-4;4;-4" dur="5.6000000000000005s" begin="2.0s" repeatCount="indefinite"/></path>
  <path d="M167.4 16 L165.8 16 L169.1 20 L167.1 24 L169.3 28 L168.4 32 L169.5 36 L169.6 40 L168 44 L170 41 L172 45 L170.4 40 L171 36 L170.6 32 L172.3 28 L170.8 24 L173.6 20 L171 16Z" fill="#7a9a52" stroke="var(--lg-ink, #1d2230)" stroke-width="0.6" stroke-linejoin="round" style="transform-box:fill-box;transform-origin:center top"><animateTransform class="lg-loop" attributeName="transform" type="rotate" values="-4;4;-4" dur="6.0s" begin="1.5s" repeatCount="indefinite"/></path>
  <path d="M227.4 16 L225.8 16 L229.1 19.6 L227.1 23.2 L229.3 26.8 L228.4 30.4 L229.5 34 L229.6 37.6 L228 41.6 L230 38.6 L232 42.6 L230.4 37.6 L231 34 L230.6 30.4 L232.3 26.8 L230.8 23.2 L233.6 19.6 L231 16Z" fill="#7a9a52" stroke="var(--lg-ink, #1d2230)" stroke-width="0.6" stroke-linejoin="round" style="transform-box:fill-box;transform-origin:center top"><animateTransform class="lg-loop" attributeName="transform" type="rotate" values="-4;4;-4" dur="5.9s" begin="2.5s" repeatCount="indefinite"/></path>
  <g style="transform-box:fill-box;transform-origin:center"><animateTransform class="lg-loop" attributeName="transform" type="scale" values="1 1;1 1;1 0.08;1 1;1 1" keyTimes="0;.9;.94;.98;1" dur="5s" begin="0s" repeatCount="indefinite"/><path d="M368.4 95 l1.4 0.6 l-1.4 0.6Z M371.6 95 l-1.4 0.6 l1.4 0.6Z" fill="#ffcf3a"/></g>
  <g style="transform-box:fill-box;transform-origin:center"><animateTransform class="lg-loop" attributeName="transform" type="scale" values="1 1;1 1;1 0.08;1 1;1 1" keyTimes="0;.9;.94;.98;1" dur="5s" begin="1.4s" repeatCount="indefinite"/><path d="M28.4 95 l1.4 0.6 l-1.4 0.6Z M31.6 95 l-1.4 0.6 l1.4 0.6Z" fill="#ffcf3a"/></g>
  <g><animateTransform class="lg-loop" attributeName="transform" type="translate" values="0 0;8 -6;0 0" dur="6s" begin="0s" repeatCount="indefinite"/><circle cx="110" cy="54" r="5" fill="var(--lg-tint,#c8ff5a)" opacity="0.35"/><circle cx="110" cy="54" r="2" fill="var(--lg-tint-hi,#f2ffd0)"/><path d="M110 56 C109 59 111 61 110 63" fill="none" stroke="var(--lg-tint-hi,#f2ffd0)" stroke-width="0.8" opacity="0.7"/></g>
  <g><animateTransform class="lg-loop" attributeName="transform" type="translate" values="0 0;-8 -5;0 0" dur="7s" begin="1s" repeatCount="indefinite"/><circle cx="292" cy="62" r="5" fill="var(--lg-tint,#c8ff5a)" opacity="0.35"/><circle cx="292" cy="62" r="2" fill="var(--lg-tint-hi,#f2ffd0)"/><path d="M292 64 C291 67 293 69 292 71" fill="none" stroke="var(--lg-tint-hi,#f2ffd0)" stroke-width="0.8" opacity="0.7"/></g>
  <g><animateTransform class="lg-loop" attributeName="transform" type="translate" values="0 0;5 5;0 0" dur="8s" begin="2s" repeatCount="indefinite"/><circle cx="150" cy="40" r="5" fill="var(--lg-tint,#c8ff5a)" opacity="0.35"/><circle cx="150" cy="40" r="2" fill="var(--lg-tint-hi,#f2ffd0)"/><path d="M150 42 C149 45 151 47 150 49" fill="none" stroke="var(--lg-tint-hi,#f2ffd0)" stroke-width="0.8" opacity="0.7"/></g>
  <g><animateTransform class="lg-loop" attributeName="transform" type="translate" values="0 0;-6 -4;0 0" dur="6.5s" begin="0.5s" repeatCount="indefinite"/><circle cx="346" cy="84" r="5" fill="var(--lg-tint,#c8ff5a)" opacity="0.35"/><circle cx="346" cy="84" r="2" fill="var(--lg-tint-hi,#f2ffd0)"/><path d="M346 86 C345 89 347 91 346 93" fill="none" stroke="var(--lg-tint-hi,#f2ffd0)" stroke-width="0.8" opacity="0.7"/></g>
  <g stroke="var(--lg-ink, #1d2230)" stroke-width="1"><path d="M44 126 V110 M58 124 V106 M88 118 V100 M118 112 V94 M134 108 V92" stroke="#3e2f20" stroke-width="2.4"/></g>
  <rect x="40" y="112" width="14" height="5" rx="1" fill="#6b5236" stroke="var(--lg-ink, #1d2230)" stroke-width="0.9" transform="rotate(-8 47 114.5)"/><rect x="56" y="108.8" width="14" height="5" rx="1" fill="#6b5236" stroke="var(--lg-ink, #1d2230)" stroke-width="0.9" transform="rotate(5 63 111.3)"/><rect x="72" y="105.6" width="14" height="5" rx="1" fill="#6b5236" stroke="var(--lg-ink, #1d2230)" stroke-width="0.9" transform="rotate(-3 79 108.1)"/><rect x="88" y="102.4" width="14" height="5" rx="1" fill="#6b5236" stroke="var(--lg-ink, #1d2230)" stroke-width="0.9" transform="rotate(9 95 104.9)"/><rect x="104" y="99.2" width="14" height="5" rx="1" fill="#6b5236" stroke="var(--lg-ink, #1d2230)" stroke-width="0.9" transform="rotate(-6 111 101.7)"/><rect x="120" y="96" width="14" height="5" rx="1" fill="#6b5236" stroke="var(--lg-ink, #1d2230)" stroke-width="0.9" transform="rotate(4 127 98.5)"/>
  <path d="M50 113 L58 112 M90 104 L98 103" fill="none" stroke="#3e2f20" stroke-width="0.8"/>
  <path d="M64 108 V62 H76" fill="none" stroke="var(--lg-ink, #1d2230)" stroke-width="3"/><path d="M64 108 V62 H76" fill="none" stroke="#5a4430" stroke-width="1.6"/>
  <path d="M76 62 V66" stroke="var(--lg-ink, #1d2230)" stroke-width="0.8"/><path d="M71 66 H81 L80 78 H72Z" fill="#2e231b" stroke="var(--lg-ink, #1d2230)" stroke-width="1"/><circle cx="76" cy="72" r="7" fill="#c8ff5a" opacity="0.3"/>
  <path d="M76 68 C73 71 74 76 76 76 C78 76 79 71 76 68Z" fill="#ffd966" stroke="var(--lg-ink, #1d2230)" stroke-width="0.5" style="transform-box:fill-box;transform-origin:center bottom"><animateTransform class="lg-loop" attributeName="transform" type="scale" values="1 1;0.8 1.2;1.1 0.9;1 1" keyTimes="0;.3;.7;1" dur="0.8s" repeatCount="indefinite"/></path>
  <path d="M72 66 V78 M80 66 V78" stroke="var(--lg-ink, #1d2230)" stroke-width="0.8"/>
  <path d="M108 102 C108 96 118 96 118 102 L116 106 H110Z" fill="#fbf4dc" stroke="var(--lg-ink, #1d2230)" stroke-width="0.9"/><circle cx="111" cy="101" r="1.3" fill="var(--lg-ink, #1d2230)"/><circle cx="115" cy="101" r="1.3" fill="var(--lg-ink, #1d2230)"/>
  <g style="transform-box:fill-box;transform-origin:center bottom"><animateTransform class="lg-loop" attributeName="transform" type="rotate" values="0;3;-2;0" keyTimes="0;.3;.7;1" dur="4.0s" begin="0s" repeatCount="indefinite"/><path d="M300 140 Q301.5 120.0 303 100" fill="none" stroke="#3e6b2e" stroke-width="1.6"/><rect x="301.4" y="98" width="3.2" height="9" rx="1.6" fill="#6b4a33" stroke="var(--lg-ink, #1d2230)" stroke-width="0.6"/></g>
  <g style="transform-box:fill-box;transform-origin:center bottom"><animateTransform class="lg-loop" attributeName="transform" type="rotate" values="0;3;-2;0" keyTimes="0;.3;.7;1" dur="5.5s" begin="0.6s" repeatCount="indefinite"/><path d="M308 140 Q307.0 123.0 306 106" fill="none" stroke="#3e6b2e" stroke-width="1.6"/><rect x="304.4" y="104" width="3.2" height="9" rx="1.6" fill="#6b4a33" stroke="var(--lg-ink, #1d2230)" stroke-width="0.6"/></g>
  <g style="transform-box:fill-box;transform-origin:center bottom"><animateTransform class="lg-loop" attributeName="transform" type="rotate" values="0;3;-2;0" keyTimes="0;.3;.7;1" dur="4.5s" begin="1.2s" repeatCount="indefinite"/><path d="M316 140 Q318.0 118.0 320 96" fill="none" stroke="#3e6b2e" stroke-width="1.6"/><rect x="318.4" y="94" width="3.2" height="9" rx="1.6" fill="#6b4a33" stroke="var(--lg-ink, #1d2230)" stroke-width="0.6"/></g>
  <g style="transform-box:fill-box;transform-origin:center bottom"><animateTransform class="lg-loop" attributeName="transform" type="rotate" values="0;3;-2;0" keyTimes="0;.3;.7;1" dur="5.0s" begin="0.3s" repeatCount="indefinite"/><path d="M372 140 Q370.5 117.0 369 94" fill="none" stroke="#3e6b2e" stroke-width="1.6"/><rect x="367.4" y="92" width="3.2" height="9" rx="1.6" fill="#6b4a33" stroke="var(--lg-ink, #1d2230)" stroke-width="0.6"/></g>
  <g style="transform-box:fill-box;transform-origin:center bottom"><animateTransform class="lg-loop" attributeName="transform" type="rotate" values="0;3;-2;0" keyTimes="0;.3;.7;1" dur="5.0s" begin="1s" repeatCount="indefinite"/><path d="M382 140 Q383.0 121.0 384 102" fill="none" stroke="#3e6b2e" stroke-width="1.6"/><rect x="382.4" y="100" width="3.2" height="9" rx="1.6" fill="#6b4a33" stroke="var(--lg-ink, #1d2230)" stroke-width="0.6"/></g>
  <g style="transform-box:fill-box;transform-origin:center bottom"><animateTransform class="lg-loop" attributeName="transform" type="rotate" values="0;3;-2;0" keyTimes="0;.3;.7;1" dur="4.0s" begin="0.8s" repeatCount="indefinite"/><path d="M390 140 Q388.0 115.0 386 90" fill="none" stroke="#3e6b2e" stroke-width="1.6"/><rect x="384.4" y="88" width="3.2" height="9" rx="1.6" fill="#6b4a33" stroke="var(--lg-ink, #1d2230)" stroke-width="0.6"/></g>
  <g style="transform-box:fill-box;transform-origin:center bottom"><animateTransform class="lg-loop" attributeName="transform" type="rotate" values="0;3;-2;0" keyTimes="0;.3;.7;1" dur="5.0s" begin="0.4s" repeatCount="indefinite"/><path d="M12 140 Q13.5 122.0 15 104" fill="none" stroke="#3e6b2e" stroke-width="1.6"/><rect x="13.4" y="102" width="3.2" height="9" rx="1.6" fill="#6b4a33" stroke="var(--lg-ink, #1d2230)" stroke-width="0.6"/></g>
  <g style="transform-box:fill-box;transform-origin:center bottom"><animateTransform class="lg-loop" attributeName="transform" type="rotate" values="0;3;-2;0" keyTimes="0;.3;.7;1" dur="4.0s" begin="1.1s" repeatCount="indefinite"/><path d="M20 140 Q19.0 125.0 18 110" fill="none" stroke="#3e6b2e" stroke-width="1.6"/><rect x="16.4" y="108" width="3.2" height="9" rx="1.6" fill="#6b4a33" stroke="var(--lg-ink, #1d2230)" stroke-width="0.6"/></g>
  <g fill="#3e8a3e" stroke="var(--lg-ink, #1d2230)" stroke-width="0.8"><path d="M250 114 a9 3.6 0 1 0 0.1 0Z M262 113 l-8 1"/><path d="M152 122 a10 4 0 1 0 0.1 0Z"/><path d="M340 108 a7 2.8 0 1 0 0.1 0Z"/></g>
  <circle cx="250" cy="113" r="1.6" fill="#ff8ab0"/>
  <circle cx="168" cy="104" r="1.6" fill="none" stroke="#ffffff" stroke-width="0.7" style="transform-box:fill-box;transform-origin:center"><animateTransform class="lg-loop" attributeName="transform" type="translate" values="0 0;0 0;0 -6" keyTimes="0;.4;1" dur="3s" begin="0s" repeatCount="indefinite"/><animateTransform class="lg-loop" attributeName="transform" type="scale" values="0;1;1;0" keyTimes="0;.4;.9;1" dur="3s" begin="0s" repeatCount="indefinite" additive="sum"/></circle>
  <circle cx="236" cy="104" r="1.6" fill="none" stroke="#ffffff" stroke-width="0.7" style="transform-box:fill-box;transform-origin:center"><animateTransform class="lg-loop" attributeName="transform" type="translate" values="0 0;0 0;0 -6" keyTimes="0;.4;1" dur="3s" begin="1.2s" repeatCount="indefinite"/><animateTransform class="lg-loop" attributeName="transform" type="scale" values="0;1;1;0" keyTimes="0;.4;.9;1" dur="3s" begin="1.2s" repeatCount="indefinite" additive="sum"/></circle>
  <circle cx="190" cy="104" r="1.6" fill="none" stroke="#ffffff" stroke-width="0.7" style="transform-box:fill-box;transform-origin:center"><animateTransform class="lg-loop" attributeName="transform" type="translate" values="0 0;0 0;0 -6" keyTimes="0;.4;1" dur="3s" begin="2.1s" repeatCount="indefinite"/><animateTransform class="lg-loop" attributeName="transform" type="scale" values="0;1;1;0" keyTimes="0;.4;.9;1" dur="3s" begin="2.1s" repeatCount="indefinite" additive="sum"/></circle>
  <path d="M-30 112 C0 106 30 116 60 110 C90 104 120 114 150 108 C180 102 210 114 240 108 C270 102 300 114 330 108 C360 102 390 112 430 108 V122 H-30Z" fill="#ffffff" opacity="0.18"><animateTransform class="lg-loop" attributeName="transform" type="translate" values="0 0;20 0;0 0" dur="14s" repeatCount="indefinite"/></path>
</svg>
