<svg xmlns="http://www.w3.org/2000/svg" viewBox="0 0 256 256" width="256" height="256"><g transform="translate(138 150) scale(0.677) translate(-121.4 -124.2)"><path d="M36.1 57.8C35.9 57.7 35.4 57.4 35 57.2C34.6 57 34.1 56.7 33.5 56.4C33 56.1 32.4 55.8 31.8 55.4C31.2 55.1 30.5 54.7 29.9 54.3C29.3 53.9 28.6 53.5 28 53.1C27.3 52.7 26.7 52.3 26.1 51.8C25.4 51.4 24.8 50.9 24.1 50.4C23.4 50 22.6 49.5 21.8 49C21.1 48.5 20.3 48 19.6 47.4C18.8 46.9 18.1 46.3 17.4 45.7C16.7 45.1 16.1 44.5 15.5 43.9C14.9 43.2 14.5 42.5 14.1 41.8C13.6 41.1 13.3 40.3 13 39.5C12.6 38.6 12.3 37.8 12.1 36.8C11.8 35.9 11.6 35 11.4 34.1C11.3 33.1 11.2 32.2 11.2 31.2C11.2 30.3 11.2 29.3 11.3 28.4C11.5 27.5 11.7 26.7 12.1 25.8C12.4 25 12.8 24.1 13.2 23.3C13.7 22.4 14.1 21.5 14.7 20.7C15.3 19.9 15.9 19 16.7 18.2C17.4 17.4 18.2 16.6 19.2 15.8C20.1 15.1 21.1 14.3 22.3 13.7C23.4 13 24.7 12.4 26.1 11.8C27.4 11.2 28.9 10.7 30.4 10.2C31.9 9.7 33.5 9.2 35.2 8.8C36.9 8.3 38.6 7.9 40.6 7.6C42.5 7.2 44.5 6.9 46.7 6.6C48.9 6.4 51.3 6.2 53.8 6C56.4 5.9 59 5.8 62.1 5.8C65.1 5.8 68.3 5.9 71.9 6.1C75.4 6.3 79.3 6.6 83.3 6.9C87.3 7.2 91.5 7.7 95.7 8.1C99.9 8.5 104.2 8.9 108.4 9.4C112.5 9.8 116.7 10.3 120.7 10.7C124.6 11.1 128.4 11.4 132.1 11.8C135.7 12.2 139.2 12.5 142.7 12.9C146.2 13.3 149.8 13.8 153.2 14.2C156.7 14.6 160.1 15 163.4 15.4C166.7 15.8 170 16.2 173.1 16.6C176.2 16.9 179.2 17.2 182 17.4C184.9 17.6 187.5 17.7 190.1 17.8C192.6 17.9 194.9 17.9 197.1 17.8C199.4 17.8 201.5 17.7 203.5 17.6C205.4 17.5 207.3 17.3 209.1 17.1C210.8 16.8 212.4 16.6 214 16.3C215.5 15.9 216.9 15.6 218.3 15.2C219.6 14.8 220.9 14.3 222.1 13.8C223.2 13.3 224.3 12.7 225.2 12C226.1 11.4 226.9 10.6 227.6 9.8C228.3 9 228.9 8.2 229.4 7.3C229.9 6.5 230.4 5.6 230.7 4.7C231.1 3.8 231.3 3 231.6 2.1C231.8 1.3 232 0.6 232.1 -0.2C232.1 -1 232.1 -1.7 231.9 -2.4C231.7 -3.2 231.4 -4 231 -4.8C230.6 -5.6 230.1 -6.3 229.7 -7.1C229.2 -7.8 228.7 -8.5 228.2 -9.2C227.7 -9.8 227.3 -10.4 226.9 -10.9C226.5 -11.4 226.2 -12 226.1 -12.2" fill="none" stroke="#C21C37" stroke-width="7" stroke-linecap="round" stroke-linejoin="round"/><path d="M39.1 59.3C38.9 59.2 38.5 59 38.2 58.8C37.9 58.5 37.4 58.3 37 58C36.6 57.7 36.1 57.4 35.6 57.1C35.1 56.8 34.6 56.5 34.1 56.1C33.6 55.8 33 55.4 32.5 55C32 54.6 31.6 54.2 31.1 53.8C30.5 53.4 30.1 53 29.5 52.6C29 52.1 28.4 51.7 27.8 51.3C27.2 50.8 26.6 50.3 26.1 49.8C25.5 49.4 24.9 48.8 24.4 48.3C23.9 47.8 23.4 47.2 23 46.6C22.7 46.1 22.3 45.5 22.1 44.8C21.8 44.2 21.6 43.5 21.4 42.7C21.2 42 21 41.2 20.9 40.4C20.8 39.6 20.7 38.8 20.7 37.9C20.7 37.1 20.7 36.3 20.8 35.4C20.8 34.6 21 33.8 21.2 33C21.4 32.3 21.7 31.5 22.1 30.8C22.4 30.1 22.7 29.4 23.1 28.7C23.5 28 23.9 27.3 24.3 26.7C24.8 26 25.2 25.3 25.9 24.7C26.5 24.1 27.2 23.4 28 22.8C28.9 22.3 29.8 21.7 31 21.2C32.2 20.7 33.5 20.2 35.1 19.8C36.6 19.4 38.3 19 40.2 18.6C42.1 18.2 44.1 17.8 46.2 17.5C48.4 17.2 50.7 16.9 53.1 16.6C55.5 16.4 58.1 16.2 60.8 16C63.4 15.8 66.2 15.7 69.1 15.7C72 15.7 74.9 15.7 78.1 15.8C81.2 15.9 84.5 16.2 88.1 16.5C91.6 16.8 95.5 17.3 99.3 17.7C103.2 18.2 107.2 18.8 111.2 19.3C115.2 19.9 119.4 20.5 123.4 21C127.3 21.5 131.3 22.1 135.1 22.6C138.9 23 142.5 23.4 146.1 23.8C149.6 24.2 153 24.5 156.4 24.8C159.8 25.1 163.2 25.4 166.5 25.7C169.8 26 173.1 26.3 176.3 26.6C179.5 26.8 182.6 27 185.6 27.2C188.6 27.4 191.5 27.6 194.2 27.7C197 27.8 199.6 27.8 202.1 27.8C204.5 27.8 206.8 27.8 209 27.7C211.2 27.7 213.3 27.6 215.3 27.4C217.3 27.3 219.2 27.1 220.9 26.9C222.7 26.7 224.3 26.5 225.9 26.2C227.5 25.9 228.9 25.5 230.3 25.1C231.6 24.8 232.9 24.3 234.1 23.8C235.2 23.3 236.2 22.7 237.2 22C238.1 21.4 238.8 20.6 239.5 19.8C240.2 19 240.8 18.2 241.3 17.3C241.8 16.5 242.2 15.6 242.6 14.7C242.9 13.8 243.2 13 243.5 12.1C243.7 11.3 243.9 10.6 244.1 9.8C244.2 9 244.2 8.3 244.2 7.6C244.1 6.8 243.9 6 243.6 5.2C243.4 4.4 243 3.7 242.7 2.9C242.3 2.2 241.9 1.5 241.6 0.8C241.3 0.2 240.9 -0.4 240.7 -0.9C240.4 -1.4 240.2 -2 240.1 -2.2" fill="none" stroke="#DF2540" stroke-width="6.8" stroke-linecap="round" stroke-linejoin="round"/><path d="M124.9 119.3L130.4 143.2" fill="none" stroke="#B8152F" stroke-width="10.1" stroke-linecap="round" stroke-linejoin="round"/><path d="M119.4 119.3L125.4 145.7" fill="none" stroke="#DE2A44" stroke-width="11" stroke-linecap="round" stroke-linejoin="round"/><path d="M147.6 119.2L148.5 142.9" fill="none" stroke="#B8152F" stroke-width="10.1" stroke-linecap="round" stroke-linejoin="round"/><path d="M142.1 118.2L143.2 144.4" fill="none" stroke="#DE2A44" stroke-width="11" stroke-linecap="round" stroke-linejoin="round"/><path d="M168.2 123.5L163.5 145.9" fill="none" stroke="#B8152F" stroke-width="10.1" stroke-linecap="round" stroke-linejoin="round"/><path d="M163.2 121.3L158 146" fill="none" stroke="#DE2A44" stroke-width="11" stroke-linecap="round" stroke-linejoin="round"/><path d="M198.6 228C202.2 229.2 202.4 246.8 201.3 249.4C200.3 252.1 196.2 245.3 192.5 244C188.9 242.8 178.6 244.7 179.6 242C180.6 239.3 195 226.8 198.6 228Z" fill="#2B2226"/><path d="M24.9 54C23 54.7 20.3 55.3 18.2 56.3C16 57.3 14 58.6 12.1 60.1C10.2 61.6 8.4 63.4 6.9 65.3C5.3 67.2 3.9 69.4 2.8 71.7C1.6 74 0.7 76.4 0 78.9C-0.7 81.5 -1.1 84.2 -1.3 86.8C-1.5 89.5 -1.4 92.3 -1.2 95.1C-1 97.8 -0.5 100.7 0.1 103.4C0.6 106.1 1.4 108.9 2.4 111.5C3.3 114.1 4.4 116.6 5.7 119C7 121.4 8.5 123.6 10.2 125.6C11.8 127.7 13.7 129.5 15.7 131.1C17.7 132.7 19.9 134.1 22.1 135.2C24.3 136.3 26.7 137.2 29 137.7C31.3 138.3 33.7 138.7 36.1 138.7C38.5 138.7 41.2 138.2 43.1 138C45.1 137.9 46.2 137.9 47.7 137.9C49.2 137.9 50.8 137.9 52.3 137.8C53.8 137.8 55.2 137.8 56.7 137.8C58.2 137.7 59.7 137.7 61.1 137.6C62.6 137.6 64 137.5 65.4 137.4C66.8 137.4 68.3 137.3 69.7 137.1C71.1 137 72.4 136.9 73.7 136.7C75.1 136.5 76.5 136.3 77.9 136.1C79.2 136 80.5 135.8 81.8 135.6C83.1 135.4 84.5 135.1 85.8 134.9C87.1 134.7 88.3 134.5 89.5 134.3C90.8 134.1 92.1 133.9 93.4 133.7C94.7 133.4 96 133.2 97.3 133C98.5 132.8 99.6 132.6 100.8 132.4C102.1 132.2 103.4 132 104.6 131.8C105.8 131.6 106.8 131.4 108 131.2C109.2 131 110.5 130.8 111.7 130.6C112.9 130.4 114.2 130.2 115.3 130C116.5 129.8 117.5 129.7 118.6 129.5C119.7 129.3 121 129.1 122.1 129C123.3 128.8 124.2 128.7 125.3 128.5C126.4 128.4 127.6 128.2 128.8 128.1C129.9 128 131.1 127.9 132.2 127.8C133.3 127.7 134.2 127.6 135.2 127.5C136.3 127.5 137.6 127.4 138.6 127.4C139.6 127.3 140.5 127.2 141.5 127.2C142.5 127.2 143.8 127.3 144.8 127.3C145.8 127.3 146.6 127.3 147.6 127.3C148.6 127.4 149.8 127.5 150.8 127.6C151.8 127.7 152.6 127.7 153.5 127.8C154.5 127.9 155.6 128.1 156.7 128.3C157.7 128.4 158.8 128.7 159.7 128.8C160.7 129 161.4 129.1 162.4 129.3C163.3 129.6 164.5 129.9 165.4 130.2C166.3 130.4 167 130.6 167.8 130.7C168.5 130.9 169.1 131.1 169.8 131.3C170.4 131.5 171.2 131.8 171.7 132C172.3 132.2 172.7 132.2 173.3 132.4C173.9 132.7 174.6 133.2 175.2 133.6C175.8 133.9 176.3 134 176.8 134.5C177.4 134.9 178.1 135.6 178.7 136.1C179.3 136.6 179.8 136.9 180.3 137.5C180.9 138.1 181.5 138.9 182.1 139.6C182.6 140.4 183.2 141.2 183.7 142C184.2 142.7 184.7 143.3 185.2 144.2C185.7 145 186.2 146 186.6 146.9C187.1 147.9 187.5 148.9 187.9 149.9C188.4 150.9 188.8 152 189.1 153C189.5 154 189.8 155 190.1 156C190.5 157.1 190.8 158.3 191 159.4C191.3 160.6 191.6 161.8 191.8 163C192 164.2 192.2 165.4 192.4 166.6C192.6 167.8 192.7 169.1 192.9 170.3C193 171.6 193.1 172.8 193.2 174.1C193.2 175.4 193.3 176.8 193.3 178.1C193.3 179.4 193.3 180.7 193.3 182C193.2 183.2 193.2 184.5 193.1 185.8C193 187.1 192.9 188.5 192.8 189.8C192.7 191.1 192.5 192.4 192.3 193.7C192.2 195 192.3 194.9 191.7 197.8C191.1 200.6 190.9 206.1 188.7 210.6C186.5 215.2 181.4 220.4 178.5 225C175.6 229.7 172.1 235 171.2 238.6C170.4 242.3 171.5 245.9 173.3 247.1C175.2 248.3 178.6 247.5 182.4 245.6C186.2 243.8 193.6 234.5 196.1 235.9C198.7 237.4 196.6 250.3 197.9 254.4C199.2 258.5 201.8 260.4 203.8 260.6C205.9 260.8 208.4 258.6 210.2 255.6C212.1 252.5 213.7 246.8 215.2 242.3C216.7 237.8 217.2 234 219.3 228.3C221.5 222.6 226.4 212.4 228.1 208.3C229.9 204.2 229.3 205.2 229.9 203.7C230.5 202.1 231.1 200.5 231.6 198.9C232.2 197.3 232.7 195.6 233.3 194C233.8 192.4 234.3 190.7 234.8 189.1C235.2 187.4 235.7 185.7 236.1 184.1C236.6 182.4 237 180.8 237.4 179.1C237.8 177.5 238.2 175.7 238.5 174C238.9 172.2 239.2 170.5 239.5 168.7C239.8 166.9 240.1 165.1 240.3 163.3C240.6 161.5 240.8 159.7 241 157.9C241.1 156 241.3 154.2 241.4 152.3C241.5 150.4 241.5 148.3 241.5 146.4C241.5 144.4 241.5 142.5 241.4 140.6C241.3 138.7 241.2 136.7 241 134.7C240.8 132.8 240.5 130.9 240.2 128.8C239.9 126.7 239.4 124.5 239 122.4C238.5 120.3 238 118.4 237.4 116.4C236.8 114.3 236.2 112.4 235.4 110.3C234.6 108.2 233.6 105.9 232.7 103.9C231.7 101.8 230.8 99.9 229.7 97.9C228.6 95.9 227.2 93.6 225.9 91.7C224.6 89.7 223.3 88 221.9 86.1C220.4 84.2 218.6 82.1 216.9 80.3C215.2 78.5 213.7 76.9 211.9 75.3C210.2 73.7 208.3 72.1 206.6 70.7C204.8 69.3 202.9 67.9 201.2 66.7C199.5 65.4 198 64.4 196.3 63.2C194.6 62.1 192.6 60.9 190.8 59.8C189.1 58.7 187.4 57.8 185.7 56.8C183.9 55.9 182.2 55 180.4 54.1C178.6 53.2 176.5 52.3 174.6 51.5C172.7 50.6 171.1 49.9 169.2 49.2C167.3 48.5 165.2 47.7 163.3 47C161.4 46.4 159.7 45.8 157.8 45.2C155.8 44.6 153.7 44 151.8 43.5C149.9 43 148.2 42.5 146.3 42.1C144.4 41.6 142.3 41.2 140.4 40.8C138.5 40.4 136.7 40 134.8 39.7C133 39.4 131.2 39.1 129.3 38.8C127.4 38.6 125.4 38.3 123.5 38.1C121.6 37.9 119.9 37.7 118.1 37.6C116.2 37.4 114.2 37.3 112.4 37.2C110.5 37.1 108.8 37 107 37C105.2 36.9 103.5 36.9 101.7 36.9C99.9 36.9 98 37 96.2 37C94.4 37.1 92.7 37.2 91 37.3C89.2 37.4 87.4 37.5 85.6 37.7C83.9 37.8 82.2 38 80.5 38.1C78.9 38.3 77.2 38.5 75.5 38.7C73.8 39 72.1 39.2 70.4 39.5C68.7 39.8 67.2 40 65.5 40.3C63.9 40.6 62.2 41 60.6 41.3C59 41.7 57.4 42 55.9 42.4C54.3 42.8 52.7 43.2 51.1 43.7C49.6 44.1 48.1 44.6 46.6 45.2C45 45.7 43.5 46.2 42 46.8C40.5 47.3 39.1 47.9 37.7 48.5C36.2 49.1 34.7 49.7 33.3 50.3C31.9 51 30.5 51.6 29.1 52.2C27.7 52.8 26.7 53.3 24.9 54Z" fill="#DF2540"/><path d="M56.3 60C57.1 59.6 59.5 58.1 61.2 57.3C62.8 56.4 64.4 55.6 66.1 54.8C67.7 54.1 69.4 53.3 71.2 52.7C72.9 52 74.6 51.4 76.4 50.8C78.2 50.3 80 49.8 81.8 49.3C83.6 48.9 85.5 48.5 87.3 48.3C89.2 48 90.9 47.8 92.8 47.7C94.7 47.5 96.6 47.5 98.5 47.4C100.5 47.3 102.4 47.3 104.3 47.3C106.3 47.3 108.3 47.3 110.2 47.3C112.1 47.4 113.9 47.4 115.9 47.5C117.8 47.7 119.8 47.8 121.8 48C123.8 48.1 125.8 48.3 127.8 48.6C129.8 48.8 131.9 49.1 133.9 49.4C135.9 49.7 138 50 139.9 50.4C141.9 50.8 143.8 51.2 145.7 51.6C147.7 52.1 149.8 52.6 151.8 53.1C153.8 53.6 155.9 54.2 157.9 54.8C159.9 55.4 161.9 56.1 163.9 56.8C165.9 57.5 168 58.2 169.9 59C171.9 59.8 173.6 60.5 175.5 61.4C177.4 62.2 179.4 63.2 181.4 64.1C183.3 65.1 185.2 66.1 187.1 67.2C189 68.3 190.8 69.4 192.6 70.7C194.4 71.9 196.1 73.2 197.8 74.6C199.6 76.1 201.2 77.5 203 79.2C204.7 80.9 206.5 82.8 208.1 84.6C209.6 86.4 210.9 88.2 212.2 90.2C213.5 92.1 214.9 94.2 216 96.3C217.1 98.4 218.6 101.6 219.1 102.7C219.6 103.7 219.8 103.5 219.1 102.7C218.3 101.9 216 99.3 214.4 97.8C212.7 96.2 211 94.7 209.3 93.3C207.6 91.9 206 90.7 204.2 89.4C202.4 88.1 200.4 86.8 198.6 85.7C196.8 84.5 195 83.6 193.2 82.6C191.5 81.6 189.7 80.6 188 79.7C186.2 78.8 184.5 77.8 182.7 76.9C181 76 179.2 75.1 177.4 74.2C175.6 73.4 173.8 72.6 172 71.8C170.2 71.1 168.5 70.4 166.7 69.8C164.9 69.1 163 68.5 161.1 67.9C159.3 67.3 157.4 66.7 155.5 66.2C153.6 65.7 151.7 65.2 149.9 64.8C148 64.3 146 63.9 144.2 63.6C142.3 63.2 140.6 62.9 138.7 62.6C136.8 62.3 134.9 62 133 61.8C131.1 61.5 129.2 61.3 127.4 61.2C125.5 61 123.6 60.8 121.7 60.7C119.8 60.6 118 60.5 116.1 60.5C114.3 60.4 112.5 60.4 110.7 60.4C108.9 60.4 107 60.4 105.1 60.4C103.3 60.5 101.5 60.6 99.6 60.7C97.8 60.7 96 60.9 94.2 61C92.4 61.1 90.7 61.2 88.9 61.3C87.1 61.4 85.2 61.4 83.4 61.4C81.6 61.4 79.8 61.4 78 61.3C76.2 61.3 74.4 61.2 72.6 61.1C70.7 61 68.9 60.9 67.1 60.8C65.3 60.7 63.5 60.6 61.7 60.4C59.9 60.3 57.2 60.1 56.3 60C55.4 60 55.5 60.5 56.3 60Z" fill="#EA3D57"/><path d="M240.6 160.9C240.4 162.2 239.9 166.5 239.5 168.7C239.2 170.9 238.9 172.2 238.5 174C238.2 175.7 237.8 177.5 237.4 179.1C237 180.8 236.6 182.4 236.1 184.1C235.7 185.7 235.2 187.4 234.8 189.1C234.3 190.7 233.8 192.4 233.3 194C232.7 195.6 232.2 197.3 231.6 198.9C231.1 200.5 230.5 202.1 229.9 203.7C229.3 205.2 229.9 204.2 228.1 208.3C226.4 212.4 221.5 222.6 219.3 228.3C217.2 234 216.7 237.8 215.2 242.3C213.7 246.8 212.1 252.5 210.2 255.6C208.4 258.6 205.9 260.8 203.8 260.6C201.8 260.4 199.2 258.5 197.9 254.4C196.6 250.3 198.7 237.4 196.1 235.9C193.6 234.5 186.2 243.8 182.4 245.6C178.6 247.5 175.2 248.3 173.3 247.1C171.5 245.9 170.4 242.3 171.2 238.6C172.1 235 175.6 229.7 178.5 225C181.4 220.4 186.5 215.2 188.7 210.6C190.9 206.1 191.1 200.6 191.7 197.8C192.3 194.9 192.2 195 192.3 193.7C192.5 192.4 192.7 191.1 192.8 189.8C192.9 188.5 193 187.1 193.1 185.8C193.2 184.5 193.2 183.2 193.3 182C193.3 180.7 193.3 179.4 193.3 178.1C193.3 176.8 193.2 175.4 193.2 174.1C193.1 172.8 193 171.6 192.9 170.3C192.7 169.1 192.6 167.8 192.4 166.6C192.2 165.4 192 164.2 191.8 163C191.6 161.8 191.3 160.6 191 159.4C190.8 158.3 190.5 157.1 190.1 156C189.8 155 189.5 154 189.1 153C188.8 152 188.4 150.9 187.9 149.9C187.5 148.9 187.1 147.9 186.6 146.9C186.2 146 185.7 145 185.2 144.2C184.7 143.3 184.2 142.7 183.7 142C183.2 141.2 182.6 140.4 182.1 139.6C181.5 138.9 180.9 138.1 180.3 137.5C179.8 136.9 179.3 136.6 178.7 136.1C178.1 135.6 177.4 134.9 176.8 134.5C176.3 134 175.8 133.9 175.2 133.6C174.6 133.2 173.9 132.7 173.3 132.4C172.7 132.2 172.3 132.2 171.7 132C171.2 131.8 170.4 131.5 169.8 131.3C169.1 131.1 168.5 130.9 167.8 130.7C167 130.6 166.3 130.4 165.4 130.2C164.5 129.9 163.3 129.6 162.4 129.3C161.4 129.1 160.7 129 159.7 128.8C158.8 128.7 157.7 128.4 156.7 128.3C155.6 128.1 154.5 127.9 153.5 127.8C152.6 127.7 151.8 127.7 150.8 127.6C149.8 127.5 148.6 127.4 147.6 127.3C146.6 127.3 145.8 127.3 144.8 127.3C143.8 127.3 142.5 127.2 141.5 127.2C140.5 127.2 139.6 127.3 138.6 127.4C137.6 127.4 136.3 127.5 135.2 127.5C134.2 127.6 133.3 127.7 132.2 127.8C131.1 127.9 129.9 128 128.8 128.1C127.6 128.2 126.4 128.4 125.3 128.5C124.2 128.7 123.3 128.8 122.1 129C121 129.1 119.7 129.3 118.6 129.5C117.5 129.7 116.5 129.8 115.3 130C114.2 130.2 112.9 130.4 111.7 130.6C110.5 130.8 109.2 131 108 131.2C106.8 131.4 105.8 131.6 104.6 131.8C103.4 132 102.1 132.2 100.8 132.4C99.6 132.6 98.5 132.8 97.3 133C96 133.2 94.7 133.4 93.4 133.7C92.1 133.9 90.8 134.1 89.5 134.3C88.3 134.5 87.1 134.7 85.8 134.9C84.5 135.1 83.1 135.4 81.8 135.6C80.5 135.8 79.2 136 77.9 136.1C76.5 136.3 75.1 136.5 73.7 136.7C72.4 136.9 71.1 137 69.7 137.1C68.3 137.3 66.8 137.4 65.4 137.4C64 137.5 62.6 137.6 61.1 137.6C59.7 137.7 58.2 137.7 56.7 137.8C55.2 137.8 53.8 137.8 52.3 137.8C50.8 137.9 49.2 137.9 47.7 137.9C46.2 137.9 45.1 137.9 43.1 138C41.2 138.2 38.5 138.7 36.1 138.7C33.7 138.7 31.3 138.3 29 137.7C26.7 137.2 24.3 136.3 22.1 135.2C19.9 134.1 17.7 132.7 15.7 131.1C13.7 129.5 11.2 126.7 10.3 125.8L10.3 125.8C16 124.7 38 120.2 44.7 118.9C51.3 117.7 48.4 118.6 50.2 118.4C52 118.2 53.9 118 55.7 117.8C57.5 117.6 59.2 117.4 61 117.2C62.8 116.9 64.6 116.7 66.4 116.5C68.1 116.2 69.9 115.9 71.6 115.7C73.4 115.4 75.1 115.1 76.8 114.8C78.5 114.6 80.2 114.3 81.9 114C83.6 113.7 85.4 113.5 87.1 113.2C88.8 112.9 90.5 112.7 92.1 112.4C93.8 112.2 95.4 111.9 97.1 111.7C98.7 111.5 100.4 111.2 102.1 111C103.7 110.8 105.4 110.6 107 110.4C108.7 110.2 110.3 110 112 109.9C113.6 109.7 115.3 109.5 116.9 109.4C118.4 109.3 120 109.1 121.5 109C123.1 108.9 124.8 108.8 126.4 108.8C128 108.7 129.6 108.7 131.1 108.7C132.7 108.6 134.3 108.6 135.9 108.7C137.5 108.7 139.1 108.8 140.6 108.9C142.1 108.9 143.5 109 145 109.2C146.5 109.3 148.1 109.5 149.6 109.7C151.1 109.9 152.6 110.2 154.1 110.5C155.6 110.7 157.2 111.1 158.6 111.4C160 111.7 161.3 112.1 162.8 112.5C164.2 112.9 165.6 113.3 167.1 113.8C168.5 114.3 169.9 114.8 171.3 115.4C172.7 115.9 174.2 116.6 175.4 117.2C176.7 117.7 177.5 118.1 178.6 118.7C179.7 119.3 180.8 120 181.9 120.7C182.9 121.4 184 122.3 184.9 123.1C185.9 123.9 186.7 124.6 187.6 125.5C188.5 126.5 189.5 127.6 190.3 128.6C191.1 129.7 191.9 130.7 192.6 131.8C193.3 132.9 194.1 134.3 194.8 135.5C195.5 136.8 196.1 138 196.6 139.3C197.2 140.6 197.8 142.1 198.3 143.5C198.8 145 199.3 146.5 199.7 147.9C200.1 149.4 200.5 150.8 200.8 152.4C201.2 153.9 201.6 156.3 201.7 157.1L201.7 157.1C202.4 156.9 204.3 156.3 205.6 156C206.8 155.6 208.1 155.3 209.4 155.1C210.8 154.8 212.1 154.6 213.4 154.4C214.7 154.3 216.1 154.2 217.4 154.1C218.7 154.1 220.1 154 221.4 154.1C222.7 154.2 224.1 154.4 225.4 154.6C226.7 154.8 228 155 229.3 155.3C230.7 155.7 232 156.3 233.2 156.8C234.5 157.3 235.8 157.8 237 158.5C238.2 159.2 240 160.5 240.6 160.9Z" fill="#B8152F"/><path d="M201.9 70.2C201.4 68.5 196.7 67.1 195.4 66.6C194.2 66 194.8 66.8 194.4 66.9C193.9 67 193.4 67.2 192.9 67.4C192.4 67.5 191.8 67.7 191.2 67.9C190.6 68.1 190 68.3 189.4 68.5C188.8 68.7 188.2 68.9 187.7 69.1C187.2 69.3 186.7 69.5 186.2 69.7C185.7 69.8 185.3 70 184.9 70.1C184.5 70.3 184 70.4 183.6 70.6C183.2 70.7 182.8 70.9 182.3 71C181.9 71.2 181.5 71.4 181 71.5C180.6 71.7 180.1 71.9 179.6 72C179.1 72.2 178.6 72.4 178.1 72.6C177.6 72.8 177 73 176.4 73.2C175.8 73.4 175.2 73.7 174.6 73.9C173.9 74.1 173.3 74.4 172.6 74.6C172 74.8 171.4 75.1 170.8 75.3C170.3 75.6 169.7 75.8 169.3 76.1C168.9 76.4 168.5 76.8 168.3 77C168.1 77.1 168.1 77.1 168.1 77.2C168.1 77.2 168.1 77.2 168.3 77.4C168.6 77.5 169.1 77.8 169.6 77.9C170.1 78 170.6 78.1 171.2 78.2C171.8 78.3 172.5 78.3 173.2 78.4C173.8 78.4 174.6 78.4 175.2 78.5C175.9 78.5 176.6 78.5 177.2 78.6C177.9 78.6 178.5 78.6 179 78.7C179.6 78.7 180.1 78.7 180.6 78.8C181.1 78.8 181.6 78.8 182.1 78.9C182.6 78.9 183.1 78.9 183.5 78.9C184 78.9 184.5 79 185 78.9C185.5 78.9 186.1 78.9 186.6 78.9C187.1 78.9 187.7 78.8 188.2 78.7C188.8 78.7 189.4 78.6 190 78.5C190.7 78.4 191.3 78.2 192 78.1C192.6 78 193.3 77.8 193.9 77.7C194.6 77.5 195.2 77.4 195.7 77.3C196.3 77.1 196.8 77 197.2 76.9C197.6 76.8 197.5 77.7 198.3 76.6C199 75.5 202.3 71.9 201.9 70.2Z" fill="#C01A35"/><path d="M235.2 115.5C236 114 233.5 109.8 232.9 108.5C232.4 107.3 232.3 108.3 231.9 108.1C231.6 107.9 231.1 107.7 230.6 107.4C230.1 107.2 229.5 107 229 106.7C228.4 106.5 227.8 106.2 227.2 106C226.6 105.7 226 105.5 225.5 105.2C225 105 224.5 104.8 224 104.6C223.5 104.4 223.1 104.3 222.6 104.1C222.2 104 221.7 103.8 221.3 103.7C220.8 103.5 220.4 103.4 220 103.2C219.5 103.1 219.1 102.9 218.6 102.8C218.1 102.6 217.6 102.5 217.1 102.3C216.6 102.2 216.1 102 215.5 101.9C215 101.7 214.4 101.5 213.7 101.4C213.1 101.2 212.4 101 211.7 100.8C211.1 100.6 210.3 100.4 209.7 100.3C209 100.1 208.3 100 207.7 99.9C207.1 99.7 206.5 99.6 206 99.6C205.4 99.6 204.9 99.7 204.6 99.7C204.3 99.8 204.3 99.8 204.3 99.8C204.3 99.9 204.3 99.8 204.4 100.1C204.6 100.3 204.8 100.9 205.2 101.2C205.5 101.6 206 102 206.5 102.4C206.9 102.8 207.5 103.3 208 103.7C208.6 104.1 209.1 104.6 209.7 105C210.2 105.4 210.8 105.8 211.3 106.2C211.8 106.6 212.3 107 212.7 107.3C213.2 107.7 213.5 108 213.9 108.3C214.3 108.6 214.7 109 215 109.3C215.4 109.6 215.7 109.9 216.1 110.2C216.5 110.5 216.8 110.8 217.2 111.1C217.6 111.4 218 111.7 218.4 112C218.8 112.3 219.2 112.6 219.7 112.9C220.1 113.2 220.6 113.5 221.1 113.8C221.6 114.1 222.2 114.5 222.7 114.8C223.3 115.1 223.9 115.5 224.4 115.8C224.9 116.1 225.5 116.4 226 116.6C226.5 116.9 226.9 117.1 227.3 117.3C227.7 117.5 226.9 118.1 228.3 117.8C229.6 117.5 234.5 117.1 235.2 115.5Z" fill="#C01A35"/><path d="M239.3 164.4C240.7 163.4 240.4 158.5 240.5 157.1C240.6 155.8 240.2 156.7 240 156.4C239.8 156.1 239.5 155.8 239.2 155.4C238.9 155 238.6 154.7 238.3 154.3C238 153.9 237.7 153.5 237.4 153.1C237 152.7 236.7 152.3 236.4 151.9C236.1 151.6 235.8 151.2 235.5 150.9C235.3 150.6 235 150.3 234.8 150C234.5 149.7 234.2 149.4 234 149.1C233.7 148.9 233.5 148.6 233.2 148.3C232.9 148 232.6 147.7 232.3 147.3C232.1 147 231.8 146.7 231.4 146.4C231.1 146 230.8 145.7 230.5 145.3C230.1 144.9 229.7 144.5 229.3 144.1C229 143.7 228.5 143.2 228.1 142.8C227.7 142.3 227.2 141.8 226.8 141.4C226.4 140.9 225.9 140.5 225.5 140.1C225.1 139.7 224.7 139.4 224.3 139.1C223.9 138.8 223.4 138.7 223.2 138.5C222.9 138.4 223 138.4 222.9 138.5C222.8 138.5 222.9 138.5 222.8 138.7C222.8 139 222.7 139.6 222.8 140C222.8 140.5 222.9 141 223 141.6C223.2 142.1 223.4 142.7 223.5 143.3C223.7 143.9 223.9 144.5 224.1 145.1C224.3 145.7 224.5 146.3 224.7 146.8C224.8 147.4 225 147.9 225.1 148.4C225.3 148.9 225.4 149.3 225.5 149.7C225.6 150.2 225.8 150.6 225.9 151C226 151.4 226.1 151.8 226.2 152.2C226.4 152.6 226.5 153 226.7 153.4C226.8 153.8 227 154.2 227.1 154.6C227.3 155.1 227.5 155.5 227.7 155.9C227.9 156.4 228.1 156.8 228.4 157.3C228.6 157.8 228.9 158.2 229.2 158.7C229.5 159.2 229.8 159.7 230 160.1C230.3 160.5 230.6 161 230.8 161.4C231.1 161.7 231.3 162.1 231.5 162.4C231.7 162.7 230.7 162.8 232 163.1C233.3 163.5 237.9 165.4 239.3 164.4Z" fill="#C01A35"/><ellipse cx="84.1" cy="100.9" rx="9" ry="5.3" transform="rotate(-8 84.1 100.9)" fill="#FF7A93" opacity="0.3"/><circle cx="71.7" cy="73.2" r="12" fill="#2B2226"/><circle cx="67.9" cy="69.1" r="3.6" fill="#FFFFFF"/><circle cx="76" cy="77.5" r="1.6" fill="#FFFFFF"/><path d="M44.8 99Q55 101.8 65.3 99Q63.4 115.8 55 115.8Q46.7 113.9 44.8 99Z" fill="#2B2226"/><ellipse cx="55" cy="110.9" rx="5.6" ry="3.2" fill="#FF8C9C"/></g><g transform="translate(90 40) scale(1.05)"><circle cx="0" cy="-6" r="25" fill="#FFF3B8" opacity="0.5"/><path d="M-29.6 -10.7L-38.5 -12.1" fill="none" stroke="#F5A24A" stroke-width="3.6" stroke-linecap="round" stroke-linejoin="round"/><path d="M-24.3 -23.6L-31.6 -28.9" fill="none" stroke="#F5A24A" stroke-width="3.6" stroke-linecap="round" stroke-linejoin="round"/><path d="M-13.6 -32.7L-17.7 -40.7" fill="none" stroke="#F5A24A" stroke-width="3.6" stroke-linecap="round" stroke-linejoin="round"/><path d="M0 -36L0 -45" fill="none" stroke="#F5A24A" stroke-width="3.6" stroke-linecap="round" stroke-linejoin="round"/><path d="M13.6 -32.7L17.7 -40.7" fill="none" stroke="#F5A24A" stroke-width="3.6" stroke-linecap="round" stroke-linejoin="round"/><path d="M24.3 -23.6L31.6 -28.9" fill="none" stroke="#F5A24A" stroke-width="3.6" stroke-linecap="round" stroke-linejoin="round"/><path d="M29.6 -10.7L38.5 -12.1" fill="none" stroke="#F5A24A" stroke-width="3.6" stroke-linecap="round" stroke-linejoin="round"/><path d="M-7 13C-7 7 -17 3 -17 -7C-17 -18 -9 -25 0 -25C9 -25 17 -18 17 -7C17 3 7 7 7 13Z" fill="#FFD34D"/><path d="M-11 -7C-11 -15 -6 -19 0 -19C6 -19 11 -15 11 -7C11 0 4 4 4 10L-4 10C-4 4 -11 0 -11 -7Z" fill="#FFF3B8"/><ellipse cx="-6" cy="-13" rx="3.6" ry="5.2" transform="rotate(30 -6 -13)" fill="#FFFFFF"/><path d="M-3.5 11L-3.5 1Q-3.5 -4 0 -1Q3.5 -4 3.5 1L3.5 11" fill="none" stroke="#F2A93B" stroke-width="1.8" stroke-linecap="round" stroke-linejoin="round"/><path d="M-8 13L8 13L7.5 23Q0 28 -7.5 23Z" fill="#5E4A44"/><path d="M-8 16.5L8 16.5M-7.5 20L7.5 20" fill="none" stroke="#8A766E" stroke-width="1.6" stroke-linecap="round" stroke-linejoin="round"/></g></svg>
