<svg xmlns="http://www.w3.org/2000/svg" viewBox="0 0 120 120">
  <!-- The Flytrap Queen: a huge flytrap grown through the shattered arch of an old greenhouse, more RAVENOUS than evil:
       big round curious eyes on swaying stalks (one lid droops, dopey), the head tilted, nostrils sniffing the air
       toward you, the great trap hanging open with its thorn teeth and glowing glands, a long tongue lolling out over
       the lip and drool dripping off it. Two little side traps lunge at butterflies, the leaves at its base wiggle.
       Funny-dangerous, like a giant hungry dog that might eat you by accident.
       Entrance: the side traps whip in, the trap drops open, the eye stalks pop up, the tongue flops out. -->
  <!-- the shattered greenhouse arch -->
  <path d="M-4 104 V40 C-4 6 26 -12 60 -12 C94 -12 124 6 124 40 V104Z" fill="#e6f4ea"/>
  <g fill="#fff" opacity="0.5"><path d="M4 70 L18 30 L22 30 L8 70Z M98 64 L110 30 L113 31 L101 64Z M40 10 L50 -4 L52 -3 L42 11Z"/></g>
  <!-- broken panes -->
  <path d="M30 10 L40 18 L36 24 L46 30 L38 36 L30 30 L26 40 L18 32 L20 22Z" fill="#2e8b57"/>
  <path d="M30 10 L40 18 L36 24 L46 30 L38 36 L30 30 L26 40 L18 32 L20 22Z" fill="#000" opacity="0.5" stroke="var(--lg-ink, #1d2230)" stroke-width="0.8" stroke-linejoin="round"/>
  <path d="M96 76 L104 70 L110 80 L116 76 L114 90 L104 94 L100 86Z" fill="#2e8b57"/>
  <path d="M96 76 L104 70 L110 80 L116 76 L114 90 L104 94 L100 86Z" fill="#000" opacity="0.5" stroke="var(--lg-ink, #1d2230)" stroke-width="0.8" stroke-linejoin="round"/>
  <path d="M84 6 L88 14 L94 10" fill="none" stroke="var(--lg-ink, #1d2230)" stroke-width="0.7"/>
  <!-- iron frame and mullions -->
  <g fill="none" stroke-linejoin="round">
    <path d="M-4 112 V40 C-4 6 26 -12 60 -12 C94 -12 124 6 124 40 V112 M28 112 V24 C28 6 42 -6 60 -8 C78 -6 92 6 92 24 V112 M60 -12 V112 M-4 44 H124 M-4 84 H124" stroke="var(--lg-ink, #1d2230)" stroke-width="4"/>
    <path d="M-4 112 V40 C-4 6 26 -12 60 -12 C94 -12 124 6 124 40 V112 M28 112 V24 C28 6 42 -6 60 -8 C78 -6 92 6 92 24 V112 M60 -12 V112 M-4 44 H124 M-4 84 H124" stroke="#6f7d86" stroke-width="2"/>
  </g>
  <!-- vines strangling the frame -->
  <g fill="none" stroke-linecap="round">
    <path d="M2 102 C10 94 0 80 10 66 C20 52 6 40 14 24 C20 12 34 4 46 -4" stroke="var(--lg-ink, #1d2230)" stroke-width="4"/>
    <path d="M2 102 C10 94 0 80 10 66 C20 52 6 40 14 24 C20 12 34 4 46 -4" stroke="#2e8b57" stroke-width="2.4"/>
    <path d="M122 104 C110 92 120 76 110 62 C100 48 116 36 106 20 C100 10 88 2 74 -6" stroke="var(--lg-ink, #1d2230)" stroke-width="4"/>
    <path d="M122 104 C110 92 120 76 110 62 C100 48 116 36 106 20 C100 10 88 2 74 -6" stroke="#2e8b57" stroke-width="2.4"/>
  </g>
  <g fill="#5fb57a" stroke="var(--lg-ink, #1d2230)" stroke-width="0.8" stroke-linejoin="round">
    <path d="M10 66 C4 62 2 56 6 54 C10 56 12 60 10 66Z"/><path d="M14 24 C8 22 6 16 10 14 C14 16 16 20 14 24Z"/><path d="M110 62 C116 58 118 52 114 50 C110 52 108 56 110 62Z"/><path d="M106 20 C112 18 114 12 110 10 C106 12 104 16 106 20Z"/>
  </g>
  <!-- the overgrown bed the greenhouse sinks into -->
  <path d="M-14 126 C-16 114 -8 104 2 106 C6 98 16 96 22 102 C28 96 38 96 42 102 C50 98 70 98 78 102 C82 96 92 96 98 102 C104 96 114 98 118 106 C128 104 136 114 134 126 C128 132 118 128 108 132 C94 136 76 130 60 134 C44 130 26 136 12 132 C2 128 -8 132 -14 126Z" fill="#2e8b57" stroke="var(--lg-ink, #1d2230)" stroke-width="1.6" stroke-linejoin="round"/>
  <path d="M-12 120 C0 112 20 110 40 108 C60 106 80 106 100 108 C116 110 128 116 132 122 C126 130 112 128 100 132 C84 134 70 130 60 134 C44 130 26 136 12 132 C2 128 -8 130 -12 120Z" fill="#000" opacity="0.3"/>
  <g fill="#cfe8f4" stroke="var(--lg-ink, #1d2230)" stroke-width="0.6" stroke-linejoin="round"><path d="M4 114 L10 106 L12 116Z M22 122 L30 116 L28 124Z M108 116 L116 108 L116 118Z M92 124 L98 118 L100 126Z"/></g>
  <g fill="none" stroke="#5fb57a" stroke-width="1.2" stroke-linecap="round"><path d="M-6 112 C-2 108 2 108 4 110 M14 104 C18 100 22 100 24 104 M100 104 C104 100 108 100 110 104 M116 110 C120 106 124 106 126 110"/></g>
  <!-- LEFT snapping head on its vine: whips in, then snaps -->
  <g>
    <animateTransform class="lg-in" attributeName="transform" type="rotate" values="-60 30 100;-60 30 100;8 30 100;0 30 100" keyTimes="0;.4;.62;1" dur="1.5s" fill="freeze"/>
    <g><animateTransform class="lg-loop" attributeName="transform" type="rotate" values="0 30 100;-7 30 100;2 30 100;0 30 100" dur="2.2s" repeatCount="indefinite"/>
      <path d="M30 100 C20 92 18 76 10 62 C6 56 2 50 -2 46" fill="none" stroke="var(--lg-ink, #1d2230)" stroke-width="5.4" stroke-linecap="round"/>
      <path d="M30 100 C20 92 18 76 10 62 C6 56 2 50 -2 46" fill="none" stroke="#2e8b57" stroke-width="3.4" stroke-linecap="round"/>
      <g fill="#e8d7b0" stroke="var(--lg-ink, #1d2230)" stroke-width="0.6" stroke-linejoin="round"><path d="M22 88 L17 88 L21 85Z M14 70 L10 72 L12 67Z"/></g>
      <g transform="translate(-4 40) rotate(-30)">
        <path d="M0 6 C-12 4 -18 -6 -14 -14 L0 -4Z" fill="#5fb57a" stroke="var(--lg-ink, #1d2230)" stroke-width="1.3" stroke-linejoin="round"/>
        <path d="M0 6 C10 0 12 -10 6 -16 L-2 -4Z" fill="#5fb57a" stroke="var(--lg-ink, #1d2230)" stroke-width="1.3" stroke-linejoin="round"/>
        <path d="M-12 -12 C-8 -6 -4 -4 0 -4 C2 -8 4 -12 5 -14 C0 -10 -6 -10 -12 -12Z" fill="#b3122e"/>
        <g fill="#f4efe0" stroke="var(--lg-ink, #1d2230)" stroke-width="0.5" stroke-linejoin="round"><path d="M-14 -14 L-16 -19 L-12 -15Z M-10 -11 L-11 -17 L-8 -12Z M-6 -9 L-6 -15 L-4 -10Z M6 -16 L8 -21 L7 -15Z M4 -12 L8 -16 L5 -11Z"/></g>
        <path d="M-6 -2 L-2 -3 L-4 -0.6Z" fill="#d4ff3a"/>
      </g>
    </g>
  </g>
  <!-- RIGHT snapping head on its vine -->
  <g>
    <animateTransform class="lg-in" attributeName="transform" type="rotate" values="60 90 100;60 90 100;-8 90 100;0 90 100" keyTimes="0;.44;.66;1" dur="1.5s" fill="freeze"/>
    <g><animateTransform class="lg-loop" attributeName="transform" type="rotate" values="0 90 100;7 90 100;-2 90 100;0 90 100" dur="2.5s" repeatCount="indefinite"/>
      <path d="M90 100 C100 92 102 76 110 62 C114 56 118 50 122 46" fill="none" stroke="var(--lg-ink, #1d2230)" stroke-width="5.4" stroke-linecap="round"/>
      <path d="M90 100 C100 92 102 76 110 62 C114 56 118 50 122 46" fill="none" stroke="#2e8b57" stroke-width="3.4" stroke-linecap="round"/>
      <g fill="#e8d7b0" stroke="var(--lg-ink, #1d2230)" stroke-width="0.6" stroke-linejoin="round"><path d="M98 88 L103 88 L99 85Z M106 70 L110 72 L108 67Z"/></g>
      <g transform="translate(124 40) rotate(30) scale(-1 1)">
        <path d="M0 6 C-12 4 -18 -6 -14 -14 L0 -4Z" fill="#5fb57a" stroke="var(--lg-ink, #1d2230)" stroke-width="1.3" stroke-linejoin="round"/>
        <path d="M0 6 C10 0 12 -10 6 -16 L-2 -4Z" fill="#5fb57a" stroke="var(--lg-ink, #1d2230)" stroke-width="1.3" stroke-linejoin="round"/>
        <path d="M-12 -12 C-8 -6 -4 -4 0 -4 C2 -8 4 -12 5 -14 C0 -10 -6 -10 -12 -12Z" fill="#b3122e"/>
        <g fill="#f4efe0" stroke="var(--lg-ink, #1d2230)" stroke-width="0.5" stroke-linejoin="round"><path d="M-14 -14 L-16 -19 L-12 -15Z M-10 -11 L-11 -17 L-8 -12Z M-6 -9 L-6 -15 L-4 -10Z M6 -16 L8 -21 L7 -15Z M4 -12 L8 -16 L5 -11Z"/></g>
        <path d="M-6 -2 L-2 -3 L-4 -0.6Z" fill="#d4ff3a"/>
      </g>
    </g>
  </g>
  <!-- big leaves at the base, wiggling -->
  <g>
    <animateTransform class="lg-loop" attributeName="transform" type="rotate" values="0 60 102;-4 60 102;0 60 102;2 60 102;0 60 102" dur="2.6s" repeatCount="indefinite"/>
    <path d="M60 98 C38 90 14 96 2 110 C16 118 40 116 60 104Z" fill="var(--lg-tint,#b3122e)" stroke="var(--lg-ink, #1d2230)" stroke-width="1.5" stroke-linejoin="round"/>
    <path d="M60 104 C46 112 30 124 18 128 C30 130 48 126 60 110Z" fill="var(--lg-tint-lo,#7a0c20)" stroke="var(--lg-ink, #1d2230)" stroke-width="1.5" stroke-linejoin="round"/>
    <path d="M8 108 C20 98 40 96 56 100" fill="none" stroke="var(--lg-tint-hi,#ff8aa0)" stroke-width="1"/>
    <g fill="#ffd23f" stroke="var(--lg-ink, #1d2230)" stroke-width="0.4"><circle cx="18" cy="106" r="1.6"/><circle cx="30" cy="102" r="1.2"/><circle cx="36" cy="118" r="1.3"/><circle cx="44" cy="108" r="1"/></g>
  </g>
  <g>
    <animateTransform class="lg-loop" attributeName="transform" type="rotate" values="0 60 102;4 60 102;0 60 102;-2 60 102;0 60 102" dur="2.9s" repeatCount="indefinite"/>
    <path d="M60 98 C82 90 106 96 118 110 C104 118 80 116 60 104Z" fill="var(--lg-tint,#b3122e)" stroke="var(--lg-ink, #1d2230)" stroke-width="1.5" stroke-linejoin="round"/>
    <path d="M60 104 C74 112 90 124 102 128 C90 130 72 126 60 110Z" fill="var(--lg-tint-lo,#7a0c20)" stroke="var(--lg-ink, #1d2230)" stroke-width="1.5" stroke-linejoin="round"/>
    <path d="M60 98 C82 90 106 96 118 110 C112 113 104 114 96 114 C92 104 78 100 62 102Z" fill="#000" opacity="0.2"/>
    <g fill="#ffd23f" stroke="var(--lg-ink, #1d2230)" stroke-width="0.4"><circle cx="102" cy="106" r="1.6"/><circle cx="90" cy="102" r="1.2"/><circle cx="84" cy="118" r="1.3"/><circle cx="76" cy="108" r="1"/></g>
  </g>
  <!-- the thorned stem -->
  <path d="M50 108 C48 98 50 90 52 84 H68 C70 90 72 98 70 108Z" fill="#2e8b57" stroke="var(--lg-ink, #1d2230)" stroke-width="1.8" stroke-linejoin="round"/>
  <path d="M60 84 H68 C70 90 72 98 70 108 H62Z" fill="#000" opacity="0.25"/>
  <g fill="#e8d7b0" stroke="var(--lg-ink, #1d2230)" stroke-width="0.6" stroke-linejoin="round"><path d="M51 94 L45 92 L51 97Z M69 92 L75 90 L69 95Z M50 102 L45 104 L50 105Z M70 100 L75 102 L70 103Z"/></g>
  <!-- the great trap, its head tilted in curiosity -->
  <g transform="rotate(-9 60 96)">
  <g>
    <animateTransform class="lg-loop" attributeName="transform" type="rotate" values="0 60 96;-4 60 96;0 60 96;3 60 96;0 60 96" dur="4.4s" repeatCount="indefinite"/>
  <g>
    <animateTransform class="lg-loop" attributeName="transform" type="translate" values="0 0;0 0;1 1.6;0 0;1 1.6;0 0" keyTimes="0;.5;.6;.7;.8;1" dur="2.6s" repeatCount="indefinite"/>
    <!-- the maw: the jaw drops open on the entrance, then breathes -->
    <g transform="translate(60 50)"><g>
      <animateTransform class="lg-in" attributeName="transform" type="scale" values="1 0.12;1 0.12;1.06 1.22;1 1" keyTimes="0;.55;.76;1" dur="1.6s" fill="freeze"/>
      <g><animateTransform class="lg-loop" attributeName="transform" type="scale" values="1 1;1 0.93;1 1" dur="2.4s" repeatCount="indefinite"/>
      <g transform="translate(-60 -50)">
        <!-- the red throat with glowing glands and veins -->
        <path d="M6 52 C26 44 94 44 114 52 L112 62 C96 92 24 92 8 62Z" fill="#5e0a1a" stroke="var(--lg-ink, #1d2230)" stroke-width="1.4" stroke-linejoin="round"/>
        <path d="M20 58 C40 50 80 50 100 58 C88 82 32 82 20 58Z" fill="#2a040c"/>
        <path d="M24 54 C32 60 38 58 44 64 M96 54 C88 60 82 58 76 64 M60 50 V58 M50 70 C54 66 58 68 60 64 M70 70 C66 66 62 68 60 64" fill="none" stroke="#c43a5a" stroke-width="0.9"/>
        <g><animateTransform class="lg-loop" attributeName="transform" type="translate" values="0 0;0 -0.8;0 0" dur="1.2s" repeatCount="indefinite"/>
          <g fill="#c6ff3f" opacity="0.45"><circle cx="34" cy="66" r="3"/><circle cx="48" cy="72" r="2.6"/><circle cx="72" cy="72" r="2.6"/><circle cx="86" cy="66" r="3"/><circle cx="60" cy="74" r="3.2"/></g>
          <g fill="#e8ff6b" stroke="var(--lg-ink, #1d2230)" stroke-width="0.4"><circle cx="34" cy="66" r="1.6"/><circle cx="48" cy="72" r="1.4"/><circle cx="72" cy="72" r="1.4"/><circle cx="86" cy="66" r="1.6"/><circle cx="60" cy="74" r="1.7"/></g>
        </g>
        <!-- lower lobe: the jaw, veined -->
        <path d="M8 62 C10 96 36 114 60 114 C84 114 110 96 112 62 C96 92 24 92 8 62Z" fill="#5fb57a" stroke="var(--lg-ink, #1d2230)" stroke-width="2.2" stroke-linejoin="round"/>
        <path d="M60 114 C84 114 110 96 112 62 C106 74 98 82 88 86 C84 100 74 108 60 108Z" fill="#000" opacity="0.22"/>
        <path d="M14 76 C20 92 34 104 50 108" fill="none" stroke="#fff" stroke-width="1.2" opacity="0.35"/>
        <path d="M24 86 L30 96 M38 92 L42 104 M60 96 V108 M82 92 L78 104 M96 86 L90 96" stroke="var(--lg-ink, #1d2230)" stroke-width="0.8" opacity="0.45"/>
        <path d="M10 66 C26 90 94 90 110 66" fill="none" stroke="#b3122e" stroke-width="2"/>
        <g fill="#e8d7b0" stroke="var(--lg-ink, #1d2230)" stroke-width="0.6" stroke-linejoin="round"><path d="M9 70 L-4 74 L9 74Z M12 82 L0 90 L13 86Z M20 94 L12 104 L23 97Z M111 70 L124 74 L111 74Z M108 82 L120 90 L107 86Z M100 94 L108 104 L97 97Z"/></g>
        <!-- long thorn teeth, interlocking -->
        <g fill="#f4efe0" stroke="var(--lg-ink, #1d2230)" stroke-width="0.8" stroke-linejoin="round">
          <path d="M7.3 50.1 L10.1 62.7 L12.9 50.1Z"/><path d="M14.9 48.6 L17.7 64.2 L20.5 48.6Z"/><path d="M24.1 47.3 L26.9 69.9 L29.7 47.3Z"/><path d="M34.5 46.5 L37.3 61.1 L40.1 46.5Z"/><path d="M45.6 45.9 L48.4 63.5 L51.2 45.9Z"/><path d="M57.2 45.8 L60.0 62.4 L62.8 45.8Z"/><path d="M68.8 45.9 L71.6 63.5 L74.4 45.9Z"/><path d="M79.9 46.5 L82.7 61.1 L85.5 46.5Z"/><path d="M90.3 47.3 L93.1 69.9 L95.9 47.3Z"/><path d="M99.5 48.6 L102.3 64.2 L105.1 48.6Z"/><path d="M107.1 50.1 L109.9 62.7 L112.7 50.1Z"/>
          <path d="M10.3 69.4 L12.9 58.6 L15.5 69.4Z"/><path d="M18.2 75.7 L20.8 61.9 L23.4 75.7Z"/><path d="M28.0 80.4 L30.6 63.6 L33.2 80.4Z"/><path d="M39.2 83.5 L41.8 70.7 L44.4 83.5Z"/><path d="M51.3 85.1 L53.9 69.3 L56.5 85.1Z"/><path d="M63.5 85.1 L66.1 69.3 L68.7 85.1Z"/><path d="M75.6 83.5 L78.2 70.7 L80.8 83.5Z"/><path d="M86.8 80.4 L89.4 63.6 L92.0 80.4Z"/><path d="M96.6 75.7 L99.2 61.9 L101.8 75.7Z"/><path d="M104.5 69.4 L107.1 58.6 L109.7 69.4Z"/>
        </g>
        <path d="M25.6 49 L27 66 M91.6 49 L93 66" stroke="#fff" stroke-width="0.7"/>
        <!-- a drool string hanging off a long fang -->
        <path style="transform-box:fill-box;transform-origin:center top" d="M25.4 69 C24.6 76 26 81 27.4 81 C28.8 81 29.4 76 28.6 69Z" fill="#d4ff8a" stroke="var(--lg-ink, #1d2230)" stroke-width="0.4"><animateTransform class="lg-loop" attributeName="transform" type="scale" values="1 1;1 1.6;1 1" dur="1.8s" repeatCount="indefinite"/></path>
        <!-- the long tongue, lolling out over the lip -->
        <g>
          <animateTransform class="lg-in" attributeName="transform" type="rotate" values="-70 60 68;-70 60 68;12 60 68;0 60 68" keyTimes="0;.7;.86;1" dur="1.6s" fill="freeze"/>
          <g><animateTransform class="lg-loop" attributeName="transform" type="rotate" values="0 60 68;4 60 68;0 60 68;-2 60 68;0 60 68" dur="3s" repeatCount="indefinite"/>
            <path d="M52 66 C56 60 68 62 70 68 C76 76 82 84 88 96 C92 104 94 112 90 116 C86 120 80 116 81 110 C82 102 76 94 68 86 C62 80 54 74 52 66Z" fill="#ec6f93" stroke="var(--lg-ink, #1d2230)" stroke-width="1.5" stroke-linejoin="round"/>
            <path d="M70 68 C76 76 82 84 88 96 C92 104 94 112 90 116 C88 117.6 86 117.6 85 116.6 C88 110 86 102 82 94 C78 86 72 78 64 70Z" fill="#000" opacity="0.18"/>
            <path d="M60 67 C67 74 76 85 83 102" fill="none" stroke="#b3305a" stroke-width="1.1" stroke-linecap="round"/>
            <path d="M56 68 C60 74 66 80 72 86" fill="none" stroke="#fff" stroke-width="1" stroke-linecap="round" opacity="0.45"/>
            <!-- drool off the tongue tip -->
            <path style="transform-box:fill-box;transform-origin:center top" d="M84.6 116.4 C84 120 85 123 86.4 123 C87.8 123 88.4 120 87.6 116.6Z" fill="#d4ff8a" stroke="var(--lg-ink, #1d2230)" stroke-width="0.4"><animateTransform class="lg-loop" attributeName="transform" type="scale" values="1 1;1 1.8;1 1" dur="1.5s" repeatCount="indefinite"/></path>
            <circle cx="86.2" cy="125" r="1.2" fill="#d4ff8a" stroke="var(--lg-ink, #1d2230)" stroke-width="0.4" style="transform-box:fill-box;transform-origin:center"><animateTransform class="lg-loop" attributeName="transform" type="translate" values="0 0;0 0;0 9" keyTimes="0;.5;1" dur="1.5s" repeatCount="indefinite"/><animateTransform class="lg-loop" attributeName="transform" type="scale" values="0.01;1;1;0.01" keyTimes="0;.5;.85;1" dur="1.5s" repeatCount="indefinite" additive="sum"/></circle>
          </g>
        </g>
      </g>
      </g>
    </g></g>
    <!-- big round curious eyes on stalks: pop up on the entrance, sway, blink -->
    <g transform="translate(44 14)"><g>
      <animateTransform class="lg-in" attributeName="transform" type="scale" values="0.01;0.01;1.12;1" keyTimes="0;0.6;0.76;1" dur="1.6s" fill="freeze"/>
      <g transform="translate(-44 -14)">
      <g><animateTransform class="lg-loop" attributeName="transform" type="rotate" values="0 44 14;-6 44 14;0 44 14;3.0 44 14;0 44 14" dur="3.2s" repeatCount="indefinite"/>
        <path d="M44 14 C43 6 32 16 32 9" fill="none" stroke="var(--lg-ink, #1d2230)" stroke-width="5.6" stroke-linecap="round"/>
        <path d="M44 14 C43 6 32 16 32 9" fill="none" stroke="#5fb57a" stroke-width="3.6" stroke-linecap="round"/>
        <g transform="translate(32 0)">
          <circle r="10" fill="#fffbe8" stroke="var(--lg-ink, #1d2230)" stroke-width="1.5"/>
          <path d="M2.0 9.0 A10 10 0 0 0 9.5 -1.0" fill="none" stroke="#000" stroke-width="1.6" opacity="0.15"/>
          <g><animateTransform class="lg-loop" attributeName="transform" type="scale" values="1 1;1 1;1 0.08;1 1;1 1" keyTimes="0;.9;.94;.98;1" dur="4.5s" repeatCount="indefinite"/>
            <circle cx="0.8" cy="1.6" r="6.4" fill="#9be23a" stroke="var(--lg-ink, #1d2230)" stroke-width="0.8"/>
            <circle cx="1" cy="2" r="4.2" fill="#1a2a05"/>
            <circle cx="-2.0" cy="-0.5" r="1.9" fill="#fff"/>
            <circle cx="3.0" cy="4.2" r="0.8" fill="#fff"/>
          </g>
          <path d="M-10 -0.6 A10 10 0 0 1 10 -0.6 C5.0 1.6 -5.0 1.6 -10 -0.6Z" fill="#5fb57a" stroke="var(--lg-ink, #1d2230)" stroke-width="1.2" stroke-linejoin="round"/><path d="M-8.0 -2 A8.0 8.0 0 0 1 2.0 -7.800000000000001" fill="none" stroke="#fff" stroke-width="0.9" opacity="0.45" stroke-linecap="round"/>
        </g>
      </g>
      </g>
    </g></g>
    <g transform="translate(74 13)"><g>
      <animateTransform class="lg-in" attributeName="transform" type="scale" values="0.01;0.01;1.12;1" keyTimes="0;0.64;0.8;1" dur="1.6s" fill="freeze"/>
      <g transform="translate(-74 -13)">
      <g><animateTransform class="lg-loop" attributeName="transform" type="rotate" values="0 74 13;7 74 13;0 74 13;-3.5 74 13;0 74 13" dur="3.8s" repeatCount="indefinite"/>
        <path d="M74 13 C73 5 86 15.5 86 8.5" fill="none" stroke="var(--lg-ink, #1d2230)" stroke-width="5.6" stroke-linecap="round"/>
        <path d="M74 13 C73 5 86 15.5 86 8.5" fill="none" stroke="#5fb57a" stroke-width="3.6" stroke-linecap="round"/>
        <g transform="translate(86 -3)">
          <circle r="12.5" fill="#fffbe8" stroke="var(--lg-ink, #1d2230)" stroke-width="1.5"/>
          <path d="M2.5 11.25 A12.5 12.5 0 0 0 11.875 -1.25" fill="none" stroke="#000" stroke-width="1.6" opacity="0.15"/>
          <g><animateTransform class="lg-loop" attributeName="transform" type="scale" values="1 1;1 1;1 0.08;1 1;1 1" keyTimes="0;.9;.94;.98;1" dur="5.3s" repeatCount="indefinite"/>
            <circle cx="0.8" cy="1.6" r="8.0" fill="#9be23a" stroke="var(--lg-ink, #1d2230)" stroke-width="0.8"/>
            <circle cx="1" cy="2" r="5.2" fill="#1a2a05"/>
            <circle cx="-2.5" cy="-0.6" r="2.4" fill="#fff"/>
            <circle cx="3.8" cy="5.2" r="1.0" fill="#fff"/>
          </g>
          
        </g>
      </g>
      </g>
    </g></g>
    <!-- upper lobe: the hood -->
    <path d="M4 54 C8 24 34 6 60 6 C86 6 112 24 116 54 C96 46 24 46 4 54Z" fill="#5fb57a" stroke="var(--lg-ink, #1d2230)" stroke-width="2.2" stroke-linejoin="round"/>
    <path d="M60 6 C86 6 112 24 116 54 C108 51 98 49 88 48 C88 30 78 14 60 10Z" fill="#000" opacity="0.22"/>
    <path d="M20 46 C20 28 36 14 54 11 C40 20 30 32 28 46Z" fill="#fff" opacity="0.25"/>
    <path d="M24 40 C30 30 34 24 42 18 M96 40 C90 30 86 24 78 18 M60 10 V18" fill="none" stroke="var(--lg-ink, #1d2230)" stroke-width="0.8" opacity="0.45"/>
    <!-- nostrils, sniffing toward you -->
    <g transform="translate(54.5 40)"><g><animateTransform class="lg-loop" attributeName="transform" type="scale" values="1 1;1 1;1.4 1.5;1 1;1.4 1.5;1 1" keyTimes="0;.5;.6;.7;.8;1" dur="2.6s" repeatCount="indefinite"/>
      <ellipse rx="1.9" ry="1.1" transform="rotate(-20)" fill="#1a3a20" stroke="var(--lg-ink, #1d2230)" stroke-width="0.6"/></g></g>
    <g transform="translate(65.5 40)"><g><animateTransform class="lg-loop" attributeName="transform" type="scale" values="1 1;1 1;1.4 1.5;1 1;1.4 1.5;1 1" keyTimes="0;.5;.6;.7;.8;1" dur="2.6s" repeatCount="indefinite"/>
      <ellipse rx="1.9" ry="1.1" transform="rotate(20)" fill="#1a3a20" stroke="var(--lg-ink, #1d2230)" stroke-width="0.6"/></g></g>
    <g fill="#ffe680" stroke="var(--lg-ink, #1d2230)" stroke-width="0.3">
      <circle cx="44" cy="46" r="1" style="transform-box:fill-box;transform-origin:center"><animateTransform class="lg-loop" attributeName="transform" type="translate" values="0 0;8 -12" dur="1.3s" repeatCount="indefinite"/><animateTransform class="lg-loop" attributeName="transform" type="scale" values="0.01;1;0.01" dur="1.3s" repeatCount="indefinite" additive="sum"/></circle>
      <circle cx="76" cy="46" r="0.9" style="transform-box:fill-box;transform-origin:center"><animateTransform class="lg-loop" attributeName="transform" type="translate" values="0 0;-8 -12" dur="1.3s" begin="0.6s" repeatCount="indefinite"/><animateTransform class="lg-loop" attributeName="transform" type="scale" values="0.01;1;0.01" dur="1.3s" begin="0.6s" repeatCount="indefinite" additive="sum"/></circle>
    </g>
    <!-- rim cilia: long thorns along the hood's edge -->
    <g fill="#e8d7b0" stroke="var(--lg-ink, #1d2230)" stroke-width="0.6" stroke-linejoin="round">
      <path d="M6 52 L-8 50 L6 55Z M7 44 L-6 38 L8 47Z M10 36 L0 28 L11 39Z M114 52 L128 50 L114 55Z M113 44 L126 38 L112 47Z M110 36 L120 28 L109 39Z"/>
    </g>
  </g>
  </g>
  </g>
  <!-- butterflies, just out of reach of the side traps -->
  <g transform="translate(10 20)"><g>
    <animateTransform class="lg-loop" attributeName="transform" type="translate" values="0 0;2 -4;4 1;2 4;0 0" dur="3.2s" repeatCount="indefinite"/>
    <g><animateTransform class="lg-loop" attributeName="transform" type="scale" values="1 1;0.25 1;1 1" dur="0.36s" repeatCount="indefinite"/>
      <path d="M0 0 C-3 -6 -8 -6 -7 -1 C-6 1 -3 1 0 0Z M0 0 C3 -6 8 -6 7 -1 C6 1 3 1 0 0Z" fill="#ffd23f" stroke="var(--lg-ink, #1d2230)" stroke-width="0.6" stroke-linejoin="round"/>
      <path d="M0 0 C-2 3 -5 5 -5 2 C-4.6 0.6 -2 0.4 0 0Z M0 0 C2 3 5 5 5 2 C4.6 0.6 2 0.4 0 0Z" fill="#ff9a3c" stroke="var(--lg-ink, #1d2230)" stroke-width="0.6" stroke-linejoin="round"/>
    </g>
    <ellipse rx="0.8" ry="3" fill="var(--lg-ink, #1d2230)"/>
    <path d="M0 -3 L-1.4 -5.4 M0 -3 L1.4 -5.4" stroke="var(--lg-ink, #1d2230)" stroke-width="0.4"/>
  </g></g>
  <g transform="translate(110 18)"><g>
    <animateTransform class="lg-loop" attributeName="transform" type="translate" values="0 0;-2 -4;-4 1;-2 4;0 0" dur="3.6s" repeatCount="indefinite"/>
    <g><animateTransform class="lg-loop" attributeName="transform" type="scale" values="1 1;0.25 1;1 1" dur="0.36s" repeatCount="indefinite"/>
      <path d="M0 0 C-3 -6 -8 -6 -7 -1 C-6 1 -3 1 0 0Z M0 0 C3 -6 8 -6 7 -1 C6 1 3 1 0 0Z" fill="#8fd3ff" stroke="var(--lg-ink, #1d2230)" stroke-width="0.6" stroke-linejoin="round"/>
      <path d="M0 0 C-2 3 -5 5 -5 2 C-4.6 0.6 -2 0.4 0 0Z M0 0 C2 3 5 5 5 2 C4.6 0.6 2 0.4 0 0Z" fill="#c08aff" stroke="var(--lg-ink, #1d2230)" stroke-width="0.6" stroke-linejoin="round"/>
    </g>
    <ellipse rx="0.8" ry="3" fill="var(--lg-ink, #1d2230)"/>
    <path d="M0 -3 L-1.4 -5.4 M0 -3 L1.4 -5.4" stroke="var(--lg-ink, #1d2230)" stroke-width="0.4"/>
  </g></g>
</svg>
