<svg xmlns="http://www.w3.org/2000/svg" viewBox="0 0 120 120">
  <!-- The Tidewalker: a deep-sea gentleman octopus out for an evening stroll on his tentacle legs, a great wave curling
       over him like a doorway he just stepped through. A long, tattered naval greatcoat over a waistcoat, a scarf of
       kelp, a lantern held high with a glowing lure inside, a driftwood cane, a brass monocle on a chain. The face is
       eerily polite: huge gold eyes with flat octopus pupils under heavy lids, one solid brow ridge lifted over the
       monocle, a beard of short curling tentacles hiding the mouth. Mid-stride: one leg planted, the rear leg lifted.
       Entrance: the legs stride, the lantern arm swings up, the eyes open, the beard unfurls, the lures light. -->
  <g><animateTransform class="lg-loop" attributeName="transform" type="rotate" values="0 120 124;-1.6 120 124;0 120 124" dur="6.5s" repeatCount="indefinite"/>
    <path d="M136 126 L136 46 C136 8 112 -18 76 -20 C46 -21 22 -8 12 10 C8 18 12 27 21 25 C28 23 27 15 33 10 C44 2 64 -1 82 7 C98 15 106 34 106 62 L106 126Z" fill="#4fa3c7" stroke="var(--lg-ink, #1d2230)" stroke-width="1.8" stroke-linejoin="round"/>
    <path d="M106 126 L106 62 C106 34 98 15 82 7 C66 0 48 1 36 8 C54 4 76 8 90 22 C100 34 113 52 114 80 L114 126Z" fill="#000" opacity="0.22"/>
    <path d="M136 46 C136 14 116 -12 84 -17 C108 -8 124 14 126 44 L128 126 L136 126Z" fill="#fff" opacity="0.18"/>
    <g fill="none" stroke="#fff" stroke-linecap="round" opacity="0.4" stroke-width="0.9"><path d="M118 40 C120 60 122 84 122 110"/><path d="M126 30 C129 52 130 80 130 108"/><path d="M112 22 C116 30 118 40 118 50"/></g>
    <!-- foam crest -->
    <path d="M14 12 C18 2 30 -8 44 -13 C58 -18 82 -19 100 -12 C116 -6 128 6 134 22 L130 24 C126 14 118 4 104 -2 C88 -9 66 -10 50 -6 C36 -2 26 6 22 15 C20 20 16 18 14 12Z" fill="#eef8fb" stroke="var(--lg-ink, #1d2230)" stroke-width="1" stroke-linejoin="round"/>
    <g fill="#eef8fb" stroke="var(--lg-ink, #1d2230)" stroke-width="0.7"><circle cx="20" cy="22" r="2.4"/><circle cx="25" cy="17" r="1.6"/><circle cx="131" cy="27" r="2"/><circle cx="96" cy="-9" r="1.6"/></g>
    <path d="M30 -2 C44 -10 70 -14 92 -10" fill="none" stroke="#8fc7df" stroke-width="1" stroke-linecap="round" opacity="0.9"/>
  </g>
  <!-- little lantern-fish inside the wave -->
  <g fill="#1f6f99" stroke="var(--lg-ink, #1d2230)" stroke-width="0.5" stroke-linejoin="round">
    <g transform="translate(122 66)"><g><animateTransform class="lg-loop" attributeName="transform" type="translate" values="0 0;-1 -12;0 0" dur="5.2s" repeatCount="indefinite"/><path d="M-3 0 C-1.6 -2.2 1.6 -2.2 3 0 C1.6 2.2 -1.6 2.2 -3 0Z M2.6 0 L5.4 -2 L5.4 2Z" transform="rotate(-80)"/><circle cx="0.6" cy="-1.6" r="0.6" fill="var(--lg-tint-hi,#bffcff)" stroke="none"/></g></g>
    <g transform="translate(128 92)"><g><animateTransform class="lg-loop" attributeName="transform" type="translate" values="0 0;0.6 -9;0 0" dur="4.1s" repeatCount="indefinite"/><path d="M-2.4 0 C-1.2 -1.8 1.2 -1.8 2.4 0 C1.2 1.8 -1.2 1.8 -2.4 0Z M2 0 L4.4 -1.6 L4.4 1.6Z" transform="rotate(-80)"/><circle cx="0.5" cy="-1.2" r="0.5" fill="var(--lg-tint-hi,#bffcff)" stroke="none"/></g></g>
  </g>
  <!-- spray flying off the lip -->
  <g fill="#eef8fb" stroke="var(--lg-ink, #1d2230)" stroke-width="0.5">
    <circle cx="8" cy="6" r="1.6" style="transform-box:fill-box;transform-origin:center"><animateTransform class="lg-loop" attributeName="transform" type="translate" values="0 0;-6 8" dur="1.8s" repeatCount="indefinite"/><animateTransform class="lg-loop" attributeName="transform" type="scale" values="1;1;0.05" dur="1.8s" repeatCount="indefinite" additive="sum"/></circle>
    <circle cx="14" cy="0" r="1.1" style="transform-box:fill-box;transform-origin:center"><animateTransform class="lg-loop" attributeName="transform" type="translate" values="0 0;-8 6" dur="2.3s" repeatCount="indefinite"/><animateTransform class="lg-loop" attributeName="transform" type="scale" values="1;1;0.05" dur="2.3s" repeatCount="indefinite" additive="sum"/></circle>
    <circle cx="4" cy="14" r="1.2" style="transform-box:fill-box;transform-origin:center"><animateTransform class="lg-loop" attributeName="transform" type="translate" values="0 0;-4 10" dur="2s" repeatCount="indefinite"/><animateTransform class="lg-loop" attributeName="transform" type="scale" values="1;1;0.05" dur="2s" repeatCount="indefinite" additive="sum"/></circle>
  </g>
  <path d="M-20 112 C-12 104 -2 104 4 110 C12 116 24 116 34 114 L96 114 C108 112 116 106 126 108 C134 110 140 114 142 120 C144 130 136 138 120 140 L0 140 C-14 140 -22 130 -20 112Z" fill="#8fc7df" stroke="var(--lg-ink, #1d2230)" stroke-width="1.3" stroke-linejoin="round"/>
  <path d="M-20 112 C-12 104 -2 104 4 110 C12 116 24 116 34 114 L96 114 C108 112 116 106 126 108 C134 110 140 114 142 120 C144 130 136 138 120 140 L0 140 C-14 140 -22 130 -20 112Z" fill="#000" opacity="0.12"/>
  <path d="M-16 110 C-9 105 -2 106 2 110 M112 110 C118 107 126 107 132 111" fill="none" stroke="#fff" stroke-width="1.2" stroke-linecap="round" opacity="0.8"/>
  <!-- the tidepool he walks through -->
  <ellipse cx="56" cy="127" rx="62" ry="9" fill="#1f6f99" stroke="var(--lg-ink, #1d2230)" stroke-width="1.4"/>
  <ellipse cx="56" cy="127" rx="62" ry="9" fill="#000" opacity="0.25"/>
  <path d="M2 124 C24 119 90 119 110 124" fill="none" stroke="#fff" stroke-width="0.9" stroke-linecap="round" opacity="0.5"/>
  <g transform="rotate(-3 58 126) translate(58 46) scale(1.2) translate(-58 -46)"><g><animateTransform class="lg-loop" attributeName="transform" type="rotate" values="0 54 114;1.4 54 114;0 54 114;-1.2 54 114;0 54 114" dur="4.4s" repeatCount="indefinite"/>
    <path d="M54.8 90.2 L55 92 L55.2 93.8 L55.2 95.4 L55.1 97 L55 98.5 L54.8 100 L54.5 101.4 L54.1 102.7 L53.7 103.9 L53.1 105 L52.5 106.1 L51.8 107.1 L51 108 L50.2 108.8 L49.6 109.1 L48.9 109.4 L48.2 109.6 L47.6 109.8 L46.9 109.9 L46.4 109.9 L45.9 109.8 L45.5 109.8 L45.2 109.6 L45 109.5 L44.8 109.3 L44.7 109.1 L44.6 108.7 L44.7 108.2 Q44.1 107.5 43.3 107.8 L43.1 108.5 L43.1 109.3 L43.2 110 L43.5 110.6 L44 111.2 L44.6 111.6 L45.3 111.9 L46.1 112.1 L46.9 112.2 L47.8 112.2 L48.7 112.1 L49.7 112 L50.7 111.7 L51.8 111.2 L53.1 110.2 L54.1 109.1 L55.1 108 L56 106.7 L56.8 105.3 L57.4 103.9 L58 102.4 L58.5 100.8 L58.8 99.1 L59.1 97.4 L59.3 95.6 L59.3 93.7 L59.3 91.8 L59.2 89.8Z" fill="#d4483b" stroke="var(--lg-ink, #1d2230)" stroke-width="1.3" stroke-linejoin="round"/><path d="M57 90 L56.8 91.9 L56.9 93.7 L56.9 95.5 L56.8 97.2 L56.6 98.8 L56.4 100.3 L56 101.8 L55.5 103.2 L55 104.5 L54.3 105.7 L53.6 106.9 L52.8 108 L51.9 108.9 L50.9 109.8 L50.1 110.2 L49.2 110.5 L48.4 110.7 L47.7 110.8 L46.9 110.9 L46.3 110.8 L45.7 110.7 L45.1 110.5 L44.7 110.3 L44.4 110 L44.1 109.6 L44 109.1 L44 108.6 L44.1 108 L44.7 108.2 L44.6 108.7 L44.7 109.1 L44.8 109.3 L45 109.5 L45.2 109.6 L45.5 109.8 L45.9 109.8 L46.4 109.9 L46.9 109.9 L47.6 109.8 L48.2 109.6 L48.9 109.4 L49.6 109.1 L50.2 108.8 L51 108 L51.8 107.1 L52.5 106.1 L53.1 105 L53.7 103.9 L54.1 102.7 L54.5 101.4 L54.8 100 L55 98.5 L55.1 97 L55.2 95.4 L55.2 93.8 L55 92 L54.8 90.2Z" fill="#000" opacity="0.22"/><path d="M58.3 93.7 L58.2 95.5 L58.1 97.3 L57.9 99 L57.5 100.6 L57.1 102.1 L56.6 103.6 L56 105 L55.3 106.3 L54.5 107.5 L53.6 108.6 L52.5 109.6 L51.4 110.6 L50.4 111 L49.5 111.3 L48.6 111.5 L47.8 111.6 L46.9 111.6 L46.2 111.6 L45.5 111.4" fill="none" stroke="#fff" stroke-width="0.8" stroke-linecap="round" opacity="0.45"/><g fill="#ffd0c0" stroke="var(--lg-ink, #1d2230)" stroke-width="0.35"><circle cx="56.3" cy="97.1" r="0.7"/><circle cx="54.6" cy="104.3" r="0.6"/><circle cx="49.9" cy="109.8" r="0.5"/><circle cx="46.3" cy="110.5" r="0.4"/></g>
    <g><animateTransform class="lg-in" attributeName="transform" type="rotate" values="24 70 88;24 70 88;-8 70 88;0 70 88" keyTimes="0;.42;.68;1" dur="1.5s" fill="freeze"/><g><animateTransform class="lg-loop" attributeName="transform" type="rotate" values="0 70 88;-7 70 88;0 70 88;3 70 88;0 70 88"  dur="3.6s" repeatCount="indefinite"/>
      <path d="M64.3 89.4 L66.1 91.6 L68 93.7 L70 95.7 L72 97.6 L74.2 99.3 L76.4 100.9 L78.7 102.2 L81 103.4 L83.4 104.3 L85.9 105.1 L88.4 105.5 L90.9 105.7 L93.4 105.5 L95.9 105 L98.1 104.2 L100 103.2 L101.7 102.1 L103.2 100.7 L104.4 99.3 L105.5 97.7 L106.3 96 L106.9 94.3 L107.1 92.5 L107.1 90.7 L106.7 88.9 L106 87.2 L105 85.7 L103.6 84.2 L102.2 83.5 L101.1 83.4 L100 83.4 L99 83.7 L98.2 84.2 L97.5 84.8 L97 85.6 L96.7 86.4 L96.5 87.2 L96.6 88 L96.8 88.8 L97.3 89.5 L97.9 90.1 L98.6 90.5 Q99.4 90.4 99.4 89.5 L99 89 L98.9 88.6 L98.9 88.2 L98.9 87.9 L99.1 87.7 L99.3 87.6 L99.5 87.4 L99.7 87.4 L99.9 87.4 L100.1 87.4 L100.3 87.5 L100.4 87.6 L100.5 87.8 L100.4 87.8 L100.9 88.6 L101.2 89.4 L101.3 90.2 L101.3 90.9 L101.2 91.7 L100.9 92.5 L100.4 93.2 L99.9 94 L99.2 94.7 L98.4 95.3 L97.4 95.9 L96.4 96.4 L95.2 96.8 L94.1 97 L92.7 97.1 L91.3 97 L89.9 96.7 L88.4 96.2 L86.9 95.6 L85.4 94.8 L83.8 93.8 L82.3 92.6 L80.8 91.3 L79.3 89.8 L77.8 88.2 L76.4 86.5 L75 84.6 L73.7 82.6Z" fill="#d4483b" stroke="var(--lg-ink, #1d2230)" stroke-width="1.3" stroke-linejoin="round"/><path d="M69 86 L71.2 87.6 L72.8 89.5 L74.5 91.4 L76.2 93.1 L78 94.7 L79.8 96.1 L81.6 97.4 L83.5 98.4 L85.4 99.3 L87.3 100 L89.2 100.4 L91.1 100.7 L93 100.7 L94.9 100.4 L96.4 99.9 L97.9 99.3 L99.2 98.5 L100.4 97.6 L101.4 96.6 L102.3 95.6 L102.9 94.4 L103.4 93.2 L103.7 92 L103.8 90.8 L103.6 89.6 L103.2 88.5 L102.6 87.3 L101.8 86.3 L101.2 86 L100.7 85.8 L100.2 85.8 L99.7 85.8 L99.2 86 L98.8 86.3 L98.4 86.6 L98.2 87 L98 87.5 L97.9 88 L98 88.5 L98.2 89 L98.5 89.5 L99.1 89.9 L99.4 89.5 L99 89 L98.9 88.6 L98.9 88.2 L98.9 87.9 L99.1 87.7 L99.3 87.6 L99.5 87.4 L99.7 87.4 L99.9 87.4 L100.1 87.4 L100.3 87.5 L100.4 87.6 L100.5 87.8 L100.4 87.8 L100.9 88.6 L101.2 89.4 L101.3 90.2 L101.3 90.9 L101.2 91.7 L100.9 92.5 L100.4 93.2 L99.9 94 L99.2 94.7 L98.4 95.3 L97.4 95.9 L96.4 96.4 L95.2 96.8 L94.1 97 L92.7 97.1 L91.3 97 L89.9 96.7 L88.4 96.2 L86.9 95.6 L85.4 94.8 L83.8 93.8 L82.3 92.6 L80.8 91.3 L79.3 89.8 L77.8 88.2 L76.4 86.5 L75 84.6 L73.7 82.6Z" fill="#000" opacity="0.22"/><path d="M71.9 93.8 L73.8 95.6 L75.8 97.3 L77.9 98.8 L80 100.1 L82.1 101.2 L84.3 102.2 L86.5 102.9 L88.7 103.3 L91 103.5 L93.2 103.4 L95.5 103 L97.4 102.3 L99.1 101.5 L100.6 100.5 L102 99.4 L103.1 98.1 L104.1 96.8 L104.8 95.3 L105.4 93.8 L105.6 92.3 L105.6 90.7 L105.4 89.2 L104.8 87.8 L104 86.4 L102.8 85.1 L101.8 84.6 L100.9 84.4 L100.1 84.4 L99.3 84.7" fill="none" stroke="#fff" stroke-width="0.8" stroke-linecap="round" opacity="0.45"/><g fill="#ffd0c0" stroke="var(--lg-ink, #1d2230)" stroke-width="0.35"><circle cx="80.6" cy="95" r="1.8"/><circle cx="89.4" cy="99.3" r="1.6"/><circle cx="98.7" cy="97.7" r="1.3"/><circle cx="102.6" cy="93" r="1.1"/><circle cx="101.3" cy="86.7" r="0.9"/><circle cx="99.4" cy="86.4" r="0.6"/></g>
    </g></g>
    <path d="M58.8 90.5 L59.3 92.5 L59.9 94.4 L60.6 96.2 L61.3 98 L62.1 99.6 L62.9 101.2 L63.9 102.7 L64.9 104.2 L66 105.5 L67.1 106.7 L68.3 107.8 L69.6 108.8 L70.9 109.6 L72.3 110.3 L73.4 110.7 L74.4 111 L75.4 111.1 L76.3 111.1 L77.2 111 L78 110.7 L78.7 110.4 L79.4 109.9 L79.9 109.3 L80.2 108.6 L80.4 107.9 L80.3 107.1 L80 106.3 L79.6 105.7 Q78.7 105.5 78.4 106.3 L78.6 106.9 L78.7 107.3 L78.7 107.7 L78.5 107.9 L78.3 108.1 L78.1 108.2 L77.8 108.4 L77.3 108.5 L76.8 108.5 L76.3 108.5 L75.7 108.4 L75 108.3 L74.4 108 L73.7 107.7 L72.6 107 L71.5 106.2 L70.5 105.3 L69.6 104.3 L68.7 103.2 L67.9 102 L67.1 100.8 L66.4 99.4 L65.7 97.9 L65.1 96.4 L64.6 94.8 L64.1 93.1 L63.6 91.3 L63.2 89.5Z" fill="#d4483b" stroke="var(--lg-ink, #1d2230)" stroke-width="1.3" stroke-linejoin="round"/><path d="M61 90 L61.1 92 L61.7 93.8 L62.3 95.6 L62.9 97.3 L63.6 98.9 L64.4 100.5 L65.3 101.9 L66.2 103.3 L67.1 104.5 L68.2 105.7 L69.3 106.7 L70.4 107.7 L71.6 108.5 L72.9 109.2 L73.8 109.6 L74.6 109.8 L75.5 110 L76.3 110 L77 109.9 L77.7 109.8 L78.3 109.5 L78.8 109.2 L79.2 108.8 L79.5 108.3 L79.6 107.8 L79.6 107.2 L79.4 106.6 L79.1 106 L79.6 105.7 L80 106.3 L80.3 107.1 L80.4 107.9 L80.2 108.6 L79.9 109.3 L79.4 109.9 L78.7 110.4 L78 110.7 L77.2 111 L76.3 111.1 L75.4 111.1 L74.4 111 L73.4 110.7 L72.3 110.3 L70.9 109.6 L69.6 108.8 L68.3 107.8 L67.1 106.7 L66 105.5 L64.9 104.2 L63.9 102.7 L62.9 101.2 L62.1 99.6 L61.3 98 L60.6 96.2 L59.9 94.4 L59.3 92.5 L58.8 90.5Z" fill="#000" opacity="0.22"/><path d="M63 93.4 L63.6 95.1 L64.2 96.8 L64.8 98.4 L65.5 99.8 L66.3 101.3 L67.1 102.6 L68 103.8 L69 104.9 L70 105.9 L71 106.8 L72.2 107.6 L73.3 108.3 L74.1 108.7 L74.9 108.9 L75.6 109.1 L76.3 109.2 L76.9 109.1 L77.5 109 L78 108.9" fill="none" stroke="#fff" stroke-width="0.8" stroke-linecap="round" opacity="0.45"/><g fill="#ffd0c0" stroke="var(--lg-ink, #1d2230)" stroke-width="0.35"><circle cx="62.4" cy="97.5" r="0.7"/><circle cx="65.8" cy="103.5" r="0.7"/><circle cx="71.4" cy="108.9" r="0.6"/><circle cx="75.4" cy="110.3" r="0.5"/><circle cx="78.5" cy="109.8" r="0.4"/></g>
    <path d="M50.7 89.8 L50.6 91.7 L50.6 93.7 L50.6 95.6 L50.8 97.4 L51 99.1 L51.4 100.8 L51.8 102.4 L52.3 103.9 L52.9 105.3 L53.5 106.6 L54.3 107.9 L55.1 109 L56 110.1 L57 111.1 L58 111.7 L58.9 112 L59.8 112.1 L60.7 112.1 L61.5 111.9 L62.2 111.7 L62.9 111.3 L63.5 110.9 L64 110.3 L64.3 109.6 L64.4 108.8 L64.3 108.1 L64 107.3 L63.6 106.7 Q62.7 106.5 62.4 107.3 L62.6 107.9 L62.7 108.3 L62.7 108.7 L62.5 108.9 L62.4 109.1 L62.1 109.3 L61.8 109.4 L61.5 109.5 L61.1 109.6 L60.6 109.5 L60.2 109.4 L59.7 109.3 L59.3 109.1 L59 108.9 L58.4 108.1 L57.7 107.2 L57.2 106.2 L56.6 105.1 L56.2 103.9 L55.8 102.7 L55.5 101.4 L55.2 100 L55 98.6 L54.9 97 L54.9 95.4 L54.9 93.8 L55.1 92 L55.3 90.2Z" fill="#d4483b" stroke="var(--lg-ink, #1d2230)" stroke-width="1.3" stroke-linejoin="round"/><path d="M53 90 L53.2 91.9 L53.1 93.7 L53.1 95.5 L53.2 97.2 L53.3 98.8 L53.6 100.3 L53.9 101.8 L54.3 103.2 L54.8 104.5 L55.3 105.7 L55.9 106.9 L56.6 108 L57.4 108.9 L58.1 109.8 L58.7 110.2 L59.4 110.4 L60 110.6 L60.7 110.6 L61.2 110.6 L61.8 110.4 L62.3 110.2 L62.7 110 L63 109.6 L63.3 109.2 L63.4 108.7 L63.4 108.2 L63.2 107.7 L62.9 107.1 L62.4 107.3 L62.6 107.9 L62.7 108.3 L62.7 108.7 L62.5 108.9 L62.4 109.1 L62.1 109.3 L61.8 109.4 L61.5 109.5 L61.1 109.6 L60.6 109.5 L60.2 109.4 L59.7 109.3 L59.3 109.1 L59 108.9 L58.4 108.1 L57.7 107.2 L57.2 106.2 L56.6 105.1 L56.2 103.9 L55.8 102.7 L55.5 101.4 L55.2 100 L55 98.6 L54.9 97 L54.9 95.4 L54.9 93.8 L55.1 92 L55.3 90.2Z" fill="#000" opacity="0.22"/><path d="M51.7 93.7 L51.7 95.5 L51.8 97.3 L52 99 L52.3 100.6 L52.7 102.1 L53.2 103.6 L53.7 104.9 L54.3 106.2 L55 107.5 L55.8 108.6 L56.6 109.6 L57.5 110.6 L58.3 111 L59.1 111.3 L59.9 111.4 L60.7 111.4 L61.4 111.3 L62 111.2 L62.6 110.9" fill="none" stroke="#fff" stroke-width="0.8" stroke-linecap="round" opacity="0.45"/><g fill="#ffd0c0" stroke="var(--lg-ink, #1d2230)" stroke-width="0.35"><circle cx="53.7" cy="97.1" r="0.7"/><circle cx="54.8" cy="103" r="0.7"/><circle cx="57.7" cy="108.7" r="0.6"/><circle cx="60.1" cy="110.2" r="0.5"/><circle cx="62.2" cy="110" r="0.4"/></g>
    <g><animateTransform class="lg-in" attributeName="transform" type="rotate" values="32 46 88;32 46 88;-7 46 88;0 46 88" keyTimes="0;.34;.6;1" dur="1.5s" fill="freeze"/>
      <path d="M40.2 83.8 L39.5 86.1 L38.7 88.3 L37.9 90.4 L37 92.4 L36.1 94.4 L35.1 96.3 L34.1 98.1 L33 99.7 L31.8 101.3 L30.6 102.7 L29.4 104 L28.1 105.1 L26.7 106.1 L25.3 107 L24 107.5 L22.7 108.1 L21.4 108.5 L20.1 108.8 L19 109 L18 109.1 L17.1 109.1 L16.4 109.1 L15.8 109 L15.4 108.9 L15.2 108.8 L14.9 108.7 L14.7 108.4 L14.5 108.2 L14.5 108.2 L14.5 107.8 L14.6 107.5 L14.8 107.2 L14.9 107 L15.1 106.8 L15.4 106.6 L15.6 106.5 L15.9 106.5 L16.2 106.5 L16.5 106.6 L16.8 106.9 L17.1 107.4 L17.3 108.1 Q18.1 108.6 18.7 107.9 L18.7 107 L18.6 106.2 L18.3 105.3 L17.8 104.6 L17.1 104 L16.3 103.6 L15.4 103.4 L14.4 103.3 L13.5 103.5 L12.5 103.9 L11.6 104.5 L10.8 105.3 L10.1 106.2 L9.5 107.8 L9.5 109.6 L9.9 111.1 L10.6 112.5 L11.7 113.7 L13 114.7 L14.4 115.4 L15.9 115.9 L17.5 116.2 L19.2 116.4 L20.9 116.4 L22.7 116.3 L24.6 116 L26.6 115.6 L28.7 115 L31.1 114 L33.3 112.7 L35.4 111.3 L37.4 109.8 L39.2 108 L41 106.2 L42.7 104.2 L44.2 102.1 L45.7 99.9 L47.1 97.7 L48.4 95.4 L49.6 93 L50.8 90.6 L51.8 88.2Z" fill="#d4483b" stroke="var(--lg-ink, #1d2230)" stroke-width="1.3" stroke-linejoin="round"/><path d="M46 86 L44.3 88 L43.3 90.3 L42.4 92.5 L41.3 94.7 L40.2 96.8 L39 98.8 L37.7 100.7 L36.4 102.5 L35 104.1 L33.5 105.7 L31.9 107.1 L30.3 108.4 L28.6 109.5 L26.7 110.4 L25.1 111 L23.5 111.4 L22 111.8 L20.5 112 L19.1 112.1 L17.8 112.1 L16.6 112 L15.5 111.8 L14.6 111.4 L13.9 110.9 L13.2 110.4 L12.8 109.7 L12.5 108.9 L12.4 108 L12.6 107.3 L12.9 106.7 L13.3 106.2 L13.8 105.8 L14.3 105.5 L14.8 105.3 L15.4 105.2 L15.9 105.3 L16.4 105.4 L16.9 105.7 L17.3 106.1 L17.6 106.6 L17.8 107.2 L17.9 108 L17.3 108.1 L17.1 107.4 L16.8 106.9 L16.5 106.6 L16.2 106.5 L15.9 106.5 L15.6 106.5 L15.4 106.6 L15.1 106.8 L14.9 107 L14.8 107.2 L14.6 107.5 L14.5 107.8 L14.5 108.2 L14.5 108.2 L14.7 108.4 L14.9 108.7 L15.2 108.8 L15.4 108.9 L15.8 109 L16.4 109.1 L17.1 109.1 L18 109.1 L19 109 L20.1 108.8 L21.4 108.5 L22.7 108.1 L24 107.5 L25.3 107 L26.7 106.1 L28.1 105.1 L29.4 104 L30.6 102.7 L31.8 101.3 L33 99.7 L34.1 98.1 L35.1 96.3 L36.1 94.4 L37 92.4 L37.9 90.4 L38.7 88.3 L39.5 86.1 L40.2 83.8Z" fill="#000" opacity="0.22"/><path d="M45.8 94.1 L44.6 96.4 L43.3 98.6 L42 100.7 L40.5 102.7 L39 104.6 L37.4 106.3 L35.7 108 L33.9 109.5 L32 110.8 L30 112 L27.9 113 L25.9 113.6 L24.1 114 L22.4 114.3 L20.7 114.5 L19.1 114.5 L17.6 114.4 L16.2 114.2 L14.9 113.8 L13.7 113.2 L12.6 112.5 L11.8 111.6 L11.2 110.5 L10.8 109.3 L10.7 107.9 L11.2 106.7 L11.7 105.9 L12.3 105.2 L13.1 104.7" fill="none" stroke="#fff" stroke-width="0.8" stroke-linecap="round" opacity="0.45"/><g fill="#ffd0c0" stroke="var(--lg-ink, #1d2230)" stroke-width="0.35"><circle cx="37.8" cy="98" r="1.9"/><circle cx="31.1" cy="106.1" r="1.7"/><circle cx="24.8" cy="109.9" r="1.5"/><circle cx="17.8" cy="111.2" r="1.3"/><circle cx="13.9" cy="109.9" r="1.1"/><circle cx="13.2" cy="107.6" r="0.9"/><circle cx="14.9" cy="105.8" r="0.6"/></g>
    </g>
    <g fill="#eef8fb" stroke="var(--lg-ink, #1d2230)" stroke-width="0.5"><path d="M8 114 C10 110 12 110 14 113 C16 109 19 109 20 114Z"/></g>
    <!-- the long tattered greatcoat -->
    <path d="M38 54 C30 56 25 62 25 70 L23 92 L27 89 L30 96 L34 90 L38 97 L42 91 L47 98 L51 92 L56 98 L61 92 L66 99 L70 92 L75 98 L79 91 L84 97 L88 90 L93 96 L97 89 L95 70 C94 62 89 56 80 54Z" fill="#1f6f99" stroke="var(--lg-ink, #1d2230)" stroke-width="1.8" stroke-linejoin="round"/>
    <path d="M38 54 C30 56 25 62 25 70 L23 92 L27 89 L30 96 L34 90 L38 97 L42 91 L47 98 L51 92 L56 98 L61 92 L66 99 L70 92 L75 98 L79 91 L84 97 L88 90 L93 96 L97 89 L95 70 C94 62 89 56 80 54Z" fill="#000" opacity="0.32"/>
    <path d="M80 54 C89 56 94 62 95 70 L97 89 L93 96 L88 90 L86 72 C86 64 84 58 78 55Z" fill="#000" opacity="0.25"/>
    <path d="M36 56 C30 59 27 64 27 72 L26 88 L29 86 L30 72 C30 64 33 59 38 57Z" fill="#fff" opacity="0.22"/>
    <!-- seams, pocket flaps, a patch, tears and barnacles on the hem -->
    <g fill="none" stroke="var(--lg-ink, #1d2230)" stroke-linecap="round" stroke-width="0.8" opacity="0.7"><path d="M34 66 C33 74 33 82 34 89"/><path d="M84 66 C86 74 86 82 85 88"/></g>
    <path d="M28 78 L39 78 L39 82 L28 82Z M80 78 L91 78 L91 82 L80 82Z" fill="#1f6f99" stroke="var(--lg-ink, #1d2230)" stroke-width="0.8" stroke-linejoin="round"/>
    <path d="M28 78 L39 78 L39 82 L28 82Z M80 78 L91 78 L91 82 L80 82Z" fill="#000" opacity="0.18"/>
    <path d="M86 84 L92 83 L92.6 88 L86.8 89Z" fill="#8fc7df" stroke="var(--lg-ink, #1d2230)" stroke-width="0.7" stroke-linejoin="round" opacity="0.9"/>
    <g fill="#ece4cc" stroke="var(--lg-ink, #1d2230)" stroke-width="0.5"><circle cx="33" cy="88.4" r="1.2"/><circle cx="35" cy="89.6" r="0.8"/><circle cx="81.4" cy="89" r="1.1"/></g>
    <!-- waistcoat and lapels -->
    <path d="M50 56 L66 56 L68 80 L63 86 L58 82 L53 86 L48 80Z" fill="#2bb3a0" stroke="var(--lg-ink, #1d2230)" stroke-width="1.2" stroke-linejoin="round"/>
    <path d="M58 56 L66 56 L68 80 L63 86 L58 82Z" fill="#000" opacity="0.2"/>
    <g fill="none" stroke="var(--lg-ink, #1d2230)" stroke-width="0.5" opacity="0.45"><path d="M53 60 L53 80"/><path d="M63 60 L63 80"/></g>
    <path d="M44 54 L51 56 L49 81 L41 67 L35 58Z" fill="#1f6f99" stroke="var(--lg-ink, #1d2230)" stroke-width="1.1" stroke-linejoin="round"/>
    <path d="M72 54 L65 56 L67 81 L75 67 L81 58Z" fill="#1f6f99" stroke="var(--lg-ink, #1d2230)" stroke-width="1.1" stroke-linejoin="round"/>
    <path d="M72 54 L65 56 L67 81 L75 67 L81 58Z" fill="#000" opacity="0.2"/>
    <path d="M44 54 L51 56 L50 66 L42 60Z" fill="#fff" opacity="0.2"/>
    <g fill="#e0b040" stroke="var(--lg-ink, #1d2230)" stroke-width="0.5"><circle cx="58" cy="72" r="1.3"/><circle cx="58" cy="77.6" r="1.3"/><circle cx="40" cy="70" r="1.2"/><circle cx="76" cy="70" r="1.2"/><circle cx="41" cy="76" r="1.2"/><circle cx="76.6" cy="76" r="1.2"/></g>
    <!-- a starfish pinned to the lapel -->
    <path d="M44 59.4 L45 62 L47.8 62.2 L45.6 63.8 L46.4 66.6 L44 65 L41.6 66.6 L42.4 63.8 L40.2 62.2 L43 62Z" fill="#ff9a5c" stroke="var(--lg-ink, #1d2230)" stroke-width="0.6" stroke-linejoin="round"/>
    <g fill="#fff3d6"><circle cx="44" cy="62.6" r="0.4"/><circle cx="44" cy="64.2" r="0.35"/></g>
    <!-- the collar standing up behind the head -->
    <path d="M29 39 L42 53 L74 53 L89 39 L86 57 L32 57Z" fill="#1f6f99" stroke="var(--lg-ink, #1d2230)" stroke-width="1.4" stroke-linejoin="round"/>
    <path d="M29 39 L42 53 L74 53 L89 39 L86 57 L32 57Z" fill="#000" opacity="0.15"/>
    <path d="M89 39 L86 57 L80 57 L84 46Z" fill="#000" opacity="0.25"/>
    <path d="M29 39 L36 50 L33 55Z" fill="#fff" opacity="0.18"/>
    <g><animateTransform class="lg-loop" attributeName="transform" type="rotate" values="0 58 52;-2.2 58 52;0 58 52;1.4 58 52;0 58 52" dur="6.2s" repeatCount="indefinite"/>
      <!-- mantle and face -->
      <path d="M40 43 C32 33 33 10 46 1 C56 -7 77 -7 85 4 C93 14 89 33 78 43 C79 51 70 56 58 56 C46 56 38 51 40 43Z" fill="#d4483b" stroke="var(--lg-ink, #1d2230)" stroke-width="2" stroke-linejoin="round"/>
      <path d="M85 4 C93 14 89 33 78 43 C79 51 70 56 60 56 C70 50 74 42 76 34 C80 22 82 12 85 4Z" fill="#000" opacity="0.24"/>
      <path d="M46 1 C56 -7 70 -7 78 -2 C66 -4 54 0 46 10 C40 18 38 28 40 38 C34 28 36 10 46 1Z" fill="#fff" opacity="0.28"/>
      <!-- mottling and warts -->
      <g fill="#9c2c27" opacity="0.55"><circle cx="58" cy="6" r="2.4"/><circle cx="66" cy="14" r="1.8"/><circle cx="52" cy="18" r="1.6"/><circle cx="74" cy="6" r="1.4"/><circle cx="78" cy="24" r="2"/><circle cx="44" cy="22" r="1.3"/><circle cx="60" cy="24" r="1.2"/><circle cx="70" cy="28" r="1.4"/></g>
      <g fill="#ff8f7c" opacity="0.8"><circle cx="57.4" cy="5.4" r="0.7"/><circle cx="77.4" cy="23.4" r="0.6"/><circle cx="65.4" cy="13.4" r="0.5"/></g>
      <g fill="#ece4cc" stroke="var(--lg-ink, #1d2230)" stroke-width="0.5"><circle cx="81" cy="30" r="1.5"/><circle cx="83.4" cy="27.4" r="1"/><circle cx="78.6" cy="33" r="0.9"/></g>
      <g fill="#6b6253"><circle cx="81" cy="30" r="0.5"/><circle cx="83.4" cy="27.4" r="0.35"/></g>
      <!-- eye mounds -->
      <path d="M39.4 41 C38 34 42 30 48 30 C54 30 58 34 57 41 C56 46 52 48 48 48 C44 48 40 46 39.4 41Z" fill="#d4483b" stroke="var(--lg-ink, #1d2230)" stroke-width="1.3"/>
      <path d="M59.4 40 C58 33 62 29 68 29 C74 29 78 33 77 40 C76 45 72 47 68 47 C64 47 60 45 59.4 40Z" fill="#d4483b" stroke="var(--lg-ink, #1d2230)" stroke-width="1.3"/>
      <path d="M40 41 C41 46 45 48 49 48 C44 47 41 44 40 41Z M76 40 C76 45 72 47 68 47 C73 46 75 43 76 40Z" fill="#000" opacity="0.25"/>

      <g transform="translate(48 39) scale(1)"><g><animateTransform class="lg-in" attributeName="transform" type="scale" values="1 0.05;1 0.05;1.12 1.25;1 1" keyTimes="0;.56;.74;1" dur="1.5s" fill="freeze"/><g><animateTransform class="lg-loop" attributeName="transform" type="scale" values="1 1;1 1;1 0.08;1 1" dur="7.5s" repeatCount="indefinite" keyTimes="0;.93;.96;1"/>
        <circle r="7.6" fill="#ffe27a" opacity="0.42"/>
        <circle r="6.3" fill="#ffcf3a" stroke="var(--lg-ink, #1d2230)" stroke-width="1"/>
        <circle r="4.6" fill="none" stroke="#e08a1a" stroke-width="0.8"/>
        <path d="M-1.6 0.6 L1.6 0.6 M0 -1.4 L0 2.6" fill="none" stroke="#f4a52a" stroke-width="0.5" opacity="0.7"/>
        <rect x="-3.4" y="-1.5" width="6.8" height="4" rx="2" fill="#140c04"/>
        <path d="M-5.3 -3.6 A6.4 6.4 0 0 1 5.3 -3.6 Q0 -2.2 -5.3 -3.6Z" fill="#d4483b" stroke="var(--lg-ink, #1d2230)" stroke-width="1"/>
        <path d="M-4.2 -3.7 Q0 -2.7 4.2 -3.7" fill="none" stroke="#fff" stroke-width="0.5" opacity="0.35"/>
        <circle cx="-2" cy="-1.6" r="1.2" fill="#fff"/><circle cx="2.4" cy="2.4" r="0.6" fill="#fff" opacity="0.8"/>
      </g></g></g>
      <g transform="translate(68 38) scale(1.12)"><g><animateTransform class="lg-in" attributeName="transform" type="scale" values="1 0.05;1 0.05;1.12 1.25;1 1" keyTimes="0;.58;.76;1" dur="1.5s" fill="freeze"/><g><animateTransform class="lg-loop" attributeName="transform" type="scale" values="1 1;1 1;1 0.08;1 1" dur="7.5s" repeatCount="indefinite" keyTimes="0;.93;.96;1"/>
        <circle r="7.6" fill="#ffe27a" opacity="0.42"/>
        <circle r="6.3" fill="#ffcf3a" stroke="var(--lg-ink, #1d2230)" stroke-width="1"/>
        <circle r="4.6" fill="none" stroke="#e08a1a" stroke-width="0.8"/>
        <path d="M-1.6 0.6 L1.6 0.6 M0 -1.4 L0 2.6" fill="none" stroke="#f4a52a" stroke-width="0.5" opacity="0.7"/>
        <rect x="-3.4" y="-1.5" width="6.8" height="4" rx="2" fill="#140c04"/>
        <path d="M-5.3 -3.6 A6.4 6.4 0 0 1 5.3 -3.6 Q0 -2.2 -5.3 -3.6Z" fill="#d4483b" stroke="var(--lg-ink, #1d2230)" stroke-width="1"/>
        <path d="M-4.2 -3.7 Q0 -2.7 4.2 -3.7" fill="none" stroke="#fff" stroke-width="0.5" opacity="0.35"/>
        <circle cx="-2" cy="-1.6" r="1.2" fill="#fff"/><circle cx="2.4" cy="2.4" r="0.6" fill="#fff" opacity="0.8"/>
      </g></g></g>
      <!-- ONE solid brow ridge: level and calm on the left, lifted over the monocle -->
      <path d="M37 33 C41 27 51 27 57 31 C62 25 73 23 80 28 L79.4 32 C73 27.6 64 28.6 58.6 34.4 C52 31 43 31 38.6 36.4Z" fill="#9c2c27" stroke="var(--lg-ink, #1d2230)" stroke-width="1.3" stroke-linejoin="round"/>
      <path d="M39 32 C43 28.6 50 28.6 55.6 31.6 M60 29.6 C65 26 72 25.6 78 28.4" fill="none" stroke="#fff" stroke-width="0.7" stroke-linecap="round" opacity="0.4"/>
      <!-- the brass monocle -->
      <circle cx="68" cy="38" r="7.8" fill="#dff6ff" opacity="0.16"/>
      <circle cx="68" cy="38" r="7.8" fill="none" stroke="var(--lg-ink, #1d2230)" stroke-width="2.6"/>
      <circle cx="68" cy="38" r="7.8" fill="none" stroke="#e0b040" stroke-width="1.3"/>
      <path d="M63.4 34.4 C64.6 32.8 66.2 32 68 32" fill="none" stroke="#fff" stroke-width="0.8" stroke-linecap="round" opacity="0.8"/>
    </g>
    <!-- the kelp scarf, one end blowing back -->
    <g><animateTransform class="lg-loop" attributeName="transform" type="rotate" values="0 40 55;-6 40 55;0 40 55;3 40 55;0 40 55"  dur="3.1s" repeatCount="indefinite"/>
      <path d="M41 54 C34 53 27 56 20 60 L16 57 L12 63 L16 65 L13 69 L20 67 C28 64 35 60 42 59Z" fill="#3d8a4f" stroke="var(--lg-ink, #1d2230)" stroke-width="1" stroke-linejoin="round"/>
      <path d="M40 56.6 C33 57 26 60 18 64" fill="none" stroke="#245c33" stroke-width="0.7" stroke-linecap="round"/>
    </g>
    <path d="M39 50 C47 56 69 56 79 49 L81 56 C70 63 47 63 37 57Z" fill="#3d8a4f" stroke="var(--lg-ink, #1d2230)" stroke-width="1.1" stroke-linejoin="round"/>
    <path d="M58 58 C66 58 74 56 80 53 L81 56 C72 61 64 62 58 61.6Z" fill="#000" opacity="0.2"/>
    <path d="M42 54.4 C50 58 66 58 76 53.4" fill="none" stroke="#9fe0a8" stroke-width="0.6" stroke-linecap="round" opacity="0.6"/>
    <!-- the monocle's chain to the lapel -->
    <path d="M75.4 41.6 C78 48 77 54 74 60 C72 64 70 66 68 68" fill="none" stroke="#9a6a1c" stroke-width="1.1" stroke-linecap="round" stroke-dasharray="1.2 0.7"/>
    <g><animateTransform class="lg-loop" attributeName="transform" type="rotate" values="0 58 52;-2.2 58 52;0 58 52;1.4 58 52;0 58 52" dur="6.2s" repeatCount="indefinite"/><g transform="translate(58 50)"><g><animateTransform class="lg-in" attributeName="transform" type="scale" values="1 0.3;1 0.3;1.05 1.18;1 1" keyTimes="0;.6;.78;1" dur="1.5s" fill="freeze"/><g transform="translate(-58 -50)">
      <g><animateTransform class="lg-loop" attributeName="transform" type="rotate" values="0 46 51.5;-5 46 51.5;0 46 51.5;4 46 51.5;0 46 51.5"  dur="3.3s" repeatCount="indefinite"/><path d="M43.7 51.1 L43.6 52.2 L43.5 53.4 L43.6 54.5 L43.7 55.6 L43.9 56.5 L44.1 57.5 L44.3 58.3 L44.4 59.1 L44.6 59.8 L44.7 60.5 L44.7 61.1 L44.7 61.7 L44.6 62.2 L44.3 62.9 L44.2 63.3 L44.1 63.5 L44.1 63.6 L44 63.8 L43.9 63.9 L43.9 63.9 L43.8 64 L43.6 64 L43.5 63.9 L43.3 63.8 L43.2 63.7 L43 63.4 L42.9 63 L42.9 62.5 Q42.4 62.1 41.9 62.5 L41.8 63 L41.8 63.6 L41.9 64.2 L42 64.7 L42.3 65.1 L42.7 65.5 L43.2 65.8 L43.7 65.9 L44.3 66 L44.9 65.8 L45.5 65.6 L46 65.2 L46.5 64.7 L46.9 64.1 L47.3 63.3 L47.7 62.4 L47.9 61.4 L48 60.5 L48 59.6 L48 58.7 L47.9 57.8 L47.9 56.9 L47.8 56.1 L47.8 55.2 L47.8 54.4 L47.9 53.6 L48 52.8 L48.3 51.9Z" fill="#d4483b"/><path d="M43.7 51.1 L43.6 52.2 L43.5 53.4 L43.6 54.5 L43.7 55.6 L43.9 56.5 L44.1 57.5 L44.3 58.3 L44.4 59.1 L44.6 59.8 L44.7 60.5 L44.7 61.1 L44.7 61.7 L44.6 62.2 L44.3 62.9 L44.2 63.3 L44.1 63.5 L44.1 63.6 L44 63.8 L43.9 63.9 L43.9 63.9 L43.8 64 L43.6 64 L43.5 63.9 L43.3 63.8 L43.2 63.7 L43 63.4 L42.9 63 L42.9 62.5 Q42.4 62.1 41.9 62.5 L41.8 63 L41.8 63.6 L41.9 64.2 L42 64.7 L42.3 65.1 L42.7 65.5 L43.2 65.8 L43.7 65.9 L44.3 66 L44.9 65.8 L45.5 65.6 L46 65.2 L46.5 64.7 L46.9 64.1 L47.3 63.3 L47.7 62.4 L47.9 61.4 L48 60.5 L48 59.6 L48 58.7 L47.9 57.8 L47.9 56.9 L47.8 56.1 L47.8 55.2 L47.8 54.4 L47.9 53.6 L48 52.8 L48.3 51.9" fill="none" stroke="var(--lg-ink, #1d2230)" stroke-width="0.9" stroke-linejoin="round"/><path d="M46 51.5 L46.1 52.6 L46 53.5 L46 54.5 L46.1 55.4 L46.1 56.3 L46.3 57.1 L46.4 58 L46.5 58.8 L46.6 59.7 L46.6 60.5 L46.5 61.3 L46.4 62.1 L46.2 62.9 L45.8 63.6 L45.5 64.1 L45.2 64.5 L44.9 64.8 L44.5 65 L44.2 65.1 L43.8 65.1 L43.4 65 L43.1 64.9 L42.8 64.6 L42.6 64.3 L42.4 63.9 L42.3 63.5 L42.3 63 L42.3 62.5 L41.9 62.5 L41.8 63 L41.8 63.6 L41.9 64.2 L42 64.7 L42.3 65.1 L42.7 65.5 L43.2 65.8 L43.7 65.9 L44.3 66 L44.9 65.8 L45.5 65.6 L46 65.2 L46.5 64.7 L46.9 64.1 L47.3 63.3 L47.7 62.4 L47.9 61.4 L48 60.5 L48 59.6 L48 58.7 L47.9 57.8 L47.9 56.9 L47.8 56.1 L47.8 55.2 L47.8 54.4 L47.9 53.6 L48 52.8 L48.3 51.9Z" fill="#000" opacity="0.22"/><path d="M44.6 53.4 L44.6 54.5 L44.7 55.5 L44.9 56.4 L45 57.3 L45.2 58.2 L45.3 59 L45.4 59.8 L45.5 60.5 L45.5 61.2 L45.4 61.9 L45.3 62.5 L45 63.2 L44.8 63.6 L44.6 63.9 L44.4 64.1 L44.2 64.3 L44 64.4 L43.8 64.4 L43.6 64.4" fill="none" stroke="#fff" stroke-width="0.5" stroke-linecap="round" opacity="0.45"/><g fill="#ffd0c0" stroke="var(--lg-ink, #1d2230)" stroke-width="0.35"><circle cx="46.6" cy="55.3" r="0.7"/><circle cx="47" cy="61.3" r="0.6"/><circle cx="44.7" cy="65.2" r="0.4"/></g></g>
      <g><animateTransform class="lg-loop" attributeName="transform" type="rotate" values="0 70 51;5 70 51;0 70 51;-4 70 51;0 70 51"  dur="3.7s" repeatCount="indefinite"/><path d="M67.7 51.4 L68 52.3 L68.1 53.1 L68.2 53.9 L68.2 54.7 L68.2 55.6 L68.1 56.4 L68.1 57.3 L68 58.2 L68 59.1 L68 60 L68.1 60.9 L68.3 61.9 L68.7 62.8 L69.1 63.6 L69.5 64.2 L70 64.7 L70.5 65.1 L71.1 65.3 L71.7 65.5 L72.3 65.4 L72.8 65.3 L73.3 65 L73.7 64.6 L74 64.2 L74.1 63.7 L74.2 63.1 L74.2 62.5 L74.1 62 Q73.6 61.6 73.1 62 L73.1 62.5 L73 62.9 L72.8 63.2 L72.7 63.3 L72.5 63.4 L72.4 63.5 L72.2 63.5 L72.1 63.4 L72.1 63.4 L72 63.3 L71.9 63.1 L71.9 63 L71.8 62.8 L71.7 62.4 L71.4 61.7 L71.3 61.2 L71.3 60.6 L71.3 60 L71.4 59.3 L71.6 58.6 L71.7 57.8 L71.9 57 L72.1 56 L72.3 55.1 L72.4 54 L72.5 52.9 L72.4 51.7 L72.3 50.6Z" fill="#d4483b"/><path d="M67.7 51.4 L68 52.3 L68.1 53.1 L68.2 53.9 L68.2 54.7 L68.2 55.6 L68.1 56.4 L68.1 57.3 L68 58.2 L68 59.1 L68 60 L68.1 60.9 L68.3 61.9 L68.7 62.8 L69.1 63.6 L69.5 64.2 L70 64.7 L70.5 65.1 L71.1 65.3 L71.7 65.5 L72.3 65.4 L72.8 65.3 L73.3 65 L73.7 64.6 L74 64.2 L74.1 63.7 L74.2 63.1 L74.2 62.5 L74.1 62 Q73.6 61.6 73.1 62 L73.1 62.5 L73 62.9 L72.8 63.2 L72.7 63.3 L72.5 63.4 L72.4 63.5 L72.2 63.5 L72.1 63.4 L72.1 63.4 L72 63.3 L71.9 63.1 L71.9 63 L71.8 62.8 L71.7 62.4 L71.4 61.7 L71.3 61.2 L71.3 60.6 L71.3 60 L71.4 59.3 L71.6 58.6 L71.7 57.8 L71.9 57 L72.1 56 L72.3 55.1 L72.4 54 L72.5 52.9 L72.4 51.7 L72.3 50.6" fill="none" stroke="var(--lg-ink, #1d2230)" stroke-width="0.9" stroke-linejoin="round"/><path d="M70 51 L69.9 52.1 L70 53 L70 54 L69.9 54.9 L69.9 55.8 L69.7 56.6 L69.6 57.5 L69.5 58.3 L69.4 59.2 L69.4 60 L69.5 60.8 L69.6 61.6 L69.8 62.4 L70.2 63.1 L70.5 63.6 L70.8 64 L71.1 64.3 L71.5 64.5 L71.8 64.6 L72.2 64.6 L72.6 64.5 L72.9 64.4 L73.2 64.1 L73.4 63.8 L73.6 63.4 L73.7 63 L73.7 62.5 L73.7 62 L74.1 62 L74.2 62.5 L74.2 63.1 L74.1 63.7 L74 64.2 L73.7 64.6 L73.3 65 L72.8 65.3 L72.3 65.4 L71.7 65.5 L71.1 65.3 L70.5 65.1 L70 64.7 L69.5 64.2 L69.1 63.6 L68.7 62.8 L68.3 61.9 L68.1 60.9 L68 60 L68 59.1 L68 58.2 L68.1 57.3 L68.1 56.4 L68.2 55.6 L68.2 54.7 L68.2 53.9 L68.1 53.1 L68 52.3 L67.7 51.4Z" fill="#000" opacity="0.22"/><path d="M71.4 52.9 L71.4 54 L71.3 55 L71.1 55.9 L71 56.8 L70.8 57.7 L70.7 58.5 L70.6 59.3 L70.5 60 L70.5 60.7 L70.6 61.4 L70.7 62 L71 62.7 L71.2 63.1 L71.4 63.4 L71.6 63.6 L71.8 63.8 L72 63.9 L72.2 63.9 L72.4 63.9" fill="none" stroke="#fff" stroke-width="0.5" stroke-linecap="round" opacity="0.45"/><g fill="#ffd0c0" stroke="var(--lg-ink, #1d2230)" stroke-width="0.35"><circle cx="69.4" cy="54.8" r="0.7"/><circle cx="69" cy="60.8" r="0.6"/><circle cx="71.3" cy="64.7" r="0.4"/></g></g>
      <g><animateTransform class="lg-loop" attributeName="transform" type="rotate" values="0 50.5 52.5;-5 50.5 52.5;0 50.5 52.5;4 50.5 52.5;0 50.5 52.5"  dur="2.9s" repeatCount="indefinite"/><path d="M48.2 52.1 L48.1 53.4 L48 54.7 L48.1 56 L48.2 57.2 L48.4 58.3 L48.6 59.4 L48.8 60.4 L48.9 61.3 L49.1 62.2 L49.2 63 L49.2 63.8 L49.2 64.5 L49.1 65.2 L48.8 65.9 L48.7 66.3 L48.6 66.5 L48.6 66.6 L48.5 66.8 L48.4 66.9 L48.4 66.9 L48.3 67 L48.1 67 L48 66.9 L47.8 66.8 L47.7 66.7 L47.5 66.4 L47.4 66 L47.4 65.5 Q46.9 65.1 46.4 65.5 L46.3 66 L46.3 66.6 L46.4 67.2 L46.5 67.7 L46.8 68.1 L47.2 68.5 L47.7 68.8 L48.2 68.9 L48.8 69 L49.4 68.8 L50 68.6 L50.5 68.2 L51 67.7 L51.4 67.1 L51.8 66.1 L52.2 65.1 L52.4 64 L52.5 63 L52.5 61.9 L52.5 60.9 L52.4 59.9 L52.4 58.9 L52.3 57.9 L52.3 56.9 L52.3 55.9 L52.4 54.9 L52.5 54 L52.8 52.9Z" fill="#d4483b"/><path d="M48.2 52.1 L48.1 53.4 L48 54.7 L48.1 56 L48.2 57.2 L48.4 58.3 L48.6 59.4 L48.8 60.4 L48.9 61.3 L49.1 62.2 L49.2 63 L49.2 63.8 L49.2 64.5 L49.1 65.2 L48.8 65.9 L48.7 66.3 L48.6 66.5 L48.6 66.6 L48.5 66.8 L48.4 66.9 L48.4 66.9 L48.3 67 L48.1 67 L48 66.9 L47.8 66.8 L47.7 66.7 L47.5 66.4 L47.4 66 L47.4 65.5 Q46.9 65.1 46.4 65.5 L46.3 66 L46.3 66.6 L46.4 67.2 L46.5 67.7 L46.8 68.1 L47.2 68.5 L47.7 68.8 L48.2 68.9 L48.8 69 L49.4 68.8 L50 68.6 L50.5 68.2 L51 67.7 L51.4 67.1 L51.8 66.1 L52.2 65.1 L52.4 64 L52.5 63 L52.5 61.9 L52.5 60.9 L52.4 59.9 L52.4 58.9 L52.3 57.9 L52.3 56.9 L52.3 55.9 L52.4 54.9 L52.5 54 L52.8 52.9" fill="none" stroke="var(--lg-ink, #1d2230)" stroke-width="0.9" stroke-linejoin="round"/><path d="M50.5 52.5 L50.6 53.7 L50.5 54.8 L50.5 55.9 L50.6 57 L50.6 58.1 L50.8 59.1 L50.9 60.1 L51 61.1 L51.1 62 L51.1 63 L51 63.9 L50.9 64.8 L50.7 65.7 L50.3 66.6 L50 67.1 L49.7 67.5 L49.4 67.8 L49 68 L48.7 68.1 L48.3 68.1 L47.9 68 L47.6 67.9 L47.3 67.6 L47.1 67.3 L46.9 66.9 L46.8 66.5 L46.8 66 L46.8 65.5 L46.4 65.5 L46.3 66 L46.3 66.6 L46.4 67.2 L46.5 67.7 L46.8 68.1 L47.2 68.5 L47.7 68.8 L48.2 68.9 L48.8 69 L49.4 68.8 L50 68.6 L50.5 68.2 L51 67.7 L51.4 67.1 L51.8 66.1 L52.2 65.1 L52.4 64 L52.5 63 L52.5 61.9 L52.5 60.9 L52.4 59.9 L52.4 58.9 L52.3 57.9 L52.3 56.9 L52.3 55.9 L52.4 54.9 L52.5 54 L52.8 52.9Z" fill="#000" opacity="0.22"/><path d="M49.1 54.8 L49.1 56 L49.2 57.1 L49.4 58.2 L49.5 59.2 L49.7 60.2 L49.8 61.2 L49.9 62.1 L50 63 L50 63.8 L49.9 64.6 L49.8 65.4 L49.5 66.2 L49.3 66.6 L49.1 66.9 L48.9 67.1 L48.7 67.3 L48.5 67.4 L48.3 67.4 L48.1 67.4" fill="none" stroke="#fff" stroke-width="0.5" stroke-linecap="round" opacity="0.45"/><g fill="#ffd0c0" stroke="var(--lg-ink, #1d2230)" stroke-width="0.35"><circle cx="51.1" cy="57" r="0.7"/><circle cx="51.5" cy="64" r="0.6"/><circle cx="49.2" cy="68.2" r="0.4"/></g></g>
      <g><animateTransform class="lg-loop" attributeName="transform" type="rotate" values="0 65.5 52.2;5 65.5 52.2;0 65.5 52.2;-4 65.5 52.2;0 65.5 52.2"  dur="3.1s" repeatCount="indefinite"/><path d="M63.2 52.6 L63.5 53.7 L63.6 54.6 L63.7 55.6 L63.7 56.6 L63.7 57.6 L63.6 58.6 L63.6 59.6 L63.5 60.6 L63.5 61.6 L63.5 62.7 L63.6 63.7 L63.8 64.8 L64.2 65.8 L64.6 66.8 L65 67.4 L65.5 67.9 L66 68.3 L66.6 68.5 L67.2 68.7 L67.8 68.6 L68.3 68.5 L68.8 68.2 L69.2 67.8 L69.5 67.4 L69.6 66.9 L69.7 66.3 L69.7 65.7 L69.6 65.2 Q69.1 64.8 68.6 65.2 L68.6 65.7 L68.5 66.1 L68.3 66.4 L68.2 66.5 L68 66.6 L67.9 66.7 L67.7 66.7 L67.6 66.6 L67.6 66.6 L67.5 66.5 L67.4 66.3 L67.4 66.2 L67.3 66 L67.2 65.6 L66.9 64.9 L66.8 64.2 L66.8 63.5 L66.8 62.7 L66.9 61.9 L67.1 61 L67.2 60.1 L67.4 59.1 L67.6 58 L67.8 56.9 L67.9 55.7 L68 54.4 L67.9 53.1 L67.8 51.8Z" fill="#d4483b"/><path d="M63.2 52.6 L63.5 53.7 L63.6 54.6 L63.7 55.6 L63.7 56.6 L63.7 57.6 L63.6 58.6 L63.6 59.6 L63.5 60.6 L63.5 61.6 L63.5 62.7 L63.6 63.7 L63.8 64.8 L64.2 65.8 L64.6 66.8 L65 67.4 L65.5 67.9 L66 68.3 L66.6 68.5 L67.2 68.7 L67.8 68.6 L68.3 68.5 L68.8 68.2 L69.2 67.8 L69.5 67.4 L69.6 66.9 L69.7 66.3 L69.7 65.7 L69.6 65.2 Q69.1 64.8 68.6 65.2 L68.6 65.7 L68.5 66.1 L68.3 66.4 L68.2 66.5 L68 66.6 L67.9 66.7 L67.7 66.7 L67.6 66.6 L67.6 66.6 L67.5 66.5 L67.4 66.3 L67.4 66.2 L67.3 66 L67.2 65.6 L66.9 64.9 L66.8 64.2 L66.8 63.5 L66.8 62.7 L66.9 61.9 L67.1 61 L67.2 60.1 L67.4 59.1 L67.6 58 L67.8 56.9 L67.9 55.7 L68 54.4 L67.9 53.1 L67.8 51.8" fill="none" stroke="var(--lg-ink, #1d2230)" stroke-width="0.9" stroke-linejoin="round"/><path d="M65.5 52.2 L65.4 53.4 L65.5 54.5 L65.5 55.6 L65.4 56.7 L65.4 57.8 L65.2 58.8 L65.1 59.8 L65 60.8 L64.9 61.7 L64.9 62.7 L65 63.6 L65.1 64.5 L65.3 65.4 L65.7 66.3 L66 66.8 L66.3 67.2 L66.6 67.5 L67 67.7 L67.3 67.8 L67.7 67.8 L68.1 67.7 L68.4 67.6 L68.7 67.3 L68.9 67 L69.1 66.6 L69.2 66.2 L69.2 65.7 L69.2 65.2 L69.6 65.2 L69.7 65.7 L69.7 66.3 L69.6 66.9 L69.5 67.4 L69.2 67.8 L68.8 68.2 L68.3 68.5 L67.8 68.6 L67.2 68.7 L66.6 68.5 L66 68.3 L65.5 67.9 L65 67.4 L64.6 66.8 L64.2 65.8 L63.8 64.8 L63.6 63.7 L63.5 62.7 L63.5 61.6 L63.5 60.6 L63.6 59.6 L63.6 58.6 L63.7 57.6 L63.7 56.6 L63.7 55.6 L63.6 54.6 L63.5 53.7 L63.2 52.6Z" fill="#000" opacity="0.22"/><path d="M66.9 54.5 L66.9 55.7 L66.8 56.8 L66.6 57.9 L66.5 58.9 L66.3 59.9 L66.2 60.9 L66.1 61.8 L66 62.7 L66 63.5 L66.1 64.3 L66.2 65.1 L66.5 65.9 L66.7 66.3 L66.9 66.6 L67.1 66.8 L67.3 67 L67.5 67.1 L67.7 67.1 L67.9 67.1" fill="none" stroke="#fff" stroke-width="0.5" stroke-linecap="round" opacity="0.45"/><g fill="#ffd0c0" stroke="var(--lg-ink, #1d2230)" stroke-width="0.35"><circle cx="64.9" cy="56.7" r="0.7"/><circle cx="64.5" cy="63.7" r="0.6"/><circle cx="66.8" cy="67.9" r="0.4"/></g></g>
      <g><animateTransform class="lg-loop" attributeName="transform" type="rotate" values="0 54.5 53.4;-5 54.5 53.4;0 54.5 53.4;4 54.5 53.4;0 54.5 53.4"  dur="3.5s" repeatCount="indefinite"/><path d="M52.2 53.1 L52.1 54.6 L52 56.1 L52.1 57.6 L52.2 59 L52.4 60.4 L52.6 61.6 L52.8 62.9 L52.9 64 L53.1 65.1 L53.2 66.1 L53.2 67.1 L53.2 68.1 L53 69 L52.8 69.9 L52.7 70.2 L52.6 70.4 L52.6 70.5 L52.5 70.7 L52.4 70.8 L52.4 70.8 L52.3 70.9 L52.1 70.9 L52 70.8 L51.8 70.7 L51.7 70.6 L51.5 70.3 L51.4 69.9 L51.4 69.4 Q50.9 69 50.4 69.4 L50.3 69.9 L50.3 70.5 L50.4 71.1 L50.5 71.6 L50.8 72 L51.2 72.4 L51.7 72.7 L52.2 72.8 L52.8 72.9 L53.4 72.7 L54 72.5 L54.5 72.1 L55 71.6 L55.4 70.9 L55.9 69.8 L56.2 68.6 L56.4 67.4 L56.5 66.1 L56.5 64.9 L56.5 63.7 L56.4 62.5 L56.4 61.2 L56.3 60 L56.3 58.8 L56.3 57.6 L56.4 56.3 L56.5 55.1 L56.8 53.7Z" fill="#d4483b"/><path d="M52.2 53.1 L52.1 54.6 L52 56.1 L52.1 57.6 L52.2 59 L52.4 60.4 L52.6 61.6 L52.8 62.9 L52.9 64 L53.1 65.1 L53.2 66.1 L53.2 67.1 L53.2 68.1 L53 69 L52.8 69.9 L52.7 70.2 L52.6 70.4 L52.6 70.5 L52.5 70.7 L52.4 70.8 L52.4 70.8 L52.3 70.9 L52.1 70.9 L52 70.8 L51.8 70.7 L51.7 70.6 L51.5 70.3 L51.4 69.9 L51.4 69.4 Q50.9 69 50.4 69.4 L50.3 69.9 L50.3 70.5 L50.4 71.1 L50.5 71.6 L50.8 72 L51.2 72.4 L51.7 72.7 L52.2 72.8 L52.8 72.9 L53.4 72.7 L54 72.5 L54.5 72.1 L55 71.6 L55.4 70.9 L55.9 69.8 L56.2 68.6 L56.4 67.4 L56.5 66.1 L56.5 64.9 L56.5 63.7 L56.4 62.5 L56.4 61.2 L56.3 60 L56.3 58.8 L56.3 57.6 L56.4 56.3 L56.5 55.1 L56.8 53.7" fill="none" stroke="var(--lg-ink, #1d2230)" stroke-width="0.9" stroke-linejoin="round"/><path d="M54.5 53.4 L54.6 54.9 L54.5 56.2 L54.5 57.6 L54.6 58.9 L54.6 60.2 L54.8 61.4 L54.9 62.6 L55 63.8 L55.1 65 L55.1 66.1 L55 67.3 L54.9 68.4 L54.7 69.4 L54.3 70.5 L54 71 L53.7 71.4 L53.4 71.7 L53 71.9 L52.7 72 L52.3 72 L51.9 71.9 L51.6 71.8 L51.3 71.5 L51.1 71.2 L50.9 70.8 L50.8 70.4 L50.8 69.9 L50.8 69.4 L50.4 69.4 L50.3 69.9 L50.3 70.5 L50.4 71.1 L50.5 71.6 L50.8 72 L51.2 72.4 L51.7 72.7 L52.2 72.8 L52.8 72.9 L53.4 72.7 L54 72.5 L54.5 72.1 L55 71.6 L55.4 70.9 L55.9 69.8 L56.2 68.6 L56.4 67.4 L56.5 66.1 L56.5 64.9 L56.5 63.7 L56.4 62.5 L56.4 61.2 L56.3 60 L56.3 58.8 L56.3 57.6 L56.4 56.3 L56.5 55.1 L56.8 53.7Z" fill="#000" opacity="0.22"/><path d="M53.1 56.2 L53.1 57.6 L53.2 59 L53.4 60.3 L53.5 61.5 L53.7 62.8 L53.8 63.9 L53.9 65.1 L54 66.1 L54 67.2 L53.9 68.2 L53.8 69.2 L53.4 70.1 L53.3 70.5 L53.1 70.8 L52.9 71 L52.7 71.2 L52.5 71.3 L52.3 71.3 L52.1 71.3" fill="none" stroke="#fff" stroke-width="0.5" stroke-linecap="round" opacity="0.45"/><g fill="#ffd0c0" stroke="var(--lg-ink, #1d2230)" stroke-width="0.35"><circle cx="55.1" cy="58.9" r="0.7"/><circle cx="55.5" cy="67.3" r="0.6"/><circle cx="53.2" cy="72.1" r="0.4"/></g></g>
      <g><animateTransform class="lg-loop" attributeName="transform" type="rotate" values="0 61.5 53.2;5 61.5 53.2;0 61.5 53.2;-4 61.5 53.2;0 61.5 53.2"  dur="2.7s" repeatCount="indefinite"/><path d="M59.2 53.5 L59.5 54.9 L59.6 56.1 L59.7 57.4 L59.7 58.6 L59.7 59.8 L59.6 61 L59.6 62.3 L59.5 63.5 L59.5 64.7 L59.5 65.9 L59.6 67.2 L59.8 68.4 L60.1 69.6 L60.6 70.7 L61 71.4 L61.5 71.9 L62 72.3 L62.6 72.5 L63.2 72.7 L63.8 72.6 L64.3 72.5 L64.8 72.2 L65.2 71.8 L65.5 71.4 L65.6 70.9 L65.7 70.3 L65.7 69.7 L65.6 69.2 Q65.1 68.8 64.6 69.2 L64.6 69.7 L64.5 70.1 L64.3 70.4 L64.2 70.5 L64 70.6 L63.9 70.7 L63.7 70.7 L63.6 70.6 L63.6 70.6 L63.5 70.5 L63.4 70.3 L63.4 70.2 L63.3 70 L63.2 69.7 L63 68.8 L62.8 67.9 L62.8 66.9 L62.8 65.9 L62.9 64.9 L63.1 63.8 L63.2 62.7 L63.4 61.4 L63.6 60.2 L63.8 58.8 L63.9 57.4 L64 55.9 L63.9 54.4 L63.8 52.9Z" fill="#d4483b"/><path d="M59.2 53.5 L59.5 54.9 L59.6 56.1 L59.7 57.4 L59.7 58.6 L59.7 59.8 L59.6 61 L59.6 62.3 L59.5 63.5 L59.5 64.7 L59.5 65.9 L59.6 67.2 L59.8 68.4 L60.1 69.6 L60.6 70.7 L61 71.4 L61.5 71.9 L62 72.3 L62.6 72.5 L63.2 72.7 L63.8 72.6 L64.3 72.5 L64.8 72.2 L65.2 71.8 L65.5 71.4 L65.6 70.9 L65.7 70.3 L65.7 69.7 L65.6 69.2 Q65.1 68.8 64.6 69.2 L64.6 69.7 L64.5 70.1 L64.3 70.4 L64.2 70.5 L64 70.6 L63.9 70.7 L63.7 70.7 L63.6 70.6 L63.6 70.6 L63.5 70.5 L63.4 70.3 L63.4 70.2 L63.3 70 L63.2 69.7 L63 68.8 L62.8 67.9 L62.8 66.9 L62.8 65.9 L62.9 64.9 L63.1 63.8 L63.2 62.7 L63.4 61.4 L63.6 60.2 L63.8 58.8 L63.9 57.4 L64 55.9 L63.9 54.4 L63.8 52.9" fill="none" stroke="var(--lg-ink, #1d2230)" stroke-width="0.9" stroke-linejoin="round"/><path d="M61.5 53.2 L61.4 54.7 L61.5 56 L61.5 57.4 L61.4 58.7 L61.4 60 L61.2 61.2 L61.1 62.4 L61 63.6 L60.9 64.8 L60.9 65.9 L61 67.1 L61.1 68.2 L61.3 69.2 L61.7 70.3 L62 70.8 L62.3 71.2 L62.6 71.5 L63 71.7 L63.3 71.8 L63.7 71.8 L64.1 71.7 L64.4 71.6 L64.7 71.3 L64.9 71 L65.1 70.6 L65.2 70.2 L65.2 69.7 L65.2 69.2 L65.6 69.2 L65.7 69.7 L65.7 70.3 L65.6 70.9 L65.5 71.4 L65.2 71.8 L64.8 72.2 L64.3 72.5 L63.8 72.6 L63.2 72.7 L62.6 72.5 L62 72.3 L61.5 71.9 L61 71.4 L60.6 70.7 L60.1 69.6 L59.8 68.4 L59.6 67.2 L59.5 65.9 L59.5 64.7 L59.5 63.5 L59.6 62.3 L59.6 61 L59.7 59.8 L59.7 58.6 L59.7 57.4 L59.6 56.1 L59.5 54.9 L59.2 53.5Z" fill="#000" opacity="0.22"/><path d="M62.9 56 L62.9 57.4 L62.8 58.8 L62.6 60.1 L62.5 61.3 L62.3 62.6 L62.2 63.7 L62.1 64.9 L62 65.9 L62 67 L62.1 68 L62.2 69 L62.6 69.9 L62.7 70.3 L62.9 70.6 L63.1 70.8 L63.3 71 L63.5 71.1 L63.7 71.1 L63.9 71.1" fill="none" stroke="#fff" stroke-width="0.5" stroke-linecap="round" opacity="0.45"/><g fill="#ffd0c0" stroke="var(--lg-ink, #1d2230)" stroke-width="0.35"><circle cx="60.9" cy="58.7" r="0.7"/><circle cx="60.5" cy="67.1" r="0.6"/><circle cx="62.8" cy="71.9" r="0.4"/></g></g>
      <g><animateTransform class="lg-loop" attributeName="transform" type="rotate" values="0 58 54;5 58 54;0 58 54;-4 58 54;0 58 54"  dur="3.9s" repeatCount="indefinite"/><path d="M55.7 54.3 L56 55.8 L56.1 57.2 L56.2 58.7 L56.2 60.1 L56.2 61.4 L56.1 62.8 L56.1 64.2 L56 65.5 L56 66.9 L56 68.2 L56.1 69.6 L56.3 70.9 L56.6 72.2 L57.1 73.5 L57.5 74.2 L58 74.7 L58.5 75.1 L59.1 75.3 L59.7 75.5 L60.3 75.4 L60.8 75.3 L61.3 75 L61.7 74.6 L62 74.2 L62.1 73.7 L62.2 73.1 L62.2 72.5 L62.1 72 Q61.6 71.6 61.1 72 L61.1 72.5 L61 72.9 L60.8 73.2 L60.7 73.3 L60.5 73.4 L60.4 73.5 L60.2 73.5 L60.1 73.4 L60.1 73.4 L60 73.3 L59.9 73.1 L59.9 73 L59.8 72.8 L59.7 72.5 L59.5 71.5 L59.3 70.4 L59.3 69.4 L59.3 68.2 L59.4 67.1 L59.6 65.8 L59.7 64.5 L59.9 63.2 L60.1 61.8 L60.3 60.3 L60.4 58.7 L60.5 57.1 L60.4 55.4 L60.3 53.7Z" fill="#d4483b"/><path d="M55.7 54.3 L56 55.8 L56.1 57.2 L56.2 58.7 L56.2 60.1 L56.2 61.4 L56.1 62.8 L56.1 64.2 L56 65.5 L56 66.9 L56 68.2 L56.1 69.6 L56.3 70.9 L56.6 72.2 L57.1 73.5 L57.5 74.2 L58 74.7 L58.5 75.1 L59.1 75.3 L59.7 75.5 L60.3 75.4 L60.8 75.3 L61.3 75 L61.7 74.6 L62 74.2 L62.1 73.7 L62.2 73.1 L62.2 72.5 L62.1 72 Q61.6 71.6 61.1 72 L61.1 72.5 L61 72.9 L60.8 73.2 L60.7 73.3 L60.5 73.4 L60.4 73.5 L60.2 73.5 L60.1 73.4 L60.1 73.4 L60 73.3 L59.9 73.1 L59.9 73 L59.8 72.8 L59.7 72.5 L59.5 71.5 L59.3 70.4 L59.3 69.4 L59.3 68.2 L59.4 67.1 L59.6 65.8 L59.7 64.5 L59.9 63.2 L60.1 61.8 L60.3 60.3 L60.4 58.7 L60.5 57.1 L60.4 55.4 L60.3 53.7" fill="none" stroke="var(--lg-ink, #1d2230)" stroke-width="0.9" stroke-linejoin="round"/><path d="M58 54 L57.9 55.6 L58 57.2 L58 58.7 L57.9 60.1 L57.9 61.6 L57.7 63 L57.6 64.3 L57.5 65.7 L57.4 67 L57.4 68.2 L57.5 69.5 L57.6 70.7 L57.8 71.9 L58.2 73.1 L58.5 73.6 L58.8 74 L59.1 74.3 L59.5 74.5 L59.8 74.6 L60.2 74.6 L60.6 74.5 L60.9 74.4 L61.2 74.1 L61.4 73.8 L61.6 73.4 L61.7 73 L61.7 72.5 L61.7 72 L62.1 72 L62.2 72.5 L62.2 73.1 L62.1 73.7 L62 74.2 L61.7 74.6 L61.3 75 L60.8 75.3 L60.3 75.4 L59.7 75.5 L59.1 75.3 L58.5 75.1 L58 74.7 L57.5 74.2 L57.1 73.5 L56.6 72.2 L56.3 70.9 L56.1 69.6 L56 68.2 L56 66.9 L56 65.5 L56.1 64.2 L56.1 62.8 L56.2 61.4 L56.2 60.1 L56.2 58.7 L56.1 57.2 L56 55.8 L55.7 54.3Z" fill="#000" opacity="0.22"/><path d="M59.4 57.1 L59.4 58.7 L59.3 60.2 L59.1 61.7 L59 63.1 L58.8 64.4 L58.7 65.8 L58.6 67 L58.5 68.2 L58.5 69.4 L58.6 70.6 L58.8 71.7 L59.1 72.8 L59.2 73.1 L59.4 73.4 L59.6 73.6 L59.8 73.8 L60 73.9 L60.2 73.9 L60.4 73.9" fill="none" stroke="#fff" stroke-width="0.5" stroke-linecap="round" opacity="0.45"/><g fill="#ffd0c0" stroke="var(--lg-ink, #1d2230)" stroke-width="0.35"><circle cx="57.4" cy="60.1" r="0.7"/><circle cx="57" cy="69.5" r="0.6"/><circle cx="59.3" cy="74.7" r="0.4"/></g></g>
    </g></g></g></g>
    <!-- the beard grows OUT of the lower face: a soft shadow where the tentacles emerge, the face skin over their roots -->
    <g><animateTransform class="lg-loop" attributeName="transform" type="rotate" values="0 58 52;-2.2 58 52;0 58 52;1.4 58 52;0 58 52" dur="6.2s" repeatCount="indefinite"/>
      <path d="M42.6 53 C47 58.8 69 58.8 74.4 52.6 C72 60.4 66 61.4 58 61.4 C49 61.4 44 60 42.6 53Z" fill="#000" opacity="0.2"/>
      <path d="M41.5 48 C45 50 52 50.2 58 50 C64 50.2 71 49.6 75.5 47.5 C77 52 72 59 58 59.2 C44 59 40 52 41.5 48Z" fill="#d4483b"/>
      <path d="M75.5 47.5 C77 52 72 59 60 59.2 C68 56 72 52 73 48.4Z" fill="#000" opacity="0.24"/>
      <path d="M40.4 47.4 C39.8 51.8 42 55.2 46.6 57.4 C43.6 54.6 42.4 51.6 42.6 48.4Z M76.6 46.8 C77.4 51.2 75.2 55 70.4 57.4 C73.4 54.6 74.6 51.4 74.4 47.8Z" fill="var(--lg-ink, #1d2230)"/>
      <path d="M44 50.6 C47 54 52 56 56 56.6" fill="none" stroke="#fff" stroke-width="0.7" stroke-linecap="round" opacity="0.25"/>
    </g>
    <!-- left arm: a tentacle out of the sleeve, curled round the cane -->
    <path d="M38 57 C27 59 21 67 20 80 L31 82 C31 72 34 66 41 63Z" fill="#1f6f99" stroke="var(--lg-ink, #1d2230)" stroke-width="1.4" stroke-linejoin="round"/>
    <path d="M38 57 C27 59 21 67 20 80 L31 82 C31 72 34 66 41 63Z" fill="#000" opacity="0.3"/>
    <path d="M36 58.4 C28 61 23 67 22 76" fill="none" stroke="#fff" stroke-width="0.8" stroke-linecap="round" opacity="0.3"/>
    <path d="M9 116 L14.4 86.6 L17.4 87.2 L12 116.4Z" fill="#7a5230" stroke="var(--lg-ink, #1d2230)" stroke-width="1" stroke-linejoin="round"/>
    <path d="M11.2 112 L15.4 90" fill="none" stroke="#c2955e" stroke-width="0.5" stroke-linecap="round" opacity="0.8"/>
    <circle cx="16" cy="85.6" r="3.2" fill="#efe4c8" stroke="var(--lg-ink, #1d2230)" stroke-width="1"/>
    <circle cx="15" cy="84.6" r="1" fill="#fff"/>
    <path d="M19.4 78 L32 80.6 L31 86 L28.4 84 L25.6 87 L23 84.2 L19.6 86Z" fill="#1f6f99" stroke="var(--lg-ink, #1d2230)" stroke-width="1" stroke-linejoin="round"/>
    <path d="M22.3 83.4 L22.1 84.5 L21.9 85.3 L21.6 86 L21.3 86.7 L20.9 87.2 L20.5 87.6 L20.1 88 L19.6 88.3 L19.1 88.5 L18.6 88.7 L18.1 88.8 L17.6 88.8 L17 88.7 L16.5 88.5 L16.2 88.3 L15.8 88.1 L15.6 87.8 L15.3 87.5 L15.2 87.2 L15.1 86.9 L15.1 86.6 L15.1 86.3 L15.2 86 L15.4 85.8 L15.6 85.5 L15.9 85.3 L16.4 85.2 L17 85.1 Q17.6 84.4 17 83.7 L16.3 83.6 L15.5 83.7 L14.7 83.9 L14.1 84.2 L13.5 84.7 L13 85.3 L12.7 86 L12.5 86.8 L12.5 87.6 L12.6 88.4 L12.9 89.2 L13.3 90 L13.9 90.8 L14.7 91.5 L15.7 92.1 L16.7 92.5 L17.8 92.7 L18.9 92.8 L20.1 92.7 L21.2 92.4 L22.3 92 L23.4 91.4 L24.4 90.6 L25.3 89.7 L26.1 88.6 L26.8 87.3 L27.3 86 L27.7 84.6Z" fill="#d4483b" stroke="var(--lg-ink, #1d2230)" stroke-width="1" stroke-linejoin="round"/><path d="M25 84 L25.1 85.3 L24.7 86.5 L24.2 87.5 L23.6 88.4 L22.9 89.2 L22.2 89.8 L21.4 90.3 L20.5 90.7 L19.7 90.9 L18.8 91 L17.9 91 L17.1 90.9 L16.2 90.6 L15.5 90.2 L14.8 89.7 L14.4 89.2 L14 88.6 L13.8 88 L13.6 87.4 L13.6 86.8 L13.7 86.3 L13.9 85.7 L14.2 85.3 L14.6 84.9 L15.1 84.6 L15.7 84.4 L16.3 84.3 L17 84.3 L17 83.7 L16.3 83.6 L15.5 83.7 L14.7 83.9 L14.1 84.2 L13.5 84.7 L13 85.3 L12.7 86 L12.5 86.8 L12.5 87.6 L12.6 88.4 L12.9 89.2 L13.3 90 L13.9 90.8 L14.7 91.5 L15.7 92.1 L16.7 92.5 L17.8 92.7 L18.9 92.8 L20.1 92.7 L21.2 92.4 L22.3 92 L23.4 91.4 L24.4 90.6 L25.3 89.7 L26.1 88.6 L26.8 87.3 L27.3 86 L27.7 84.6Z" fill="#000" opacity="0.22"/><path d="M23.1 85.8 L22.7 86.7 L22.3 87.4 L21.8 88 L21.2 88.6 L20.6 89 L20 89.3 L19.4 89.6 L18.7 89.7 L18 89.7 L17.4 89.7 L16.7 89.5 L16.1 89.3 L15.6 88.9 L15.2 88.5 L14.9 88.1 L14.7 87.7 L14.5 87.3 L14.5 86.9 L14.5 86.4" fill="none" stroke="#fff" stroke-width="0.8" stroke-linecap="round" opacity="0.45"/><g fill="#ffd0c0" stroke="var(--lg-ink, #1d2230)" stroke-width="0.35"><circle cx="24.1" cy="88.8" r="0.9"/><circle cx="17.9" cy="91.6" r="0.7"/><circle cx="13.4" cy="88.1" r="0.5"/></g>
    <!-- right arm: holds the lantern high (swings up on the entrance) -->
    <g><animateTransform class="lg-in" attributeName="transform" type="rotate" values="100 86 58;100 86 58;-12 86 58;0 86 58" keyTimes="0;.46;.7;1" dur="1.5s" fill="freeze"/>
      <path d="M80 55 C88 53 92 48 94 40 L102 43.6 C100 54 94 62 87 64Z" fill="#1f6f99" stroke="var(--lg-ink, #1d2230)" stroke-width="1.4" stroke-linejoin="round"/>
      <path d="M94 50 C98 46 101 44 102 43.6 C100 54 94 62 87 64 C91 58 93 54 94 50Z" fill="#000" opacity="0.3"/>
      <path d="M93 39.4 L103 43.4 L101.4 46.6 L99.4 45 L97.4 46.8 L95.6 44.4 L92.6 44.6Z" fill="#1f6f99" stroke="var(--lg-ink, #1d2230)" stroke-width="0.9" stroke-linejoin="round"/>
      <path d="M100.8 43.4 L100.9 42.2 L101 41 L101.2 39.9 L101.5 38.8 L101.8 37.7 L102.2 36.6 L102.7 35.6 L103.2 34.6 L103.7 33.6 L104.3 32.6 L104.9 31.7 L105.5 30.8 L106.1 30 L106.8 29.2 L107.2 28.8 L107.6 28.4 L108.1 28 L108.5 27.8 L108.9 27.6 L109.3 27.5 L109.6 27.4 L109.9 27.4 L110.1 27.4 L110.3 27.5 L110.5 27.6 L110.7 27.9 L110.8 28.3 L110.8 28.9 Q111.3 29.5 112 29.1 L112.1 28.3 L112.2 27.6 L112 26.9 L111.7 26.3 L111.2 25.7 L110.6 25.3 L109.9 25.1 L109.2 25 L108.4 25 L107.6 25.2 L106.8 25.4 L106 25.7 L105.2 26.2 L104.4 26.8 L103.5 27.5 L102.7 28.4 L101.8 29.3 L101 30.2 L100.2 31.3 L99.4 32.3 L98.7 33.5 L98 34.7 L97.4 35.9 L96.8 37.2 L96.3 38.5 L95.8 39.9 L95.5 41.3 L95.2 42.6Z" fill="#d4483b" stroke="var(--lg-ink, #1d2230)" stroke-width="1" stroke-linejoin="round"/><path d="M98 43 L97.8 41.7 L98 40.4 L98.4 39.1 L98.8 37.9 L99.3 36.7 L99.8 35.5 L100.4 34.4 L101 33.3 L101.7 32.2 L102.4 31.2 L103.1 30.3 L103.9 29.4 L104.6 28.6 L105.4 27.8 L106.1 27.3 L106.7 26.9 L107.4 26.5 L108 26.3 L108.6 26.1 L109.2 26 L109.8 26.1 L110.3 26.2 L110.7 26.4 L111.1 26.8 L111.4 27.2 L111.5 27.7 L111.6 28.3 L111.5 29 L112 29.1 L112.1 28.3 L112.2 27.6 L112 26.9 L111.7 26.3 L111.2 25.7 L110.6 25.3 L109.9 25.1 L109.2 25 L108.4 25 L107.6 25.2 L106.8 25.4 L106 25.7 L105.2 26.2 L104.4 26.8 L103.5 27.5 L102.7 28.4 L101.8 29.3 L101 30.2 L100.2 31.3 L99.4 32.3 L98.7 33.5 L98 34.7 L97.4 35.9 L96.8 37.2 L96.3 38.5 L95.8 39.9 L95.5 41.3 L95.2 42.6Z" fill="#000" opacity="0.22"/><path d="M99.7 40.8 L100 39.6 L100.3 38.4 L100.7 37.3 L101.2 36.1 L101.7 35.1 L102.2 34 L102.8 33 L103.4 32 L104.1 31.1 L104.8 30.2 L105.5 29.4 L106.2 28.6 L106.7 28.1 L107.2 27.7 L107.8 27.4 L108.3 27.1 L108.8 26.9 L109.3 26.8 L109.7 26.8" fill="none" stroke="#fff" stroke-width="0.8" stroke-linecap="round" opacity="0.45"/><g fill="#ffd0c0" stroke="var(--lg-ink, #1d2230)" stroke-width="0.35"><circle cx="98.2" cy="37.6" r="0.9"/><circle cx="102.7" cy="30" r="0.7"/><circle cx="107.9" cy="25.9" r="0.5"/></g>
      <!-- the lantern swings from its ring -->
      <g><animateTransform class="lg-loop" attributeName="transform" type="rotate" values="0 107 27;7 107 27;0 107 27;-6 107 27;0 107 27"  dur="3.2s" repeatCount="indefinite"/>
        <circle cx="107" cy="27.4" r="2.2" fill="none" stroke="var(--lg-ink, #1d2230)" stroke-width="1.6"/><circle cx="107" cy="27.4" r="2.2" fill="none" stroke="#e0b040" stroke-width="0.8"/>
        <path d="M103 32.6 L105 29.4 L109 29.4 L111 32.6Z" fill="#e0b040" stroke="var(--lg-ink, #1d2230)" stroke-width="0.9" stroke-linejoin="round"/>
        <rect x="102.6" y="32.4" width="8.8" height="11.6" rx="1.2" fill="#0d2a33" stroke="var(--lg-ink, #1d2230)" stroke-width="1"/>
        <g transform="translate(107 38)"><g><animateTransform class="lg-in" attributeName="transform" type="scale" values="0.02;0.02;1.6;1" keyTimes="0;.6;.78;1" dur="1.5s" fill="freeze"/>
          <circle r="5.8" fill="var(--lg-tint,#3ff0ff)" opacity="0.42"><animateTransform class="lg-loop" attributeName="transform" type="scale" values="1;1.3;1" dur="1.5s" repeatCount="indefinite"/></circle>
          <circle r="3.4" fill="var(--lg-tint-hi,#bffcff)"/>
          <path d="M-1.6 1.6 C-2.2 3 -1.4 3.6 -0.6 3.2 M1.4 1.8 C2 3.2 1.2 3.8 0.4 3.4" fill="none" stroke="var(--lg-tint,#3ff0ff)" stroke-width="0.6" stroke-linecap="round"/>
          <circle cx="-1" cy="-1" r="1" fill="#fff"/>
        </g></g>
        <path d="M105 32.6 L105 44 M109 32.6 L109 44" fill="none" stroke="#e0b040" stroke-width="0.8"/>
        <path d="M102.4 44 L111.6 44 L110 46.6 L104 46.6Z" fill="#e0b040" stroke="var(--lg-ink, #1d2230)" stroke-width="0.9" stroke-linejoin="round"/>
        <path d="M103.4 33.6 L103.4 42" fill="none" stroke="#fff" stroke-width="0.6" stroke-linecap="round" opacity="0.5"/>
        <!-- a drip from its base -->
        <path d="M107 47.4 C106 49 106.2 50.4 107 50.4 C107.8 50.4 108 49 107 47.4Z" fill="#9fe6ff" stroke="var(--lg-ink, #1d2230)" stroke-width="0.4" style="transform-box:fill-box;transform-origin:center"><animateTransform class="lg-loop" attributeName="transform" type="translate" values="0 0;0 10" dur="1.7s" repeatCount="indefinite"/><animateTransform class="lg-loop" attributeName="transform" type="scale" values="1;1;0.05" dur="1.7s" repeatCount="indefinite" additive="sum"/></path>
      </g>
    </g>
    <path d="M30 96.6 C29 98.19999999999999 29.2 99.6 30 99.6 C30.8 99.6 31 98.19999999999999 30 96.6Z" fill="#9fe6ff" stroke="var(--lg-ink, #1d2230)" stroke-width="0.4" style="transform-box:fill-box;transform-origin:center"><animateTransform class="lg-loop" attributeName="transform" type="translate" values="0 0;0 9" dur="1.6s" repeatCount="indefinite" begin="0s"/><animateTransform class="lg-loop" attributeName="transform" type="scale" values="1;1;0.05" dur="1.6s" repeatCount="indefinite" additive="sum" begin="0s"/></path><path d="M66 99.6 C65 101.19999999999999 65.2 102.6 66 102.6 C66.8 102.6 67 101.19999999999999 66 99.6Z" fill="#9fe6ff" stroke="var(--lg-ink, #1d2230)" stroke-width="0.4" style="transform-box:fill-box;transform-origin:center"><animateTransform class="lg-loop" attributeName="transform" type="translate" values="0 0;0 9" dur="1.9s" repeatCount="indefinite" begin="0.6s"/><animateTransform class="lg-loop" attributeName="transform" type="scale" values="1;1;0.05" dur="1.9s" repeatCount="indefinite" additive="sum" begin="0.6s"/></path><path d="M93 96.6 C92 98.19999999999999 92.2 99.6 93 99.6 C93.8 99.6 94 98.19999999999999 93 96.6Z" fill="#9fe6ff" stroke="var(--lg-ink, #1d2230)" stroke-width="0.4" style="transform-box:fill-box;transform-origin:center"><animateTransform class="lg-loop" attributeName="transform" type="translate" values="0 0;0 9" dur="1.7s" repeatCount="indefinite" begin="1.1s"/><animateTransform class="lg-loop" attributeName="transform" type="scale" values="1;1;0.05" dur="1.7s" repeatCount="indefinite" additive="sum" begin="1.1s"/></path>
  </g></g>
  <!-- ripples round the feet -->
  <g fill="none" stroke="#fff" stroke-linecap="round" stroke-width="1" opacity="0.8">
    <path d="M-6 129 C0 132 12 132 18 129" style="transform-box:fill-box;transform-origin:center"><animateTransform class="lg-loop" attributeName="transform" type="scale" values="0.8;1.15;0.8" dur="2.4s" repeatCount="indefinite"/></path>
    <path d="M80 129 C88 132 100 132 106 128" style="transform-box:fill-box;transform-origin:center"><animateTransform class="lg-loop" attributeName="transform" type="scale" values="1.1;0.8;1.1" dur="2.8s" repeatCount="indefinite"/></path>
  </g>
</svg>
